<svg xmlns="http://www.w3.org/2000/svg" viewBox="0 0 292.3 101.18"><defs><style>.cls-1{fill:#fff;}.cls-2{fill:#11af9b;}.cls-3{fill:#01aa98;}</style></defs><g id="Capa_2" data-name="Capa 2"><g id="Capa_1-2" data-name="Capa 1"><path class="cls-1" d="M291.18,10.63a2.13,2.13,0,0,1,.82.81,2.29,2.29,0,0,1-2,3.46,2.28,2.28,0,0,1-1.16-.3,2.25,2.25,0,0,1-.82-.83,2.31,2.31,0,0,1-.3-1.16,2.27,2.27,0,0,1,1.12-2,2.32,2.32,0,0,1,1.17-.3A2.25,2.25,0,0,1,291.18,10.63Zm-.23,3.6a1.84,1.84,0,0,0,.91-1.63,1.85,1.85,0,0,0-.24-.94A1.68,1.68,0,0,0,291,11a1.92,1.92,0,0,0-1-.24,1.89,1.89,0,0,0-.95.24,1.8,1.8,0,0,0-.66.68,1.88,1.88,0,0,0-.24.94,1.92,1.92,0,0,0,.24,1,1.82,1.82,0,0,0,1.6.92A1.79,1.79,0,0,0,291,14.23Zm.14-1.51a.88.88,0,0,1-.35.31l.55.84h-.67l-.48-.73h-.44v.73H289V11.36h1.1a1.21,1.21,0,0,1,.8.24.81.81,0,0,1,.29.65A.89.89,0,0,1,291.09,12.72Zm-1-.08a.52.52,0,0,0,.35-.1.34.34,0,0,0,.13-.29.35.35,0,0,0-.13-.29.52.52,0,0,0-.35-.1h-.38v.78Z"/><path class="cls-1" d="M79.8,14.56h3V35.83h-3Z"/><path class="cls-1" d="M106.84,14.56V35.83h-2.49L91.59,20V35.83h-3V14.56H91L103.8,30.42V14.56Z"/><path class="cls-1" d="M131.36,14.56,122,35.83h-3l-9.36-21.27H113L120.61,32l7.72-17.47Z"/><path class="cls-1" d="M149.64,33.18v2.65H134.21V14.56h15V17.2h-12v6.54h10.66v2.58H137.25v6.86Z"/><path class="cls-1" d="M167.82,35.83l-4.59-6.53c-.56,0-1,.06-1.33.06h-5.26v6.47h-3V14.56h8.3a9.89,9.89,0,0,1,6.5,2A6.7,6.7,0,0,1,170.77,22a7.15,7.15,0,0,1-1.22,4.2,6.89,6.89,0,0,1-3.46,2.52l5,7.14Zm-1.61-10.3A4.35,4.35,0,0,0,167.73,22a4.3,4.3,0,0,0-1.52-3.54,6.84,6.84,0,0,0-4.4-1.23h-5.17v9.57h5.17A6.79,6.79,0,0,0,166.21,25.53Z"/><path class="cls-1" d="M176.94,35.33a9.56,9.56,0,0,1-3.51-1.93L174.55,31a9.18,9.18,0,0,0,3.12,1.77,11.29,11.29,0,0,0,3.9.69,7,7,0,0,0,4-.9,2.77,2.77,0,0,0,1.31-2.38,2.35,2.35,0,0,0-.72-1.78,4.62,4.62,0,0,0-1.76-1.05c-.7-.24-1.69-.52-3-.82a31.16,31.16,0,0,1-3.88-1.15A6.48,6.48,0,0,1,175,23.63a4.75,4.75,0,0,1-1.05-3.24,5.49,5.49,0,0,1,.9-3.07,6.1,6.1,0,0,1,2.72-2.18,11,11,0,0,1,4.53-.82,14.45,14.45,0,0,1,3.7.48,9.89,9.89,0,0,1,3.13,1.4l-1,2.43a11.13,11.13,0,0,0-5.83-1.73,6.55,6.55,0,0,0-3.88.94,2.89,2.89,0,0,0-1.29,2.43,2.32,2.32,0,0,0,.73,1.78,5,5,0,0,0,1.81,1.06,27.67,27.67,0,0,0,2.93.81,29.72,29.72,0,0,1,3.86,1.15,6.47,6.47,0,0,1,2.5,1.76A4.65,4.65,0,0,1,189.8,30a5.41,5.41,0,0,1-.91,3.06,6.17,6.17,0,0,1-2.76,2.19,11.6,11.6,0,0,1-4.56.8A14.67,14.67,0,0,1,176.94,35.33Z"/><path class="cls-1" d="M193.88,14.56h3V35.83h-3Z"/><path class="cls-1" d="M206.69,34.66a10.32,10.32,0,0,1-4.06-3.91,10.72,10.72,0,0,1-1.47-5.56,10.77,10.77,0,0,1,1.47-5.56,10.36,10.36,0,0,1,4.06-3.9,12.57,12.57,0,0,1,11.57,0,10.36,10.36,0,0,1,4,3.89,10.7,10.7,0,0,1,1.46,5.57,10.71,10.71,0,0,1-1.46,5.58,10.36,10.36,0,0,1-4,3.89,12.57,12.57,0,0,1-11.57,0Zm10-2.36a7.8,7.8,0,0,0,2.94-2.93,8.61,8.61,0,0,0,0-8.35,7.83,7.83,0,0,0-2.94-2.94A8.46,8.46,0,0,0,212.49,17a8.63,8.63,0,0,0-4.24,1.06,7.72,7.72,0,0,0-3,2.94,8.14,8.14,0,0,0-1.07,4.17,8.18,8.18,0,0,0,1.07,4.18,7.7,7.7,0,0,0,3,2.93,8.53,8.53,0,0,0,4.24,1.07A8.37,8.37,0,0,0,216.7,32.3Z"/><path class="cls-1" d="M246.24,14.56V35.83h-2.49L231,20V35.83h-3V14.56h2.5l12.76,15.86V14.56Z"/><path class="cls-1" d="M267.38,33.18v2.65H252V14.56h15V17.2H255v6.54h10.66v2.58H255v6.86Z"/><path class="cls-1" d="M273.65,35.33a9.56,9.56,0,0,1-3.51-1.93L271.27,31a9.13,9.13,0,0,0,3.11,1.77,11.37,11.37,0,0,0,3.9.69,7,7,0,0,0,4-.9,2.74,2.74,0,0,0,1.31-2.38,2.38,2.38,0,0,0-.71-1.78,4.74,4.74,0,0,0-1.77-1.05c-.69-.24-1.68-.52-3-.82a30.42,30.42,0,0,1-3.87-1.15,6.48,6.48,0,0,1-2.52-1.78,4.75,4.75,0,0,1-1-3.24,5.56,5.56,0,0,1,.89-3.07,6.15,6.15,0,0,1,2.72-2.18,11,11,0,0,1,4.53-.82,14.53,14.53,0,0,1,3.71.48,10,10,0,0,1,3.13,1.4l-1,2.43a11.06,11.06,0,0,0-5.83-1.73,6.53,6.53,0,0,0-3.87.94,2.89,2.89,0,0,0-1.29,2.43,2.32,2.32,0,0,0,.73,1.78,4.86,4.86,0,0,0,1.8,1.06,28.38,28.38,0,0,0,2.93.81A29.24,29.24,0,0,1,283,25.07a6.51,6.51,0,0,1,2.51,1.76,4.65,4.65,0,0,1,1,3.19,5.49,5.49,0,0,1-.91,3.06,6.15,6.15,0,0,1-2.77,2.19,11.53,11.53,0,0,1-4.56.8A14.71,14.71,0,0,1,273.65,35.33Z"/><path class="cls-2" d="M82.91,73.52a15.63,15.63,0,0,1-5.15-2.42l2.28-5a15.34,15.34,0,0,0,4.42,2.19,16.57,16.57,0,0,0,5.12.83,8.11,8.11,0,0,0,4.21-.85A2.54,2.54,0,0,0,95.15,66a2.15,2.15,0,0,0-.8-1.71,6.15,6.15,0,0,0-2.07-1.1c-.84-.27-2-.58-3.4-.91a45.28,45.28,0,0,1-5.42-1.57,8.85,8.85,0,0,1-3.61-2.51,6.79,6.79,0,0,1-1.51-4.63A8,8,0,0,1,79.71,49a9.05,9.05,0,0,1,4.11-3.25,16.72,16.72,0,0,1,6.71-1.19,22.26,22.26,0,0,1,5.41.66,15.83,15.83,0,0,1,4.62,1.9L98.5,52.19a16.07,16.07,0,0,0-8-2.28,7.53,7.53,0,0,0-4.15.91A2.78,2.78,0,0,0,85,53.22a2.35,2.35,0,0,0,1.55,2.21,23.9,23.9,0,0,0,4.73,1.42,49.09,49.09,0,0,1,5.41,1.57,9,9,0,0,1,3.62,2.48,6.68,6.68,0,0,1,1.5,4.59A7.9,7.9,0,0,1,100.42,70a9.33,9.33,0,0,1-4.15,3.24,16.91,16.91,0,0,1-6.73,1.2A23.6,23.6,0,0,1,82.91,73.52Z"/><path class="cls-2" d="M132.75,45V74h-6.69V62.1H112.92V74h-6.69V45h6.69v11.4h13.14V45Z"/><path class="cls-2" d="M158.34,67.76H144.92L142.36,74H135.5L148.39,45H155L167.92,74h-7Zm-2.11-5.08-4.58-11.07-4.58,11.07Z"/><path class="cls-2" d="M170.65,45h13.14a18.42,18.42,0,0,1,8.32,1.8,13.47,13.47,0,0,1,5.62,5.06,14.27,14.27,0,0,1,2,7.6,14.29,14.29,0,0,1-2,7.6,13.53,13.53,0,0,1-5.62,5.06A18.55,18.55,0,0,1,183.79,74H170.65Zm12.81,23.42A9.74,9.74,0,0,0,190.38,66,8.56,8.56,0,0,0,193,59.5,8.57,8.57,0,0,0,190.38,53a9.74,9.74,0,0,0-6.92-2.42h-6.12V68.46Z"/><path class="cls-2" d="M222.07,67.76H208.65L206.09,74h-6.86L212.12,45h6.61L231.66,74h-7ZM220,62.68l-4.59-11.07L210.8,62.68Z"/><path class="cls-2" d="M245.15,63.71V74h-6.69V63.63L227.27,45h7.1l7.72,12.85L249.82,45h6.56Z"/><path class="cls-1" d="M82.53,84.24h-2.4v-.62h5.51v.62h-2.4v6.19h-.71Z"/><path class="cls-1" d="M92.27,89.8v.63H87.45V83.62h4.67v.62h-4v2.42h3.52v.62H88.17V89.8Z"/><path class="cls-1" d="M95.72,90a3.29,3.29,0,0,1-1.27-1.24,3.65,3.65,0,0,1,0-3.55A3.25,3.25,0,0,1,95.73,84a3.69,3.69,0,0,1,1.82-.45,3.8,3.8,0,0,1,1.41.26,2.8,2.8,0,0,1,1.08.73l-.45.46a2.72,2.72,0,0,0-2-.81,3,3,0,0,0-1.46.37,2.88,2.88,0,0,0-1,3.89,2.66,2.66,0,0,0,1,1,2.91,2.91,0,0,0,1.46.37,2.7,2.7,0,0,0,2-.81l.45.45a2.8,2.8,0,0,1-1.09.75,3.79,3.79,0,0,1-1.4.26A3.7,3.7,0,0,1,95.72,90Z"/><path class="cls-1" d="M107.94,83.62v6.81h-.6L103,84.9v5.53h-.72V83.62h.59l4.39,5.52V83.62Z"/><path class="cls-1" d="M112,90a3.28,3.28,0,0,1-1.29-1.24,3.62,3.62,0,0,1,0-3.53A3.28,3.28,0,0,1,112,84a3.63,3.63,0,0,1,1.83-.46,3.69,3.69,0,0,1,1.82.45,3.32,3.32,0,0,1,1.28,1.24,3.59,3.59,0,0,1,0,3.55A3.32,3.32,0,0,1,115.62,90a3.69,3.69,0,0,1-1.82.45A3.74,3.74,0,0,1,112,90Zm3.29-.55a2.67,2.67,0,0,0,1-1,3,3,0,0,0,0-2.89,2.67,2.67,0,0,0-1-1,3.07,3.07,0,0,0-2.92,0,2.63,2.63,0,0,0-1,1,2.94,2.94,0,0,0,0,2.89,2.63,2.63,0,0,0,1,1,3.14,3.14,0,0,0,2.92,0Z"/><path class="cls-1" d="M119.65,83.62h.72V89.8h3.81v.63h-4.53Z"/><path class="cls-1" d="M127.06,90a3.28,3.28,0,0,1-1.29-1.24,3.62,3.62,0,0,1,0-3.53A3.28,3.28,0,0,1,127.06,84a3.61,3.61,0,0,1,1.83-.46,3.69,3.69,0,0,1,1.82.45A3.32,3.32,0,0,1,132,85.25a3.59,3.59,0,0,1,0,3.55A3.32,3.32,0,0,1,130.71,90a3.89,3.89,0,0,1-3.65,0Zm3.29-.55a2.67,2.67,0,0,0,1-1,3,3,0,0,0,0-2.89,2.67,2.67,0,0,0-1-1,3,3,0,0,0-1.46-.37,3,3,0,0,0-1.47.37,2.7,2.7,0,0,0-1,1,3,3,0,0,0,0,2.89,2.7,2.7,0,0,0,1,1,3,3,0,0,0,1.47.36A3,3,0,0,0,130.35,89.48Z"/><path class="cls-1" d="M139.53,87h.69v2.6a3.25,3.25,0,0,1-1.12.64,4.19,4.19,0,0,1-1.37.23,3.74,3.74,0,0,1-1.84-.45,3.25,3.25,0,0,1-1.28-1.24,3.59,3.59,0,0,1,0-3.55A3.25,3.25,0,0,1,135.89,84a3.75,3.75,0,0,1,1.85-.45,4.17,4.17,0,0,1,1.43.25,2.86,2.86,0,0,1,1.09.74l-.44.45a2.83,2.83,0,0,0-2.06-.8,3.1,3.1,0,0,0-1.49.37,2.66,2.66,0,0,0-1,1,2.72,2.72,0,0,0-.38,1.44,2.74,2.74,0,0,0,1.42,2.45,3.23,3.23,0,0,0,3.26-.15Z"/><path class="cls-1" d="M144,81.86h.92l-1.57,1.21h-.69Zm-1.06,1.76h.72v6.81h-.72Z"/><path class="cls-1" d="M150.8,88.61H147l-.82,1.82h-.75l3.12-6.81h.7l3.12,6.81h-.76Zm-.26-.58-1.63-3.66L147.27,88Z"/><path class="cls-1" d="M161.78,89h-3.16L158,90.43H156.4l3-6.81H161l3,6.81h-1.65Zm-.5-1.2-1.08-2.6-1.08,2.6Z"/><path class="cls-1" d="M170.25,84.9h-2.18V83.62H174V84.9h-2.18v5.53h-1.57Z"/><path class="cls-1" d="M176.15,89.74a3.13,3.13,0,0,1-.81-2.31V83.62h1.57v3.75c0,1.22.51,1.83,1.52,1.83a1.45,1.45,0,0,0,1.13-.44,2.08,2.08,0,0,0,.39-1.39V83.62h1.55v3.81a3.22,3.22,0,0,1-5.35,2.31Z"/><path class="cls-1" d="M191.63,89h-3.16l-.6,1.46h-1.61l3-6.81h1.55l3,6.81h-1.65Zm-.49-1.2-1.08-2.6L189,87.77Z"/><path class="cls-1" d="M195.27,83.62h1.57v5.52h3.42v1.29h-5Z"/><path class="cls-1" d="M203.07,90.09a3.38,3.38,0,0,1-1.32-1.25,3.67,3.67,0,0,1,0-3.63A3.38,3.38,0,0,1,203.07,84a4.23,4.23,0,0,1,3.49-.14,3,3,0,0,1,1.2.89l-1,.93a2.17,2.17,0,0,0-1.71-.79,2.33,2.33,0,0,0-1.13.27,2,2,0,0,0-.77.78,2.4,2.4,0,0,0,0,2.25,1.9,1.9,0,0,0,.77.77,2.23,2.23,0,0,0,1.13.28,2.18,2.18,0,0,0,1.71-.8l1,.93a3.07,3.07,0,0,1-1.2.9,4,4,0,0,1-1.61.31A3.93,3.93,0,0,1,203.07,90.09Z"/><path class="cls-1" d="M213.84,89h-3.16l-.6,1.46h-1.62l3-6.81h1.56l3,6.81h-1.65Zm-.5-1.2-1.08-2.6-1.08,2.6Z"/><path class="cls-1" d="M223.71,83.62v6.81h-1.29L219,86.3v4.13h-1.56V83.62h1.31l3.38,4.13V83.62Z"/><path class="cls-1" d="M227.38,90.09a3.34,3.34,0,0,1-1.33-1.25,3.67,3.67,0,0,1,0-3.63A3.34,3.34,0,0,1,227.38,84a4.23,4.23,0,0,1,3.49-.14,3.2,3.2,0,0,1,1.2.89l-1,.93a2.17,2.17,0,0,0-1.71-.79,2.29,2.29,0,0,0-1.12.27,2.09,2.09,0,0,0-.78.78,2.48,2.48,0,0,0,0,2.25,2,2,0,0,0,.78.77,2.28,2.28,0,0,0,2.83-.52l1,.93a3.18,3.18,0,0,1-1.21.9,4.21,4.21,0,0,1-3.48-.14Z"/><path class="cls-1" d="M239.07,89.16v1.27H233.8V83.62h5.14v1.27h-3.58v1.47h3.16v1.23h-3.16v1.57Z"/><path class="cls-1" d="M56.91,36.27V19a5.21,5.21,0,0,0-1.44-3.8,5.1,5.1,0,0,0-3.79-1.48H33a5.24,5.24,0,0,0-3.83,1.48,5.09,5.09,0,0,0-1.5,3.8V34a8.62,8.62,0,0,0,2.14,5.66L50.31,64.52V82.26H36.5a9.34,9.34,0,0,1,.3,2.32,9,9,0,0,1-.71,3.53H51.68a5.09,5.09,0,0,0,3.79-1.47,5.25,5.25,0,0,0,1.44-3.81V65.62a8.54,8.54,0,0,0-2-5.57L34.23,35.23V19.53H50.31V36.27ZM27.62,75.4a9.12,9.12,0,0,1,6.61,2.82V64H27.62Z"/><rect class="cls-1" x="45.73" y="88.09" width="6.61" height="6.61"/><rect class="cls-1" x="45.73" y="6.36" width="6.61" height="7.3"/><path class="cls-1" d="M52.35,6.61h0A6.61,6.61,0,0,0,45.73,0H7C3.13,0,0,2.73,0,6.1V87.39H7.56V6.61Z"/><circle class="cls-1" cx="53.78" cy="35.41" r="5.6"/><circle class="cls-1" cx="31" cy="64.65" r="5.6"/><path class="cls-3" d="M33.22,84.62a5.6,5.6,0,1,1-5.6-5.6A5.56,5.56,0,0,1,33.22,84.62Z"/><path class="cls-1" d="M33.22,5.6a5.61,5.61,0,0,1-5.6,5.6,5.6,5.6,0,1,1,5.6-5.6Z"/><path class="cls-1" d="M52.35,94.57h0a6.61,6.61,0,0,1-6.62,6.61H7c-3.86,0-7-2.73-7-6.1V13.79H7.56V94.57Z"/></g></g></svg>