<?xml version="1.0" encoding="utf-8"?>
<!-- Generator: Adobe Illustrator 26.0.1, SVG Export Plug-In . SVG Version: 6.00 Build 0)  -->
<svg version="1.1" id="Capa_1" xmlns="http://www.w3.org/2000/svg" xmlns:xlink="http://www.w3.org/1999/xlink" x="0px" y="0px"
	 viewBox="0 0 2276.8 787.4" style="enable-background:new 0 0 2276.8 787.4;" xml:space="preserve">
<style type="text/css">
	.st0{opacity:0.1;}
	.st1{enable-background:new    ;}
	.st2{fill:#FFFFFF;}
	.st3{fill:#11AF9B;}
	.st4{fill:#01AA98;}
</style>
<g class="st0">
	<g class="st1">
		<path class="st2" d="M2254.8,77c2.7,1.5,4.8,3.7,6.4,6.4c1.5,2.7,2.3,5.7,2.3,9c0,3.3-0.8,6.3-2.4,9c-1.6,2.7-3.7,4.9-6.5,6.5
			c-2.7,1.6-5.7,2.4-9,2.4c-3.3,0-6.3-0.8-9-2.4c-2.7-1.6-4.8-3.7-6.4-6.5s-2.3-5.7-2.3-9s0.8-6.2,2.3-9s3.7-4.9,6.4-6.5
			c2.7-1.6,5.7-2.4,9.1-2.4S2252.1,75.5,2254.8,77z M2253,105.1c2.2-1.3,3.9-3.1,5.2-5.3c1.3-2.2,1.9-4.7,1.9-7.4
			c0-2.7-0.6-5.2-1.8-7.4c-1.2-2.2-2.9-3.9-5.1-5.2c-2.2-1.3-4.6-1.9-7.4-1.9s-5.2,0.6-7.4,1.9c-2.2,1.3-3.9,3-5.1,5.2
			c-1.2,2.2-1.9,4.7-1.9,7.4s0.6,5.1,1.9,7.4c1.2,2.2,2.9,4,5.1,5.2c2.2,1.3,4.6,1.9,7.3,1.9C2248.3,107,2250.8,106.4,2253,105.1z
			 M2254.1,93.4c-0.6,1-1.5,1.8-2.7,2.4l4.3,6.6h-5.2l-3.7-5.6h-0.2h-3.3v5.6h-5.2V82.7h8.5c2.7,0,4.7,0.6,6.2,1.9
			c1.5,1.3,2.3,2.9,2.3,5.1C2255,91.1,2254.7,92.3,2254.1,93.4z M2246.1,92.7c1.2,0,2.1-0.3,2.7-0.8c0.7-0.5,1-1.3,1-2.2
			s-0.3-1.7-1-2.3c-0.7-0.5-1.6-0.8-2.7-0.8h-3v6.1H2246.1z"/>
	</g>
	<g class="st1">
		<path class="st2" d="M609.7,107.7h23.6v165.5h-23.6V107.7z"/>
	</g>
	<g class="st1">
		<path class="st2" d="M816.8,107.7v165.5h-19.4l-99.3-123.4v123.4h-23.6V107.7h19.4l99.3,123.4V107.7H816.8z"/>
	</g>
	<g class="st1">
		<path class="st2" d="M1004.4,107.7l-72.6,165.5h-23.4l-72.8-165.5h25.5l59.6,136l60.1-136H1004.4z"/>
	</g>
	<g class="st1">
		<path class="st2" d="M1143.5,252.6v20.6h-120.1V107.7h116.8v20.6H1047v50.8h83v20.1h-83v53.4H1143.5z"/>
	</g>
	<g class="st1">
		<path class="st2" d="M1281.5,273.2l-35.7-50.8c-4.4,0.3-7.9,0.5-10.4,0.5h-40.9v50.4h-23.6V107.7h64.5c21.4,0,38.3,5.1,50.6,15.4
			c12.3,10.2,18.4,24.4,18.4,42.3c0,12.8-3.2,23.6-9.5,32.6c-6.3,9-15.3,15.5-27,19.6l39.2,55.6H1281.5z M1268.9,193
			c7.9-6.5,11.8-15.7,11.8-27.7c0-12-3.9-21.2-11.8-27.5c-7.9-6.4-19.3-9.6-34.3-9.6h-40.2v74.5h40.2
			C1249.6,202.7,1261,199.5,1268.9,193z"/>
	</g>
	<g class="st1">
		<path class="st2" d="M1349.2,269.3c-11.6-3.9-20.7-8.9-27.3-15l8.7-18.4c6.3,5.7,14.4,10.3,24.2,13.8c9.8,3.5,20,5.3,30.4,5.3
			c13.7,0,24-2.3,30.7-7c6.8-4.6,10.2-10.8,10.2-18.6c0-5.7-1.9-10.3-5.6-13.8c-3.7-3.5-8.3-6.3-13.7-8.2c-5.4-1.9-13.1-4-23.1-6.4
			c-12.5-3-22.5-6-30.1-9c-7.6-3-14.2-7.6-19.6-13.8c-5.4-6.2-8.2-14.6-8.2-25.2c0-8.8,2.3-16.8,7-23.9c4.6-7.1,11.7-12.8,21.2-17
			s21.2-6.4,35.2-6.4c9.8,0,19.4,1.3,28.8,3.8c9.5,2.5,17.6,6.1,24.4,10.9l-7.8,18.9c-6.9-4.4-14.3-7.8-22.2-10
			c-7.9-2.3-15.6-3.4-23.2-3.4c-13.4,0-23.4,2.4-30.1,7.3c-6.7,4.9-10,11.2-10,18.9c0,5.7,1.9,10.3,5.7,13.8
			c3.8,3.5,8.5,6.3,14.1,8.3c5.6,2,13.2,4.1,22.8,6.3c12.5,3,22.5,6,30,9c7.6,3,14.1,7.6,19.5,13.7c5.4,6.1,8.2,14.4,8.2,24.8
			c0,8.7-2.4,16.6-7.1,23.8c-4.7,7.2-11.9,12.8-21.5,17c-9.6,4.2-21.4,6.3-35.5,6.3C1372.8,275.1,1360.8,273.1,1349.2,269.3z"/>
	</g>
	<g class="st1">
		<path class="st2" d="M1477.8,107.7h23.6v165.5h-23.6V107.7z"/>
	</g>
	<g class="st1">
		<path class="st2" d="M1574.3,264.1c-13.4-7.3-23.9-17.5-31.6-30.4c-7.6-12.9-11.5-27.3-11.5-43.3c0-15.9,3.8-30.3,11.5-43.3
			c7.6-12.9,18.2-23.1,31.6-30.4c13.4-7.3,28.5-11,45.2-11c16.6,0,31.5,3.7,44.9,11c13.4,7.3,23.9,17.4,31.4,30.3
			c7.6,12.8,11.3,27.3,11.3,43.4s-3.8,30.5-11.3,43.4c-7.6,12.8-18.1,22.9-31.4,30.3c-13.4,7.3-28.4,11-44.9,11
			C1602.7,275.1,1587.7,271.4,1574.3,264.1z M1652.2,245.8c9.7-5.5,17.3-13.1,22.9-22.8c5.6-9.7,8.4-20.5,8.4-32.5
			c0-12-2.8-22.8-8.4-32.5c-5.6-9.7-13.2-17.3-22.9-22.8c-9.7-5.5-20.6-8.3-32.7-8.3c-12.1,0-23.1,2.8-33,8.3
			c-9.9,5.5-17.6,13.1-23.2,22.8c-5.6,9.7-8.4,20.5-8.4,32.5c0,12,2.8,22.8,8.4,32.5c5.6,9.7,13.3,17.3,23.2,22.8
			c9.8,5.5,20.8,8.3,33,8.3C1631.6,254,1642.5,251.3,1652.2,245.8z"/>
	</g>
	<g class="st1">
		<path class="st2" d="M1878.9,107.7v165.5h-19.4l-99.3-123.4v123.4h-23.6V107.7h19.4l99.3,123.4V107.7H1878.9z"/>
	</g>
	<g class="st1">
		<path class="st2" d="M2040,252.6v20.6h-120.1V107.7h116.8v20.6h-93.2v50.8h83v20.1h-83v53.4H2040z"/>
	</g>
	<g class="st1">
		<path class="st2" d="M2085.7,269.3c-11.6-3.9-20.7-8.9-27.3-15l8.7-18.4c6.3,5.7,14.4,10.3,24.2,13.8c9.8,3.5,20,5.3,30.4,5.3
			c13.7,0,24-2.3,30.7-7c6.8-4.6,10.2-10.8,10.2-18.6c0-5.7-1.9-10.3-5.6-13.8c-3.7-3.5-8.3-6.3-13.7-8.2c-5.4-1.9-13.1-4-23.1-6.4
			c-12.5-3-22.5-6-30.1-9c-7.6-3-14.2-7.6-19.6-13.8c-5.4-6.2-8.2-14.6-8.2-25.2c0-8.8,2.3-16.8,7-23.9c4.6-7.1,11.7-12.8,21.2-17
			s21.2-6.4,35.2-6.4c9.8,0,19.4,1.3,28.8,3.8c9.5,2.5,17.6,6.1,24.4,10.9l-7.8,18.9c-6.9-4.4-14.3-7.8-22.2-10
			c-7.9-2.3-15.6-3.4-23.2-3.4c-13.4,0-23.4,2.4-30.1,7.3c-6.7,4.9-10,11.2-10,18.9c0,5.7,1.9,10.3,5.7,13.8
			c3.8,3.5,8.5,6.3,14.1,8.3c5.6,2,13.2,4.1,22.8,6.3c12.5,3,22.5,6,30,9c7.6,3,14.1,7.6,19.5,13.7c5.4,6.1,8.2,14.4,8.2,24.8
			c0,8.7-2.4,16.6-7.1,23.8c-4.7,7.2-11.9,12.8-21.5,17c-9.6,4.2-21.4,6.3-35.5,6.3C2109.3,275.1,2097.3,273.1,2085.7,269.3z"/>
	</g>
	<g class="st1">
		<path class="st3" d="M633.9,566.5c-16.6-4.8-29.9-11.1-40-18.8l17.7-39.2c9.6,7.1,21.1,12.8,34.4,17c13.3,4.3,26.6,6.4,39.9,6.4
			c14.8,0,25.7-2.2,32.8-6.6c7.1-4.4,10.6-10.2,10.6-17.5c0-5.4-2.1-9.8-6.3-13.3c-4.2-3.5-9.5-6.4-16.1-8.5
			c-6.5-2.1-15.4-4.5-26.5-7.1c-17.1-4.1-31.2-8.1-42.1-12.2c-10.9-4.1-20.3-10.6-28.1-19.6c-7.8-9-11.7-21-11.7-36
			c0-13.1,3.5-24.9,10.6-35.5c7.1-10.6,17.7-19,32-25.2c14.2-6.2,31.7-9.3,52.2-9.3c14.4,0,28.4,1.7,42.1,5.1
			c13.7,3.4,25.7,8.4,36,14.8l-16.1,39.5c-20.8-11.8-41.6-17.7-62.4-17.7c-14.6,0-25.3,2.4-32.3,7.1c-7,4.7-10.4,10.9-10.4,18.6
			c0,7.7,4,13.4,12.1,17.2c8,3.8,20.3,7.4,36.8,11.1c17.1,4.1,31.2,8.1,42.1,12.2c10.9,4.1,20.3,10.5,28.1,19.3
			c7.8,8.8,11.7,20.7,11.7,35.7c0,12.9-3.6,24.6-10.8,35.2c-7.2,10.6-17.9,19-32.3,25.2c-14.4,6.2-31.8,9.3-52.4,9.3
			C667.7,573.7,650.5,571.3,633.9,566.5z"/>
	</g>
	<g class="st1">
		<path class="st3" d="M1019.1,344.9v225H967v-92.2H864.8v92.2h-52.1v-225h52.1v88.7H967v-88.7H1019.1z"/>
	</g>
	<g class="st1">
		<path class="st3" d="M1215.5,521.7H1111l-19.9,48.2h-53.4l100.3-225h51.4l100.6,225h-54.6L1215.5,521.7z M1199.1,482.1l-35.7-86.1
			l-35.7,86.1H1199.1z"/>
	</g>
	<g class="st1">
		<path class="st3" d="M1308.5,344.9h102.2c24.4,0,46,4.7,64.8,14c18.7,9.3,33.3,22.4,43.7,39.4c10.4,16.9,15.6,36.6,15.6,59.1
			c0,22.5-5.2,42.2-15.6,59.1c-10.4,16.9-25,30.1-43.7,39.4c-18.8,9.3-40.3,14-64.8,14h-102.2V344.9z M1408.2,527.1
			c22.5,0,40.4-6.3,53.8-18.8c13.4-12.5,20.1-29.5,20.1-50.9c0-21.4-6.7-38.4-20.1-50.9c-13.4-12.5-31.3-18.8-53.8-18.8h-47.6v139.5
			H1408.2z"/>
	</g>
	<g class="st1">
		<path class="st3" d="M1705.4,521.7h-104.5l-19.9,48.2h-53.4l100.3-225h51.4l100.6,225h-54.6L1705.4,521.7z M1689,482.1l-35.7-86.1
			l-35.7,86.1H1689z"/>
	</g>
	<g class="st1">
		<path class="st3" d="M1881,490.2v79.7h-52.1v-80.4l-87.1-144.6h55.3l60.1,100l60.1-100h51.1L1881,490.2z"/>
	</g>
	<g class="st1">
		<path class="st2" d="M631,650h-18.6v-4.8h42.8v4.8h-18.6v48.1H631V650z"/>
	</g>
	<g class="st1">
		<path class="st2" d="M706.8,693.2v4.8h-37.5v-53h36.3v4.8h-30.7v18.8h27.4v4.8h-27.4v19.7H706.8z"/>
	</g>
	<g class="st1">
		<path class="st2" d="M733.7,695.1c-4.2-2.3-7.5-5.5-9.9-9.6c-2.4-4.1-3.6-8.7-3.6-13.8c0-5.1,1.2-9.7,3.6-13.8
			c2.4-4.1,5.7-7.3,9.9-9.6c4.2-2.3,9-3.5,14.2-3.5c3.9,0,7.6,0.7,10.9,2c3.3,1.3,6.2,3.2,8.5,5.8l-3.6,3.6
			c-4.1-4.2-9.4-6.3-15.7-6.3c-4.2,0-8,1-11.4,2.9c-3.4,1.9-6.1,4.5-8.1,7.9c-1.9,3.3-2.9,7.1-2.9,11.2c0,4.1,1,7.9,2.9,11.2
			c1.9,3.3,4.6,6,8.1,7.9c3.4,1.9,7.2,2.9,11.4,2.9c6.4,0,11.6-2.1,15.7-6.4l3.6,3.6c-2.3,2.5-5.2,4.5-8.5,5.8c-3.4,1.3-7,2-10.9,2
			C742.6,698.5,737.9,697.4,733.7,695.1z"/>
		<path class="st2" d="M828.8,645.1v53h-4.6l-34-43v43h-5.6v-53h4.6l34.1,43v-43H828.8z"/>
		<path class="st2" d="M860.2,695c-4.3-2.3-7.6-5.6-10-9.6c-2.4-4.1-3.6-8.7-3.6-13.8c0-5.1,1.2-9.7,3.6-13.8
			c2.4-4.1,5.7-7.3,10-9.6c4.3-2.3,9-3.5,14.3-3.5c5.2,0,10,1.2,14.2,3.5c4.2,2.3,7.5,5.5,9.9,9.6c2.4,4.1,3.6,8.7,3.6,13.8
			c0,5.1-1.2,9.7-3.6,13.8c-2.4,4.1-5.7,7.3-9.9,9.6c-4.2,2.3-8.9,3.5-14.2,3.5C869.2,698.5,864.5,697.4,860.2,695z M885.8,690.7
			c3.4-1.9,6-4.5,7.9-7.9c1.9-3.4,2.9-7.1,2.9-11.2c0-4.1-1-7.9-2.9-11.2c-1.9-3.4-4.6-6-7.9-7.9c-3.4-1.9-7.2-2.8-11.3-2.8
			c-4.2,0-8,0.9-11.4,2.8c-3.4,1.9-6.1,4.5-8,7.9c-1.9,3.4-2.9,7.1-2.9,11.2c0,4.1,1,7.9,2.9,11.2c1.9,3.4,4.6,6,8,7.9
			c3.4,1.9,7.2,2.8,11.4,2.8C878.7,693.5,882.5,692.6,885.8,690.7z"/>
	</g>
	<g class="st1">
		<path class="st2" d="M919.9,645.1h5.6v48.1h29.7v4.8h-35.3V645.1z"/>
	</g>
	<g class="st1">
		<path class="st2" d="M977.5,695c-4.3-2.3-7.6-5.6-10-9.6c-2.4-4.1-3.6-8.7-3.6-13.8c0-5.1,1.2-9.7,3.6-13.8
			c2.4-4.1,5.7-7.3,10-9.6c4.3-2.3,9-3.5,14.3-3.5c5.2,0,10,1.2,14.2,3.5c4.2,2.3,7.5,5.5,9.9,9.6c2.4,4.1,3.6,8.7,3.6,13.8
			c0,5.1-1.2,9.7-3.6,13.8c-2.4,4.1-5.7,7.3-9.9,9.6c-4.2,2.3-8.9,3.5-14.2,3.5C986.5,698.5,981.8,697.4,977.5,695z M1003.1,690.7
			c3.4-1.9,6-4.5,7.9-7.9c1.9-3.4,2.9-7.1,2.9-11.2c0-4.1-1-7.9-2.9-11.2c-1.9-3.4-4.6-6-7.9-7.9c-3.4-1.9-7.2-2.8-11.3-2.8
			c-4.2,0-8,0.9-11.4,2.8c-3.4,1.9-6.1,4.5-8,7.9c-1.9,3.4-2.9,7.1-2.9,11.2c0,4.1,1,7.9,2.9,11.2c1.9,3.4,4.6,6,8,7.9
			c3.4,1.9,7.2,2.8,11.4,2.8C995.9,693.5,999.7,692.6,1003.1,690.7z"/>
		<path class="st2" d="M1074.7,671.6h5.4v20.2c-2.5,2.2-5.4,3.8-8.8,5c-3.4,1.2-6.9,1.7-10.7,1.7c-5.3,0-10.1-1.2-14.3-3.5
			c-4.2-2.3-7.6-5.5-10-9.6c-2.4-4.1-3.6-8.7-3.6-13.8c0-5.1,1.2-9.7,3.6-13.8c2.4-4.1,5.8-7.3,10-9.6c4.2-2.3,9-3.5,14.4-3.5
			c4,0,7.7,0.6,11.1,1.9c3.4,1.3,6.2,3.2,8.5,5.7l-3.5,3.6c-4.2-4.1-9.5-6.2-16-6.2c-4.3,0-8.2,0.9-11.6,2.8
			c-3.5,1.9-6.2,4.5-8.1,7.9c-2,3.4-3,7.1-3,11.2c0,4.1,1,7.9,3,11.2s4.7,6,8.1,7.9c3.4,1.9,7.3,2.9,11.6,2.9
			c5.4,0,10.1-1.4,13.8-4.1V671.6z"/>
		<path class="st2" d="M1109.4,631.4h7.2l-12.3,9.4h-5.3L1109.4,631.4z M1101.2,645.1h5.6v53h-5.6V645.1z"/>
		<path class="st2" d="M1162.5,683.9H1133l-6.4,14.1h-5.8l24.2-53h5.5l24.2,53h-5.9L1162.5,683.9z M1160.5,679.4l-12.7-28.4
			l-12.7,28.4H1160.5z"/>
	</g>
	<g class="st1">
		<path class="st2" d="M1247.8,686.7h-24.6l-4.7,11.3H1206l23.6-53h12.1l23.7,53h-12.9L1247.8,686.7z M1243.9,677.4l-8.4-20.3
			l-8.4,20.3H1243.9z"/>
	</g>
	<g class="st1">
		<path class="st2" d="M1313.6,655.1h-16.9v-10h46.2v10h-16.9v43h-12.3V655.1z"/>
	</g>
	<g class="st1">
		<path class="st2" d="M1359.6,692.7c-4.2-4.2-6.3-10.2-6.3-17.9v-29.7h12.3v29.2c0,9.5,3.9,14.2,11.8,14.2c3.8,0,6.8-1.1,8.8-3.4
			c2-2.3,3-5.9,3-10.8v-29.2h12.1v29.7c0,7.8-2.1,13.7-6.3,17.9c-4.2,4.2-10.1,6.3-17.7,6.3C1369.7,699,1363.8,696.9,1359.6,692.7z"
			/>
		<path class="st2" d="M1480.2,686.7h-24.6l-4.7,11.3h-12.6l23.6-53h12.1l23.7,53h-12.9L1480.2,686.7z M1476.3,677.4l-8.4-20.3
			l-8.4,20.3H1476.3z"/>
	</g>
	<g class="st1">
		<path class="st2" d="M1508.4,645.1h12.3v43h26.6v10h-38.8V645.1z"/>
	</g>
	<g class="st1">
		<path class="st2" d="M1569.1,695.5c-4.4-2.3-7.8-5.6-10.3-9.8c-2.5-4.2-3.7-8.9-3.7-14.1c0-5.2,1.2-9.9,3.7-14.1
			c2.5-4.2,5.9-7.4,10.3-9.8c4.4-2.3,9.3-3.5,14.7-3.5c4.6,0,8.7,0.8,12.4,2.4c3.7,1.6,6.8,3.9,9.3,7l-7.9,7.3
			c-3.6-4.1-8-6.2-13.3-6.2c-3.3,0-6.2,0.7-8.8,2.2s-4.6,3.4-6,6s-2.2,5.5-2.2,8.8c0,3.3,0.7,6.2,2.2,8.8c1.4,2.6,3.4,4.6,6,6
			s5.5,2.2,8.8,2.2c5.3,0,9.7-2.1,13.3-6.3l7.9,7.3c-2.5,3.1-5.6,5.4-9.4,7c-3.7,1.6-7.9,2.4-12.5,2.4
			C1578.3,699,1573.4,697.8,1569.1,695.5z"/>
	</g>
	<g class="st1">
		<path class="st2" d="M1652.9,686.7h-24.6l-4.7,11.3H1611l23.6-53h12.1l23.7,53h-12.9L1652.9,686.7z M1649,677.4l-8.4-20.3
			l-8.4,20.3H1649z"/>
		<path class="st2" d="M1729.8,645.1v53h-10.1l-26.4-32.2v32.2h-12.1v-53h10.1l26.3,32.2v-32.2H1729.8z"/>
		<path class="st2" d="M1758.4,695.5c-4.4-2.3-7.8-5.6-10.3-9.8c-2.5-4.2-3.7-8.9-3.7-14.1c0-5.2,1.2-9.9,3.7-14.1
			c2.5-4.2,5.9-7.4,10.3-9.8c4.4-2.3,9.3-3.5,14.7-3.5c4.6,0,8.7,0.8,12.4,2.4c3.7,1.6,6.8,3.9,9.3,7l-7.9,7.3
			c-3.6-4.1-8-6.2-13.3-6.2c-3.3,0-6.2,0.7-8.8,2.2s-4.6,3.4-6,6s-2.2,5.5-2.2,8.8c0,3.3,0.7,6.2,2.2,8.8c1.4,2.6,3.4,4.6,6,6
			s5.5,2.2,8.8,2.2c5.3,0,9.7-2.1,13.3-6.3l7.9,7.3c-2.5,3.1-5.6,5.4-9.4,7c-3.7,1.6-7.9,2.4-12.5,2.4
			C1767.6,699,1762.7,697.8,1758.4,695.5z"/>
		<path class="st2" d="M1849.4,688.2v9.8h-41v-53h40v9.8h-27.8v11.5h24.6v9.5h-24.6v12.3H1849.4z"/>
	</g>
	<path class="st2" d="M431.6,276.6V141.9c0-12.1-3.8-22-11.3-29.6c-7.5-7.6-17.3-11.5-29.4-11.5H245.1c-12.1,0-22,3.9-29.8,11.5
		s-11.7,17.5-11.7,29.6v117.3c0,16,5.5,30.7,16.7,44l159.9,193.2v138.1H272.8c1.5,5.9,2.3,11.9,2.3,18c0,9.4-1.9,18.8-5.5,27.5
		h121.4c12.1,0,21.9-3.8,29.4-11.5c7.5-7.7,11.3-17.5,11.3-29.6V505c0-16-5.3-30.5-15.9-43.3L255.1,268.5V146.4h125.1v130.3H431.6z
		 M203.6,581.1c19.4,0,38,7.9,51.4,21.9v-111h-51.4L203.6,581.1z"/>
	<rect x="344.6" y="679.9" class="st2" width="51.5" height="51.5"/>
	<rect x="344.6" y="43.9" class="st2" width="51.5" height="56.8"/>
	<path class="st2" d="M396.1,45.8L396.1,45.8c0-28.4-23-51.5-51.5-51.5l0,0H43.1c-30,0-54.4,21.3-54.4,47.5v632.6h58.9V45.8H396.1z"
		/>
	<circle class="st2" cx="407.3" cy="269.9" r="43.6"/>
	
		<ellipse transform="matrix(0.1602 -0.9871 0.9871 0.1602 -297.9115 644.7929)" class="st2" cx="230" cy="497.5" rx="43.6" ry="43.6"/>
	<path class="st4" d="M247.2,652.9c0,24.1-19.6,43.5-43.6,43.5c-24.1,0-43.5-19.6-43.5-43.6c0-24,19.5-43.5,43.6-43.5
		c23.9-0.2,43.4,19,43.6,42.9C247.2,652.4,247.2,652.6,247.2,652.9z"/>
	<path class="st2" d="M247.2,37.9c0,24.1-19.5,43.6-43.6,43.5c-24.1,0-43.6-19.5-43.5-43.6c0-24,19.5-43.5,43.6-43.5
		c23.9-0.2,43.4,19,43.6,42.9C247.2,37.5,247.2,37.7,247.2,37.9z"/>
	<path class="st2" d="M396.1,730.3L396.1,730.3c0,28.4-23,51.4-51.5,51.4H43.1c-30,0-54.4-21.3-54.4-47.5V101.7h58.9v628.6
		L396.1,730.3z"/>
</g>
</svg>
