<svg xmlns="http://www.w3.org/2000/svg" viewBox="0 0 312.42 108.14"><defs><style>.cls-1{fill:#0a0c1a;}.cls-2{fill:#01aa98;}</style></defs><g id="Capa_2" data-name="Capa 2"><g id="Capa_1-2" data-name="Capa 1"><path class="cls-1" d="M311.22,11.36a2.37,2.37,0,0,1,.88.87,2.49,2.49,0,0,1,.32,1.24,2.42,2.42,0,0,1-.33,1.24,2.47,2.47,0,0,1-3.36.89,2.35,2.35,0,0,1-.88-.89,2.52,2.52,0,0,1,0-2.46,2.42,2.42,0,0,1,.88-.89A2.53,2.53,0,0,1,310,11,2.39,2.39,0,0,1,311.22,11.36ZM311,15.21a2,2,0,0,0,1-1.74,2,2,0,0,0-.25-1,1.84,1.84,0,0,0-.7-.71,1.93,1.93,0,0,0-1-.26,2,2,0,0,0-1,.26,2,2,0,0,0-.71.72,2,2,0,0,0-.25,1,2,2,0,0,0,.25,1,1.86,1.86,0,0,0,.7.72,2,2,0,0,0,2,0Zm.15-1.61a.85.85,0,0,1-.37.33l.59.89h-.72l-.51-.77h-.48v.77h-.72V12.14h1.17a1.32,1.32,0,0,1,.86.26.84.84,0,0,1,.31.69A.92.92,0,0,1,311.12,13.6ZM310,13.51a.59.59,0,0,0,.38-.11.37.37,0,0,0,.14-.31.4.4,0,0,0-.14-.31.59.59,0,0,0-.38-.11h-.4v.84Z"/><path class="cls-1" d="M85.29,15.56h3.25V38.29H85.29Z"/><path class="cls-1" d="M114.17,15.56V38.29h-2.66L97.87,21.34v17H94.62V15.56h2.66l13.64,16.95V15.56Z"/><path class="cls-1" d="M140.35,15.56l-10,22.73h-3.22l-10-22.73h3.51l8.18,18.67,8.25-18.67Z"/><path class="cls-1" d="M159.87,35.47v2.82h-16.5V15.56h16v2.83H146.62v7H158v2.76h-11.4v7.34Z"/><path class="cls-1" d="M179.27,38.29l-4.91-7c-.6.05-1.08.07-1.43.07h-5.61v6.91h-3.25V15.56h8.86a10.56,10.56,0,0,1,6.95,2.11,7.18,7.18,0,0,1,2.54,5.82,7.66,7.66,0,0,1-1.3,4.48,7.36,7.36,0,0,1-3.7,2.69l5.39,7.63Zm-1.72-11a4.62,4.62,0,0,0,1.62-3.79,4.6,4.6,0,0,0-1.62-3.79,7.4,7.4,0,0,0-4.71-1.31h-5.52V28.62h5.52A7.28,7.28,0,0,0,177.55,27.28Z"/><path class="cls-1" d="M189,37.76a10.24,10.24,0,0,1-3.75-2.06l1.2-2.54a10.07,10.07,0,0,0,3.33,1.9,12.17,12.17,0,0,0,4.17.73,7.54,7.54,0,0,0,4.23-1,2.92,2.92,0,0,0,1.39-2.54,2.49,2.49,0,0,0-.76-1.9,5.12,5.12,0,0,0-1.88-1.12c-.75-.26-1.81-.56-3.17-.88a32.71,32.71,0,0,1-4.14-1.23,7,7,0,0,1-2.7-1.9,5.12,5.12,0,0,1-1.12-3.46,5.82,5.82,0,0,1,1-3.28,6.53,6.53,0,0,1,2.91-2.34,11.7,11.7,0,0,1,4.84-.88,15.6,15.6,0,0,1,4,.52,10.57,10.57,0,0,1,3.34,1.5l-1.07,2.59a12.16,12.16,0,0,0-3.05-1.38,11.5,11.5,0,0,0-3.18-.47,7,7,0,0,0-4.14,1,3.09,3.09,0,0,0-1.38,2.6,2.49,2.49,0,0,0,.78,1.9,5.38,5.38,0,0,0,1.93,1.13,29.63,29.63,0,0,0,3.13.86,33.46,33.46,0,0,1,4.13,1.24,7,7,0,0,1,2.67,1.88,5,5,0,0,1,1.12,3.41,5.77,5.77,0,0,1-1,3.26,6.46,6.46,0,0,1-2.95,2.34,12.18,12.18,0,0,1-4.88.86A15.55,15.55,0,0,1,189,37.76Z"/><path class="cls-1" d="M207.07,15.56h3.24V38.29h-3.24Z"/><path class="cls-1" d="M220.73,37a11.06,11.06,0,0,1-4.33-4.17,11.45,11.45,0,0,1-1.58-5.94A11.42,11.42,0,0,1,216.4,21a11.16,11.16,0,0,1,4.33-4.18,13.44,13.44,0,0,1,12.38,0A11.08,11.08,0,0,1,237.43,21a11.59,11.59,0,0,1,1.55,6,11.62,11.62,0,0,1-1.55,6A11.06,11.06,0,0,1,233.11,37a13.44,13.44,0,0,1-12.38,0Zm10.7-2.51a8.4,8.4,0,0,0,3.15-3.14,9.17,9.17,0,0,0,0-8.93,8.38,8.38,0,0,0-3.15-3.13,8.9,8.9,0,0,0-4.49-1.14,9.07,9.07,0,0,0-4.53,1.14,8.27,8.27,0,0,0-3.19,3.13,9.24,9.24,0,0,0,0,8.93,8.3,8.3,0,0,0,3.19,3.14,9.17,9.17,0,0,0,4.53,1.13A9,9,0,0,0,231.43,34.53Z"/><path class="cls-1" d="M263,15.56V38.29h-2.66L246.69,21.34v17h-3.25V15.56h2.66l13.64,16.95V15.56Z"/><path class="cls-1" d="M285.56,35.47v2.82H269.07V15.56h16v2.83h-12.8v7h11.4v2.76h-11.4v7.34Z"/><path class="cls-1" d="M292.24,37.76a10.15,10.15,0,0,1-3.75-2.06l1.2-2.54a9.87,9.87,0,0,0,3.33,1.9,12.13,12.13,0,0,0,4.17.73,7.5,7.5,0,0,0,4.22-1,2.93,2.93,0,0,0,1.4-2.54,2.5,2.5,0,0,0-.77-1.9,5,5,0,0,0-1.88-1.12,32.76,32.76,0,0,0-3.17-.88,32.71,32.71,0,0,1-4.14-1.23,7,7,0,0,1-2.69-1.9A5.07,5.07,0,0,1,289,21.8a5.82,5.82,0,0,1,1-3.28,6.44,6.44,0,0,1,2.9-2.34,11.7,11.7,0,0,1,4.84-.88,15.6,15.6,0,0,1,4,.52,10.63,10.63,0,0,1,3.35,1.5L304,19.91a12.23,12.23,0,0,0-3.06-1.38,11.5,11.5,0,0,0-3.18-.47,7,7,0,0,0-4.14,1,3.09,3.09,0,0,0-1.38,2.6,2.49,2.49,0,0,0,.78,1.9,5.47,5.47,0,0,0,1.93,1.13,29.24,29.24,0,0,0,3.14.86,33.24,33.24,0,0,1,4.12,1.24,7,7,0,0,1,2.68,1.88A5,5,0,0,1,306,32.09a5.78,5.78,0,0,1-1,3.26,6.41,6.41,0,0,1-2.95,2.34,12.1,12.1,0,0,1-4.87.86A15.55,15.55,0,0,1,292.24,37.76Z"/><path class="cls-2" d="M88.61,78.58A16.5,16.5,0,0,1,83.12,76l2.42-5.39A16.59,16.59,0,0,0,90.27,73a17.67,17.67,0,0,0,5.47.88,8.77,8.77,0,0,0,4.5-.9,2.72,2.72,0,0,0,1.46-2.41,2.32,2.32,0,0,0-.86-1.83,6.5,6.5,0,0,0-2.21-1.17c-.9-.29-2.11-.62-3.64-1a50.42,50.42,0,0,1-5.78-1.68,9.33,9.33,0,0,1-3.86-2.69,7.25,7.25,0,0,1-1.62-5,8.58,8.58,0,0,1,1.46-4.87,9.85,9.85,0,0,1,4.39-3.47,18,18,0,0,1,7.18-1.28,23.76,23.76,0,0,1,5.78.71,17.12,17.12,0,0,1,4.94,2l-2.2,5.43a17.24,17.24,0,0,0-8.57-2.43,8,8,0,0,0-4.43,1,3,3,0,0,0-1.44,2.56,2.49,2.49,0,0,0,1.66,2.36,25.32,25.32,0,0,0,5,1.53,52.15,52.15,0,0,1,5.78,1.67,9.66,9.66,0,0,1,3.87,2.65,7.13,7.13,0,0,1,1.61,4.9,8.5,8.5,0,0,1-1.48,4.84,10,10,0,0,1-4.44,3.46,18.13,18.13,0,0,1-7.19,1.28A25.35,25.35,0,0,1,88.61,78.58Z"/><path class="cls-2" d="M141.85,48.14V79H134.7V66.37h-14V79h-7.15V48.14h7.15V60.32h14V48.14Z"/><path class="cls-2" d="M169.17,72.42H154.82L152.08,79h-7.33l13.78-30.9h7.06L179.41,79H171.9ZM166.92,67,162,55.16,157.11,67Z"/><path class="cls-2" d="M182.29,48.14h14a19.71,19.71,0,0,1,8.89,1.92,14.35,14.35,0,0,1,6,5.41,15.25,15.25,0,0,1,2.14,8.12,15.25,15.25,0,0,1-2.14,8.12,14.35,14.35,0,0,1-6,5.41A19.71,19.71,0,0,1,196.33,79h-14Zm13.68,25a10.41,10.41,0,0,0,7.4-2.58,9.13,9.13,0,0,0,2.76-7,9.14,9.14,0,0,0-2.76-7A10.41,10.41,0,0,0,196,54h-6.53V73.17Z"/><path class="cls-2" d="M237.21,72.42H222.86L220.12,79h-7.33l13.78-30.9h7.06L247.45,79h-7.51ZM235,67l-4.9-11.83L225.15,67Z"/><path class="cls-2" d="M261.82,68.09V79h-7.16V68l-12-19.87h7.59l8.26,13.73,8.26-13.73h7Z"/><path class="cls-1" d="M88.21,90H85.65v-.66h5.88V90H89v6.61h-.76Z"/><path class="cls-1" d="M98.62,96v.66H93.47V89.38h5V90H94.24v2.59H98v.65H94.24V96Z"/><path class="cls-1" d="M102.31,96.23A3.45,3.45,0,0,1,101,94.91a3.91,3.91,0,0,1,0-3.79,3.44,3.44,0,0,1,1.37-1.33,4.22,4.22,0,0,1,3.44-.21,3.19,3.19,0,0,1,1.17.79l-.49.49a2.91,2.91,0,0,0-2.15-.86,3.21,3.21,0,0,0-1.57.39,3,3,0,0,0-1.11,1.09,3,3,0,0,0-.4,1.53,3.07,3.07,0,0,0,.4,1.54,2.88,2.88,0,0,0,1.11,1.08,3.11,3.11,0,0,0,1.57.4,2.83,2.83,0,0,0,2.15-.88l.49.49a3.21,3.21,0,0,1-1.17.8,4.08,4.08,0,0,1-1.5.27A4,4,0,0,1,102.31,96.23Z"/><path class="cls-1" d="M115.37,89.38v7.27h-.64l-4.67-5.9v5.9h-.77V89.38h.63l4.69,5.9v-5.9Z"/><path class="cls-1" d="M119.67,96.23a3.5,3.5,0,0,1-1.37-1.33,3.89,3.89,0,0,1,0-3.78,3.55,3.55,0,0,1,1.37-1.32,4,4,0,0,1,2-.49,4,4,0,0,1,2,.48A3.57,3.57,0,0,1,125,91.12a3.84,3.84,0,0,1,0,3.79,3.55,3.55,0,0,1-1.37,1.32,4,4,0,0,1-2,.48A4,4,0,0,1,119.67,96.23Zm3.52-.59a2.83,2.83,0,0,0,1.09-1.08,3.18,3.18,0,0,0,0-3.09,2.83,2.83,0,0,0-1.09-1.08,3.11,3.11,0,0,0-1.56-.39,3.17,3.17,0,0,0-1.56.39,2.79,2.79,0,0,0-1.1,1.08,3.18,3.18,0,0,0,0,3.09,2.79,2.79,0,0,0,1.1,1.08,3.17,3.17,0,0,0,1.56.39A3.11,3.11,0,0,0,123.19,95.64Z"/><path class="cls-1" d="M127.89,89.38h.77V96h4.07v.66h-4.84Z"/><path class="cls-1" d="M135.8,96.23a3.5,3.5,0,0,1-1.37-1.33,3.82,3.82,0,0,1,0-3.78,3.55,3.55,0,0,1,1.37-1.32,4,4,0,0,1,2-.49,4,4,0,0,1,2,.48,3.48,3.48,0,0,1,1.36,1.33,3.84,3.84,0,0,1,0,3.79,3.45,3.45,0,0,1-1.36,1.32,4,4,0,0,1-2,.48A4,4,0,0,1,135.8,96.23Zm3.52-.59a2.83,2.83,0,0,0,1.09-1.08,3.26,3.26,0,0,0,0-3.09,2.83,2.83,0,0,0-1.09-1.08,3.17,3.17,0,0,0-1.56-.39,3.11,3.11,0,0,0-1.56.39,2.88,2.88,0,0,0-1.11,1.08,3.18,3.18,0,0,0,0,3.09,2.88,2.88,0,0,0,1.11,1.08,3.11,3.11,0,0,0,1.56.39A3.17,3.17,0,0,0,139.32,95.64Z"/><path class="cls-1" d="M149.14,93h.73v2.78a3.54,3.54,0,0,1-1.2.68,4.44,4.44,0,0,1-1.47.24,4,4,0,0,1-2-.48,3.48,3.48,0,0,1-1.37-1.32,3.84,3.84,0,0,1,0-3.79,3.5,3.5,0,0,1,1.37-1.33,4,4,0,0,1,2-.48,4.17,4.17,0,0,1,1.53.27,3.12,3.12,0,0,1,1.18.78l-.48.49a3,3,0,0,0-2.19-.85,3.3,3.3,0,0,0-1.6.39,2.91,2.91,0,0,0-1.12,1.08,3.16,3.16,0,0,0,0,3.08,2.84,2.84,0,0,0,1.12,1.08,3.12,3.12,0,0,0,1.58.4,3.22,3.22,0,0,0,1.91-.56Z"/><path class="cls-1" d="M153.9,87.5h1l-1.68,1.28h-.73Zm-1.14,1.88h.77v7.27h-.77Z"/><path class="cls-1" d="M161.18,94.71h-4.05l-.87,1.94h-.81l3.33-7.27h.76l3.32,7.27h-.81Zm-.28-.63-1.75-3.9-1.74,3.9Z"/><path class="cls-1" d="M172.91,95.09h-3.38l-.64,1.56h-1.73l3.25-7.27h1.66l3.25,7.27h-1.76Zm-.53-1.28L171.23,91l-1.16,2.78Z"/><path class="cls-1" d="M182,90.75h-2.33V89.38H186v1.37h-2.33v5.9H182Z"/><path class="cls-1" d="M188.27,95.91a3.29,3.29,0,0,1-.86-2.46V89.38h1.68v4q0,2,1.62,2a1.54,1.54,0,0,0,1.21-.47,2.25,2.25,0,0,0,.41-1.48v-4H194v4.07a3.33,3.33,0,0,1-.86,2.46,3.86,3.86,0,0,1-4.86,0Z"/><path class="cls-1" d="M204.82,95.09h-3.38l-.64,1.56h-1.73l3.25-7.27H204l3.25,7.27h-1.76Zm-.53-1.28L203.14,91,202,93.81Z"/><path class="cls-1" d="M208.71,89.38h1.68v5.9H214v1.37h-5.33Z"/><path class="cls-1" d="M217.05,96.29A3.66,3.66,0,0,1,215.63,95a3.93,3.93,0,0,1,0-3.87,3.59,3.59,0,0,1,1.42-1.34,4.08,4.08,0,0,1,2-.49,4.27,4.27,0,0,1,1.71.33,3.49,3.49,0,0,1,1.28,1l-1.08,1a2.31,2.31,0,0,0-1.83-.85,2.43,2.43,0,0,0-1.21.29,2.11,2.11,0,0,0-.82.83,2.38,2.38,0,0,0-.3,1.2,2.41,2.41,0,0,0,.3,1.21,2.09,2.09,0,0,0,.82.82,2.44,2.44,0,0,0,1.21.3,2.32,2.32,0,0,0,1.83-.86l1.08,1a3.42,3.42,0,0,1-1.29,1,4.27,4.27,0,0,1-1.71.33A4.18,4.18,0,0,1,217.05,96.29Z"/><path class="cls-1" d="M228.55,95.09h-3.37l-.65,1.56h-1.72l3.24-7.27h1.66L231,96.65H229.2ZM228,93.81,226.87,91l-1.15,2.78Z"/><path class="cls-1" d="M239.11,89.38v7.27h-1.38l-3.63-4.42v4.42h-1.66V89.38h1.39l3.62,4.41V89.38Z"/><path class="cls-1" d="M243,96.29A3.57,3.57,0,0,1,241.61,95a3.93,3.93,0,0,1,0-3.87A3.5,3.5,0,0,1,243,89.74a4.14,4.14,0,0,1,2-.49,4.27,4.27,0,0,1,1.71.33,3.52,3.52,0,0,1,1.29,1l-1.08,1a2.34,2.34,0,0,0-1.83-.85,2.41,2.41,0,0,0-1.21.29,2,2,0,0,0-.82.83,2.38,2.38,0,0,0-.3,1.2,2.41,2.41,0,0,0,.3,1.21,2,2,0,0,0,.82.82,2.41,2.41,0,0,0,1.21.3,2.35,2.35,0,0,0,1.83-.86l1.08,1a3.42,3.42,0,0,1-1.29,1,4.36,4.36,0,0,1-1.72.33A4.2,4.2,0,0,1,243,96.29Z"/><path class="cls-1" d="M255.52,95.3v1.35h-5.63V89.38h5.49v1.35h-3.82v1.58h3.38v1.31h-3.38V95.3Z"/><path class="cls-1" d="M60.83,38.77V20.27a5.53,5.53,0,0,0-1.55-4.07,5.42,5.42,0,0,0-4-1.58h-20a5.59,5.59,0,0,0-4.09,1.58,5.45,5.45,0,0,0-1.6,4.07V36.38a9.22,9.22,0,0,0,2.29,6L53.77,69v19H39a9.63,9.63,0,0,1,.32,2.48,9.74,9.74,0,0,1-.76,3.78H55.24a5.42,5.42,0,0,0,4-1.58,5.53,5.53,0,0,0,1.55-4.07V70.13a9.15,9.15,0,0,0-2.18-5.95L36.59,37.65V20.88H53.77V38.77ZM29.52,80.58a9.79,9.79,0,0,1,7.07,3V68.35H29.52Z"/><rect class="cls-1" x="48.88" y="94.15" width="7.07" height="7.07"/><rect class="cls-1" x="48.88" y="6.8" width="7.07" height="7.8"/><path class="cls-1" d="M56,7.07h0A7.07,7.07,0,0,0,48.88,0H7.47C3.34,0,0,2.92,0,6.52V93.4H8.08V7.07Z"/><circle class="cls-1" cx="57.48" cy="37.85" r="5.98"/><circle class="cls-1" cx="33.14" cy="69.1" r="5.98"/><path class="cls-2" d="M35.5,90.44a6,6,0,1,1-6-6A5.94,5.94,0,0,1,35.5,90.44Z"/><path class="cls-1" d="M35.5,6a6,6,0,0,1-6,6,6,6,0,1,1,6-6Z"/><path class="cls-1" d="M56,101.08h0a7.07,7.07,0,0,1-7.07,7.06H7.47c-4.13,0-7.47-2.92-7.47-6.52V14.74H8.08v86.34Z"/></g></g></svg>