<svg xmlns="http://www.w3.org/2000/svg" viewBox="0 0 63.47 108.14"><defs><style>.cls-1{fill:#0a0c1a;}.cls-2{fill:#01aa98;}</style></defs><g id="Capa_2" data-name="Capa 2"><g id="Capa_1-2" data-name="Capa 1"><path class="cls-1" d="M60.83,38.77V20.27a5.53,5.53,0,0,0-1.55-4.07,5.42,5.42,0,0,0-4-1.58h-20a5.59,5.59,0,0,0-4.09,1.58,5.45,5.45,0,0,0-1.6,4.07V36.38a9.22,9.22,0,0,0,2.29,6L53.77,69v19H39a9.63,9.63,0,0,1,.32,2.48,9.74,9.74,0,0,1-.76,3.78H55.24a5.42,5.42,0,0,0,4-1.58,5.53,5.53,0,0,0,1.55-4.07V70.13a9.15,9.15,0,0,0-2.18-5.95L36.59,37.65V20.88H53.77V38.77ZM29.52,80.58a9.79,9.79,0,0,1,7.07,3V68.35H29.52Z"/><rect class="cls-1" x="48.88" y="94.15" width="7.07" height="7.07"/><rect class="cls-1" x="48.88" y="6.8" width="7.07" height="7.8"/><path class="cls-1" d="M56,7.07h0A7.07,7.07,0,0,0,48.88,0H7.47C3.34,0,0,2.92,0,6.52V93.4H8.08V7.07Z"/><circle class="cls-1" cx="57.48" cy="37.85" r="5.98"/><circle class="cls-1" cx="33.14" cy="69.1" r="5.98"/><path class="cls-2" d="M35.5,90.44a6,6,0,1,1-6-6A5.94,5.94,0,0,1,35.5,90.44Z"/><path class="cls-1" d="M35.5,6a6,6,0,0,1-6,6,6,6,0,1,1,6-6Z"/><path class="cls-1" d="M56,101.08h0a7.07,7.07,0,0,1-7.07,7.06H7.47c-4.13,0-7.47-2.92-7.47-6.52V14.74H8.08v86.34Z"/></g></g></svg>