<?xml version="1.0" encoding="utf-8"?>
<!-- Generator: Adobe Illustrator 26.0.1, SVG Export Plug-In . SVG Version: 6.00 Build 0)  -->
<svg version="1.1" id="Capa_1" xmlns="http://www.w3.org/2000/svg" xmlns:xlink="http://www.w3.org/1999/xlink" x="0px" y="0px"
	 viewBox="0 0 328.1 178.8" style="enable-background:new 0 0 328.1 178.8;" xml:space="preserve">
<style type="text/css">
	.st0{opacity:0.38;}
	.st1{opacity:0.35;fill:#F3FFFF;enable-background:new    ;}
	.st2{opacity:0.35;}
	.st3{fill:#F3FFFF;}
	.st4{opacity:0.35;fill:#ED1B26;enable-background:new    ;}
	.st5{opacity:0.35;fill:#FFFFFF;enable-background:new    ;}
	.st6{opacity:0.35;fill:url(#SVGID_1_);enable-background:new    ;}
	.st7{fill:#FFB998;}
	.st8{fill:#4F160B;}
	.st9{fill:#F8FCFF;}
	.st10{opacity:0.35;fill:#FFB998;enable-background:new    ;}
	.st11{opacity:0.35;fill:#C51015;enable-background:new    ;}
	.st12{opacity:0.35;fill:#710C10;enable-background:new    ;}
	.st13{fill:none;}
	.st14{opacity:0.35;fill:#F8FCFF;enable-background:new    ;}
	.st15{opacity:0.35;fill:url(#SVGID_00000040557304594375102890000006355750308620014524_);enable-background:new    ;}
</style>
<g id="Capa_2_00000080193662449577987800000016114590482608789936_" class="st0">
	<g id="Capa_1-2">
		<path class="st1" d="M294.6,111.2c-2.3-2.6-6.2-6.6-9.1-8.4c-1.4-1.1-3-2.1-4.5-2.9c-3.4-1.8-6.9-3.2-10.6-4.1
			c-6.9-1.7-14-2.5-21.1-2.5c-33.8,0-80.7,15.2-125.5,40.8c-0.2,0.1-0.4,0.2-0.6,0.3c-6.9,4-13.7,7.5-20.2,10.6
			c-7.7,3.7-15.6,6.8-23.7,9.5c-13.7,4.5-26.4,6.7-38,6.7c-5.1,0-10.2-0.5-15.2-1.5c-18.9-4.1-25.6-14-26-14.6c1,1,2,1.9,3,2.7
			l0.1,0.1c3,2.4,6.2,4.4,9.6,6c6.7,3.2,16.1,5.8,28.6,5.8c17.7,0,37.9-5.3,60.3-15.8l20.9-10.9c45.1-25.8,92.5-41.3,126.7-41.3
			c4.5,0,9,0.3,13.4,0.9l0,0l0,0c4.7,0.6,9.3,1.8,13.7,3.4l0,0c3.3,1.4,6.4,3.3,9.2,5.4c1.3,1,2.5,2,3.5,3c1.6,1.5,3.1,3,4.4,4.7
			c0.4,0.6,0.7,1.1,1.1,1.7L294.6,111.2L294.6,111.2z"/>
		<path class="st1" d="M294.7,111.1l-0.1,0.1c-2.3-2.6-6.2-6.6-9.1-8.4c-1.4-1.1-3-2.1-4.5-2.9c-3.4-1.8-6.9-3.2-10.6-4.1
			c-6.9-1.7-14-2.5-21.1-2.5c-33.8,0-80.7,15.2-125.5,40.8c-0.2,0.1-0.4,0.2-0.6,0.3c-6.9,4-13.7,7.5-20.2,10.6
			c-7.7,3.7-15.6,6.8-23.7,9.5c-13.7,4.5-26.4,6.7-38,6.7c-5.1,0-10.2-0.5-15.2-1.5c-18.9-4.1-25.6-14-26-14.6c1,1,2,1.9,3,2.7
			l0.1,0.1c3,2.4,6.2,4.4,9.6,6c6.7,3.2,16.1,5.8,28.6,5.8c17.7,0,37.9-5.3,60.3-15.8l20.9-10.9c45.1-25.8,92.5-41.3,126.7-41.3
			c4.5,0,9,0.3,13.4,0.9l0,0l0,0c4.7,0.6,9.3,1.8,13.7,3.4l0,0c3.3,1.4,6.4,3.3,9.2,5.4c1.3,1,2.5,2,3.5,3c1.6,1.5,3.1,3,4.4,4.7
			c0.4,0.6,0.7,1.1,1.1,1.7L294.7,111.1z"/>
		<path class="st1" d="M294.7,111.1l-0.1,0.1c-2.3-2.6-6.2-6.6-9.1-8.4c-1.4-1.1-3-2.1-4.5-2.9c-3.4-1.8-6.9-3.2-10.6-4.1
			c-6.9-1.7-14-2.5-21.1-2.5c-33.8,0-80.7,15.2-125.5,40.8c-0.2,0.1-0.4,0.2-0.6,0.3c-6.9,4-13.7,7.5-20.2,10.6
			c-7.7,3.7-15.6,6.8-23.7,9.5c-13.7,4.5-26.4,6.7-38,6.7c-5.1,0-10.2-0.5-15.2-1.5c-18.9-4.1-25.6-14-26-14.6c1,1,2,1.9,3,2.7
			l0.1,0.1c3,2.4,6.2,4.4,9.6,6c6.7,3.2,16.1,5.8,28.6,5.8c17.7,0,37.9-5.3,60.3-15.8c6.8-3.2,13.7-6.8,20.9-10.9
			c45.1-25.8,92.5-41.3,126.7-41.3c4.5,0,9,0.3,13.4,0.9l0,0l0,0c4.7,0.6,9.3,1.8,13.7,3.4l0,0c3.3,1.4,6.4,3.3,9.2,5.4
			c1.3,1,2.5,2,3.5,3c1.6,1.5,3.1,3,4.4,4.7c0.4,0.6,0.7,1.1,1.1,1.7L294.7,111.1z"/>
		<g class="st2">
			<path class="st3" d="M83.7,49.5c0-0.1,0-0.2-0.1-0.3c-0.1-0.3-0.1-0.5-0.2-0.8c-0.3-0.7-0.7-1.3-1.3-1.7c-0.6-0.4-1.3-0.6-2-0.6
				c-0.8,0-1.6,0.2-2.4,0.5l-3,1.3l1.1,4.8l0.4,1.8l0.7,3.2l3-1.3c0.9-0.4,1.8-1,2.4-1.7c0.6-0.7,1.1-1.5,1.3-2.4
				c0.1-0.4,0.2-0.8,0.2-1.2C83.8,50.6,83.8,50.1,83.7,49.5z M81.9,53.2c-0.5,0.9-1.3,1.6-2.2,2l-1.5,0.6l-0.5-2L77.3,52l-0.8-3.5
				l1.5-0.6c0.7-0.4,1.6-0.5,2.4-0.2c0.7,0.3,1.3,0.9,1.5,1.6c0.1,0.2,0.2,0.4,0.2,0.7c0,0.1,0.1,0.2,0.1,0.2
				c0.1,0.6,0.2,1.2,0.1,1.7C82.2,52.3,82.1,52.8,81.9,53.2z"/>
			<path class="st3" d="M88.5,50.4l-0.3-1.2l-0.5-1.8l-0.3-1.1l-0.9-3.6l-1.4,0.6l-0.1,0.1l1.2,4.7l0.5,1.8l0.8,3.3l0.8-0.4l0.7-0.3
				L88.5,50.4z"/>
			<path class="st3" d="M94,50c-0.5,0-1-0.1-1.4-0.3c-0.4-0.2-0.8-0.6-1-1c0-0.1-0.1-0.2-0.1-0.3l1.5-0.7c0.1,0.4,0.4,0.7,0.8,0.8
				c0.4,0.1,0.9,0.1,1.3-0.1c0.5-0.2,0.8-0.5,1.1-0.9c0.2-0.4,0.2-0.8,0-1.2c-0.1-0.2-0.3-0.4-0.5-0.5c-0.2-0.1-0.5-0.2-0.8-0.2
				c-0.3,0-0.7,0-1.2,0c-0.6,0-1.2,0-1.6,0c-0.4,0-0.9-0.2-1.2-0.4c-0.4-0.2-0.7-0.6-0.9-1c-0.2-0.5-0.3-1.1-0.2-1.6
				c0.1-0.5,0.3-1.1,0.7-1.5c0.4-0.5,0.9-0.8,1.5-1.1c0.5-0.3,1.1-0.4,1.7-0.4c0.5,0,1,0.1,1.4,0.4c0.4,0.3,0.7,0.7,0.9,1.2
				l-1.6,0.7c-0.1-0.4-0.4-0.6-0.7-0.7C93.4,41,93,41,92.6,41.2c-0.4,0.2-0.8,0.5-1,0.9c-0.2,0.4-0.2,0.8,0,1.1
				c0.1,0.2,0.3,0.4,0.5,0.5c0.2,0.1,0.5,0.2,0.8,0.2c0.3,0,0.7,0,1.2,0c0.5,0,1.1,0,1.6,0c0.4,0,0.8,0.2,1.2,0.4
				c0.4,0.2,0.7,0.6,0.9,1c0.2,0.5,0.3,1.1,0.2,1.6c-0.1,0.5-0.4,1.1-0.7,1.5c-0.4,0.5-1,0.9-1.6,1.1C95.1,49.8,94.6,50,94,50z"/>
			<path class="st3" d="M104.5,34.3l0.3,1.2l-2.4,1.1l2.3,8.5l-1.5,0.7l-2.3-8.5l-2.4,1.2l-0.3-1.2L104.5,34.3z"/>
			<path class="st3" d="M112.8,31.1c0.6,0.2,1.2,0.6,1.4,1.2c0,0.1,0.1,0.3,0.2,0.5c0.2,0.7,0.2,1.3,0,2c-0.2,0.7-0.7,1.4-1.3,1.8
				l3.3,3l-1.8,0.8l-3.1-2.9l-1.1,0.5l1,3.9l-1.5,0.7l-2.7-9.8l3.1-1.5C111.1,31.1,111.9,30.9,112.8,31.1z M112.8,33.2
				c-0.1-0.3-0.4-0.6-0.8-0.7c-0.4-0.1-0.9,0-1.2,0.2l-1.6,0.8l0.9,3.3l1.6-0.8c0.5-0.2,0.9-0.5,1.1-1c0.2-0.4,0.2-1,0.1-1.4
				C112.9,33.5,112.8,33.3,112.8,33.2L112.8,33.2z"/>
			<path class="st3" d="M118.3,27.7l2.7,9.8l-1.5,0.7l-2.7-9.8L118.3,27.7z"/>
			<path class="st3" d="M128.6,27.4c-0.2,0.5-0.5,1-0.9,1.4c0.4-0.1,0.9-0.1,1.3,0.1c0.4,0.2,0.7,0.6,0.9,1c0.1,0.1,0.1,0.3,0.1,0.4
				c0.1,0.5,0.1,1,0,1.5c-0.1,0.5-0.4,1-0.8,1.4c-0.4,0.5-0.9,0.8-1.5,1.1l-3.6,1.7l-2.6-9.8l3.4-1.6c0.7-0.4,1.4-0.5,2.1-0.3
				c0.6,0.1,1.1,0.5,1.3,1.1c0.1,0.1,0.1,0.3,0.1,0.4C128.8,26.3,128.8,26.8,128.6,27.4z M127.1,26.4c-0.1-0.3-0.4-0.5-0.7-0.6
				c-0.4-0.1-0.8,0-1.1,0.2l-1.8,0.8l0.8,2.9l1.8-0.8c0.4-0.2,0.8-0.5,1-0.9c0.2-0.4,0.3-0.8,0.1-1.2
				C127.1,26.6,127.1,26.5,127.1,26.4L127.1,26.4z M128.4,30.5c-0.1-0.3-0.4-0.6-0.8-0.7c-0.4-0.1-0.8,0-1.2,0.2l-2,0.9l0.8,3.1
				l2-0.9c0.5-0.2,0.8-0.6,1.1-1c0.2-0.4,0.3-0.9,0.1-1.3L128.4,30.5z"/>
			<path class="st3" d="M132.8,21.1l1.5,6.2c0,0.2,0.1,0.4,0.2,0.6c0.2,0.5,0.5,0.8,1,1c0.5,0.1,1,0,1.5-0.2c1.3-0.5,2-1.9,1.5-3.2
				l-1.5-6.2l1.5-0.6l1.5,6.2c0.2,0.7,0.2,1.5,0,2.2c-0.2,0.7-0.5,1.3-1,1.8c-0.5,0.5-1.1,0.9-1.7,1.2c-0.8,0.4-1.6,0.5-2.5,0.3
				c-0.8-0.2-1.4-0.8-1.7-1.6c-0.1-0.3-0.2-0.5-0.3-0.8l-1.5-6.2L132.8,21.1z"/>
			<path class="st3" d="M142.5,19.4c0.2-0.9,0.7-1.7,1.3-2.4c0.6-0.7,1.4-1.3,2.2-1.6c0.9-0.4,1.9-0.5,2.8-0.3
				c0.9,0.2,1.7,0.7,2.2,1.5l-1.8,0.7c-0.3-0.4-0.8-0.6-1.2-0.7c-0.5-0.1-1.1,0-1.6,0.2c-0.6,0.2-1.1,0.6-1.5,1.1
				c-0.4,0.5-0.7,1.1-0.9,1.7c-0.1,0.7-0.1,1.3,0,2c0.1,0.3,0.1,0.5,0.2,0.8c0.3,0.7,0.8,1.3,1.5,1.6c0.7,0.3,1.5,0.2,2.2-0.1
				c0.5-0.2,1-0.6,1.4-1c0.4-0.4,0.6-1,0.8-1.5l1.8-0.7c-0.1,1.1-0.5,2-1.2,2.9c-0.6,0.8-1.5,1.5-2.4,1.8c-0.7,0.3-1.5,0.4-2.2,0.4
				c-0.7-0.1-1.4-0.3-2-0.8c-0.6-0.5-1-1.1-1.3-1.8c-0.1-0.3-0.2-0.6-0.3-0.9C142.2,21.3,142.2,20.4,142.5,19.4z"/>
			<path class="st3" d="M155.2,11.9l1.9,9.9l-1.5,0.6l-1.9-9.9L155.2,11.9z"/>
			<path class="st3" d="M162.4,19.3c-0.7-0.1-1.4-0.4-1.9-0.9c-0.6-0.5-1-1.2-1.2-1.9c-0.4-1-0.4-2.1-0.2-3.2c0.2-1,0.6-1.9,1.3-2.7
				c0.7-0.8,1.6-1.4,2.6-1.7c0.7-0.3,1.5-0.3,2.3-0.2c0.7,0.1,1.4,0.4,1.9,0.9c0.6,0.5,1,1.2,1.2,1.9c0.4,1,0.4,2.1,0.2,3.2
				c-0.2,1-0.6,2-1.3,2.7c-0.7,0.8-1.6,1.4-2.6,1.7C164,19.4,163.2,19.5,162.4,19.3z M166.2,16.4c0.5-0.6,0.7-1.3,0.8-2
				c0.1-0.8,0-1.5-0.2-2.2c-0.3-1.4-1.7-2.2-3.1-1.9c-0.2,0-0.3,0.1-0.5,0.2c-0.7,0.2-1.3,0.6-1.8,1.2c-0.5,0.6-0.7,1.3-0.8,2
				c-0.1,0.8,0,1.5,0.2,2.2c0.2,0.7,0.7,1.4,1.4,1.7c0.7,0.3,1.5,0.4,2.2,0.1C165.2,17.5,165.8,17,166.2,16.4z"/>
			<path class="st3" d="M180.1,14.2l-1.6,0.4L173,8.5l0.8,7.5l-1.6,0.5l-1-10.1l1.6-0.4l5.5,6.2l-0.8-7.5l1.5-0.5L180.1,14.2z"/>
			<path class="st3" d="M188.7,10.7l-1,0.2l-2.8,0.7l-0.1-2.3l-0.1-0.9l2.5-0.6l0.8-0.2l-0.1-1V6.3l-0.6,0.1l-2.8,0.7L184.5,4
				l2.4-0.6l1.4-0.3l-0.1-1.3L187,2.1l-4.1,1l0.3,4.7l0.1,1.9l0.2,3.5l4.9-1.2l0.5-0.1L188.7,10.7z"/>
			<path class="st3" d="M188.2,3.1l-1.4,0.3c0-0.5,0.1-0.9,0.2-1.4l1.2-0.3L188.2,3.1z"/>
			<path class="st3" d="M188.7,10.7l0.1,1.3l-0.5,0.1c-0.2-0.4-0.4-0.8-0.6-1.2L188.7,10.7z"/>
			<path class="st3" d="M198.7,7c-0.1-0.3-0.2-0.5-0.3-0.8c-0.1-0.2-0.2-0.3-0.3-0.4c-0.3-0.3-0.7-0.5-1.1-0.7
				c-0.3-0.1-0.6-0.2-1.1-0.3l-0.5-0.1c-0.5-0.1-0.8-0.2-1.1-0.3c-0.3-0.1-0.5-0.2-0.7-0.4c-0.2-0.2-0.3-0.4-0.4-0.6
				c-0.1-0.4,0-0.8,0.3-1.1c0.3-0.3,0.8-0.6,1.2-0.6c0.4-0.1,0.9-0.1,1.3,0.1c0.3,0.2,0.5,0.5,0.5,0.9l1.7-0.3
				c-0.1-0.5-0.3-1-0.6-1.3c-0.4-0.4-0.8-0.6-1.3-0.7c-0.6-0.1-1.2-0.1-1.8,0c-0.6,0.1-1.2,0.4-1.7,0.7c-0.4,0.3-0.8,0.8-1,1.3
				c-0.2,0.5-0.3,1.1-0.2,1.7c0.1,0.5,0.3,0.9,0.6,1.2c0.1,0.1,0.2,0.2,0.4,0.3c0.2,0.1,0.4,0.3,0.7,0.3c0.5,0.2,1,0.3,1.5,0.4
				c0.4,0.1,0.8,0.1,1.1,0.2c0.1,0,0.3,0.1,0.4,0.2c0.1,0,0.2,0.1,0.3,0.2c0.2,0.2,0.4,0.4,0.4,0.7c0.1,0.4,0,0.8-0.3,1.1
				c-0.4,0.3-0.8,0.6-1.3,0.6c-0.5,0.1-0.9,0.1-1.3-0.2c-0.3-0.2-0.6-0.6-0.6-1l-1.6,0.3c0,0.1,0,0.2,0,0.4c0.1,0.5,0.3,0.9,0.7,1.2
				c0.4,0.3,0.8,0.5,1.3,0.6c0.6,0.1,1.1,0.1,1.7,0c0.6-0.1,1.3-0.4,1.8-0.8c0.5-0.3,0.8-0.7,1.1-1.2C198.7,8.1,198.8,7.5,198.7,7z"
				/>
		</g>
		<path class="st4" d="M288.9,63.2c6.3,8.8,14.9,25.3,11.6,44.5c-22.2-38.7-104.4-24.4-181.5,19.7c-86.6,49.6-115,12.3-115,12.3
			c5.6-6.3,4.3-54.7,3.4-75.8c-0.2-6-0.4-9.8-0.4-9.8c2.8,5.6,6.7,10.5,11.7,14.3l0.2,0.1c5.6,4.1,12.1,6,19.3,6.2h0.1
			c9.4,0.2,20.1-2.4,31.7-6.7l0,0c1.4-0.5,2.9-1.1,4.4-1.7c26.3-10.3,57.3-28,90.1-39.9l0.6-0.2c0.1,0,0.3-0.1,0.4-0.1l0.4-0.1
			c1.4-0.5,2.9-1,4.4-1.5l0.5-0.2h0.1l1.2-0.4l1.1-0.4c0.4-0.1,0.8-0.2,1.1-0.4l2.3-0.7l1.1-0.3c6.7-2.1,13.4-3.8,20.3-5.2
			c24.4-5.2,57.6-8.4,83,3.6l0,0c29.5,12.8,36.4,37.7,36.4,37.7C295.3,50.6,288.9,63.2,288.9,63.2z"/>
		<path class="st5" d="M328.1,57.5l-0.6-2.1c-0.2-0.7-4-14-16.7-27c-3.7-3.7-7.7-7.1-12-10l-9.4-5.5c-1.1-0.6-2.3-1.1-3.5-1.7
			l-0.3-0.1c-13-6.1-28.8-9.2-46.9-9.2c-12,0.1-23.9,1.2-35.7,3.4c-0.1-0.4-0.3-0.8-0.5-1.2c0.1-0.2,0.1-0.4,0.2-0.6
			c11.9-2.2,23.9-3.4,36-3.5c18.4,0,34.4,3.2,47.7,9.4l0.3,0.1c1.2,0.5,2.4,1.1,3.6,1.7l9.5,5.5c2.6,1.8,5.1,3.7,7.5,5.8l0.1,0.1
			c2,1.7,3.9,3.6,5.8,5.5C323.7,40.2,327.7,55.8,328.1,57.5z"/>
		<path class="st5" d="M71.8,56.3l-0.4-1.8c-2.2,0.9-4.3,1.7-6.4,2.4l1.6,1.4C68.3,57.7,70,57,71.8,56.3z"/>
		
			<linearGradient id="SVGID_1_" gradientUnits="userSpaceOnUse" x1="-1.7028" y1="72.0241" x2="316.0283" y2="129.987" gradientTransform="matrix(1 0 0 -1 0 180)">
			<stop  offset="0" style="stop-color:#A60C16"/>
			<stop  offset="0.12" style="stop-color:#B50F19"/>
			<stop  offset="0.36" style="stop-color:#DC1722"/>
			<stop  offset="0.46" style="stop-color:#ED1B26"/>
			<stop  offset="0.56" style="stop-color:#E81A25"/>
			<stop  offset="0.68" style="stop-color:#D81821"/>
			<stop  offset="0.82" style="stop-color:#BE151B"/>
			<stop  offset="0.97" style="stop-color:#9A1112"/>
			<stop  offset="1" style="stop-color:#921010"/>
		</linearGradient>
		<path class="st6" d="M288.9,63.2c6.3,8.8,14.9,25.3,11.6,44.5c-22.2-38.7-104.4-24.4-181.5,19.7c-86.6,49.6-115,12.3-115,12.3
			c5.6-6.3,4.3-54.7,3.4-75.8c-0.2-6-0.4-9.8-0.4-9.8c2.8,5.6,6.7,10.5,11.7,14.3l0.2,0.1c5.6,4.1,12.1,6,19.3,6.2h0.1
			c9.4,0.2,20.1-2.4,31.7-6.7l0,0c1.4-0.5,2.9-1.1,4.4-1.7c26.3-10.3,57.3-28,90.1-39.9l0.6-0.2c0.1,0,0.3-0.1,0.4-0.1l0.4-0.1
			c1.4-0.5,2.9-1,4.4-1.5l0.5-0.2h0.1l1.2-0.4l1.1-0.4c0.4-0.1,0.8-0.2,1.1-0.4l2.3-0.7l1.1-0.3c6.7-2.1,13.4-3.8,20.3-5.2
			c24.4-5.2,57.6-8.4,83,3.6l0,0c29.5,12.8,36.4,37.7,36.4,37.7C295.3,50.6,288.9,63.2,288.9,63.2z"/>
		<g class="st2">
			<path class="st7" d="M77.8,133c-4.3,0-8.5-1.1-12.3-3.3c-2.8-1.7-5.2-3.8-7.1-6.4c-1.9-2.5-3.4-5.4-4.3-8.4
				c-1-3.2-1.5-6.5-1.4-9.8c0.1-3.4,0.9-6.7,2.3-9.7c1.5-3.1,3.7-5.9,6.3-8.1c3-2.5,6.5-4.3,10.3-5.4l3.2-1c1.1-0.3,2.2-0.5,3.3-0.5
				c0.4,0,0.8,0,1.2,0.1c1.4,0.2,2.8,0.6,4,1.3c1.2,0.7,2.2,1.6,3,2.6c0.8,1,1.4,2.2,1.8,3.4c0.4,1.2,0.6,2.5,0.5,3.8
				c-0.1,1.4-0.4,2.7-1,4c-0.4,0.8-0.8,1.5-1.3,2.1c0.6,0.2,1.1,0.3,1.6,0.6c2.7,1.2,4.7,3.6,5.5,6.4l3.9,12.3c1,2.8,0.7,6-0.8,8.5
				c-1.4,2.3-3.6,4-6.2,4.8l-4.1,1.3C83.6,132.5,80.7,133,77.8,133z"/>
			<path class="st8" d="M77.8,131.1c-4,0-7.9-1.1-11.3-3.1c-2.6-1.5-4.8-3.5-6.6-5.9c-1.8-2.4-3.1-5-4-7.8c-0.9-3-1.4-6.1-1.3-9.2
				c0.1-3.1,0.8-6.1,2.2-8.9c1.4-2.9,3.4-5.4,5.9-7.4c2.8-2.3,6.1-4,9.7-5.1l3.2-1c0.9-0.3,1.8-0.4,2.8-0.4c0.3,0,0.7,0,1,0.1
				c1.2,0.1,2.3,0.5,3.3,1.1c0.9,0.6,1.8,1.3,2.5,2.2c0.7,0.9,1.2,1.8,1.5,2.9c0.3,1,0.5,2.1,0.4,3.2c0,1.1-0.3,2.2-0.8,3.2
				c-0.5,1-1.2,1.9-2,2.7c-1,0.9-2.1,1.5-3.3,1.9l-4.1,1.3c-1,0.3-2,0.8-2.9,1.5c-0.7,0.6-1.2,1.2-1.6,2c-0.3,0.7-0.5,1.5-0.6,2.3
				c0,0.9,0.1,1.7,0.3,2.5c0.3,0.9,0.7,1.7,1.2,2.4c0.4,0.6,0.9,1.2,1.5,1.6c0.6,0.4,1.2,0.6,1.8,0.7l-1-3.3
				c-0.8-2.3-0.6-4.8,0.7-6.8c1.1-1.9,2.8-3.3,4.9-3.9c0.9-0.3,1.8-0.4,2.8-0.4c1.2,0,2.4,0.3,3.6,0.8c2.2,1,3.8,2.9,4.4,5.2
				l3.9,12.3c0.9,2.3,0.6,4.9-0.6,7c-1.2,1.9-3,3.3-5.2,3.9l-4.1,1.3C83.2,130.6,80.5,131.1,77.8,131.1z"/>
			<path class="st9" d="M93,118.4c0.6,1.5,0.5,3.3-0.3,4.7c-0.8,1.3-2.1,2.3-3.6,2.7l-4.1,1.3c-3,1-6.2,1.4-9.3,1.1
				c-2.7-0.3-5.4-1.1-7.7-2.5c-2.2-1.3-4.2-3.1-5.8-5.2c-1.6-2.1-2.8-4.5-3.6-7c-0.9-2.7-1.3-5.5-1.2-8.3c0.1-2.7,0.7-5.4,1.9-7.8
				c1.2-2.5,3-4.7,5.2-6.5c2.6-2.1,5.5-3.6,8.7-4.5l3.2-1c0.8-0.3,1.7-0.4,2.6-0.3c0.8,0.1,1.5,0.3,2.2,0.7c0.6,0.4,1.2,0.9,1.7,1.5
				c0.5,0.6,0.8,1.3,1,2c0.2,0.7,0.3,1.5,0.3,2.2c0,0.7-0.2,1.5-0.5,2.2c-0.3,0.7-0.8,1.3-1.4,1.8c-0.7,0.6-1.4,1-2.3,1.2L75.8,98
				c-1.4,0.4-2.7,1.1-3.8,2c-0.9,0.8-1.7,1.8-2.3,2.9c-0.5,1.1-0.8,2.2-0.9,3.4c-0.1,1.2,0.1,2.3,0.4,3.5c0.4,1.1,0.9,2.2,1.5,3.2
				c0.6,0.9,1.4,1.7,2.3,2.4c1,0.6,2,1,3.2,1.2c1.3,0.2,2.7,0.1,3.9-0.3l-2.1-6.7c-0.6-1.5-0.4-3.2,0.4-4.6c1.6-2.6,4.9-3.6,7.7-2.4
				c1.5,0.7,2.5,2,2.9,3.5L93,118.4z"/>
			<path class="st7" d="M109.6,120c-0.7,0-1.3-0.1-2-0.2c-1.4-0.3-2.7-0.8-3.9-1.6c-2.5-1.8-4.2-4.6-4.4-7.8l-2.4-34.4
				c-0.1-1.8,0.1-3.5,0.8-5.2c1-2.2,2.7-3.9,4.8-4.9c1.5-0.9,3.3-1.4,5.1-1.4c0.5,0,1,0,1.5,0.2c1.8,0.4,3.5,1.2,4.9,2.4l26.4,21.3
				c1.1,0.9,2.1,2,2.7,3.3c0.7,1.4,1.1,2.9,1.1,4.4c0,1.4-0.2,2.7-0.8,4c-0.5,1.2-1.2,2.3-2.1,3.3c-0.9,1-1.9,1.8-3.1,2.5
				c-1.5,0.8-3.2,1.3-4.9,1.3c-2.6,0-5-1.1-6.8-2.8l-1.2-1.1l-5.4,2.9l0.2,1.8c0.2,2.2-0.1,4.3-1.1,6.3c-0.9,1.8-2.3,3.2-4,4.2
				c-1.2,0.6-2.4,1.1-3.7,1.3C110.8,119.9,110.2,120,109.6,120z"/>
			<path class="st8" d="M109.6,118.1c-0.6,0-1.1-0.1-1.7-0.2c-1.1-0.2-2.2-0.6-3.2-1.3c-1-0.7-1.9-1.6-2.5-2.8
				c-0.6-1.1-1-2.3-1.1-3.5L98.8,76c-0.1-1.5,0.1-3,0.6-4.3c0.8-1.8,2.2-3.2,3.9-4c1.3-0.7,2.7-1.1,4.2-1.2c0.4,0,0.8,0,1.2,0.1
				c1.5,0.3,2.9,1,4.1,2l26.4,21.3c1,0.7,1.7,1.7,2.3,2.8c0.6,1.1,0.9,2.3,0.9,3.5c0,1.1-0.2,2.2-0.6,3.3c-0.4,1-1,2-1.7,2.8
				c-0.7,0.8-1.6,1.5-2.6,2.1c-1.2,0.7-2.6,1.1-4,1.1c-2.1,0-4.1-0.9-5.6-2.3l-2.2-2l-7.7,4.1l0.3,3.1c0.2,1.8-0.1,3.6-0.9,5.2
				c-0.7,1.4-1.8,2.6-3.2,3.4C112.8,117.6,111.2,118.1,109.6,118.1L109.6,118.1z"/>
			<path class="st9" d="M126.1,97.7l-11,6l0.6,5c0.1,1.2-0.1,2.5-0.6,3.6c-0.5,0.9-1.2,1.7-2.1,2.2c-0.7,0.4-1.4,0.6-2.2,0.8
				c-0.8,0.1-1.5,0.1-2.3,0c-0.8-0.1-1.5-0.4-2.1-0.8c-0.7-0.4-1.2-1.1-1.6-1.8c-0.4-0.7-0.7-1.5-0.7-2.3l-2.4-34.6
				c-0.1-1.1,0.1-2.1,0.4-3.1c1.3-2.2,3.7-3.4,6.2-3.3c1.1,0.2,2,0.7,2.9,1.4l26.5,21.4c0.6,0.5,1.1,1.1,1.5,1.9
				c0.4,0.7,0.6,1.4,0.6,2.2c0,0.8-0.1,1.5-0.4,2.2c-0.6,1.4-1.6,2.7-3,3.4c-2.1,1.2-4.7,0.9-6.4-0.9L126.1,97.7z M113.9,93.8l5-2.7
				l-5.9-5.5L113.9,93.8z"/>
			<path class="st7" d="M156.7,96.8c-0.9,0-1.7-0.1-2.5-0.4c-1.7-0.6-3.2-1.5-4.4-2.8l-24-24.2c-0.4-0.4-0.8-0.9-1.2-1.3
				c-0.5-0.6-0.9-1.4-1.2-2.1c-0.6-1.4-0.8-3-0.7-4.5c0.1-1.4,0.5-2.8,1.2-4c0.6-1.1,1.4-2.1,2.3-3c1-0.9,2.1-1.7,3.4-2.2
				c1.2-0.5,2.6-0.8,3.9-0.8c0.6,0,1.2,0,1.8,0.1c2.3,0.4,4.4,1.6,5.9,3.3l6.6,7.4l-0.2-10.2c-0.1-2.2,0.6-4.4,1.9-6.3
				c1.1-1.6,2.7-2.8,4.5-3.6c1.2-0.5,2.5-0.8,3.8-0.8h0.8c1.1,0,2.1,0.2,3.2,0.5c1.4,0.4,2.6,1.1,3.7,2c1.2,1,2.1,2.3,2.7,3.7
				c0.3,0.8,0.6,1.6,0.7,2.4c0.1,0.7,0.1,1.4,0,2.1c-1,34.4-1,34.5-1,34.5c-0.1,1.8-0.6,3.5-1.4,5c-1.2,2-3,3.5-5.1,4.3
				C159.6,96.5,158.2,96.8,156.7,96.8z"/>
			<path class="st8" d="M156.7,95c-0.7,0-1.3-0.1-1.9-0.3c-1.4-0.5-2.7-1.3-3.7-2.4l-23.9-24.2c-0.4-0.3-0.7-0.7-1.1-1.1
				c-0.4-0.5-0.7-1.1-1-1.7c-0.5-1.1-0.7-2.4-0.6-3.6c0.1-1.1,0.4-2.3,1-3.3c0.5-0.9,1.2-1.8,2-2.5c0.8-0.8,1.8-1.4,2.8-1.8
				c1-0.4,2.1-0.6,3.2-0.6c0.5,0,1,0,1.5,0.1c1.8,0.3,3.5,1.3,4.7,2.7l9.9,11.2l-0.2-15.3c-0.1-1.8,0.5-3.6,1.5-5.2
				c0.9-1.3,2.2-2.4,3.7-3c1-0.4,2.1-0.7,3.2-0.7h0.6c0.9,0,1.8,0.1,2.6,0.4c1.1,0.3,2.1,0.9,3,1.6c1,0.8,1.7,1.8,2.2,3
				c0.3,0.6,0.5,1.3,0.6,1.9c0.1,0.6,0.1,1.1,0,1.7c0,0-1,34.5-1,34.5c-0.1,1.5-0.5,2.9-1.2,4.3c-1,1.6-2.5,2.8-4.3,3.5
				C159.1,94.7,157.9,95,156.7,95z"/>
			<path class="st9" d="M152.5,74.9l-0.4-22.8c0-1.2,0.3-2.5,1-3.5c0.6-0.9,1.5-1.6,2.4-2c0.7-0.3,1.5-0.5,2.3-0.5
				c0.8-0.1,1.6,0,2.3,0.2c0.7,0.2,1.4,0.6,2,1.1c0.6,0.5,1.1,1.2,1.4,1.9c0.2,0.4,0.3,0.8,0.4,1.3c0.1,0.4,0.1,0.7,0,1.1l-1,34.5
				c-0.1,1.1-0.4,2.1-0.9,3.1c-0.7,1.1-1.7,1.9-2.9,2.3c-1.1,0.6-2.4,0.7-3.6,0.4c-1-0.4-1.9-0.9-2.7-1.7l-23.9-24.1
				c-0.3-0.3-0.6-0.6-0.8-0.9c-0.7-1-1.1-2.1-1-3.3c0.1-0.8,0.3-1.5,0.7-2.2c0.4-0.7,0.9-1.3,1.4-1.8c0.6-0.5,1.3-1,2-1.3
				c1-0.4,2.1-0.5,3.2-0.3c1.2,0.2,2.3,0.9,3.1,1.8L152.5,74.9z"/>
			<path class="st7" d="M181.9,87.1c-0.3,0-0.6,0-0.9,0c-1.3-0.1-2.6-0.4-3.8-0.9c-1.3-0.6-2.4-1.4-3.4-2.4c-1.1-1.1-1.8-2.5-2.2-4
				c-0.4-1.5-0.5-3-0.3-4.5l5.7-34c0.3-1.8,0.9-3.4,1.9-4.9c1.4-1.9,3.5-3.2,5.8-3.7c1-0.3,2.1-0.4,3.1-0.5c1.2,0,2.5,0.2,3.6,0.7
				c1.7,0.8,3.1,2,4.2,3.5l20.7,26.9c0.9,1.1,1.5,2.5,1.9,3.9c0.4,1.5,0.4,3,0.1,4.6c-0.3,1.3-0.9,2.6-1.7,3.7
				c-1.6,2.2-3.8,3.7-6.4,4.4c-0.9,0.3-1.9,0.4-2.9,0.4c-3.3,0-6.4-1.8-8.2-4.6l-0.9-1.3l-5.9,1.6l-0.2,1.8
				c-0.3,2.2-1.1,4.2-2.5,5.8c-1.3,1.5-3,2.6-4.9,3.1C183.9,87,182.9,87.1,181.9,87.1z"/>
			<path class="st8" d="M181.9,85.2c-0.2,0-0.5,0-0.8,0c-1.1-0.1-2.2-0.3-3.1-0.8c-1.1-0.5-2-1.1-2.8-2c-0.8-0.9-1.5-2-1.8-3.3
				c-0.4-1.2-0.4-2.4-0.2-3.7l5.7-34.1c0.2-1.5,0.8-2.9,1.6-4.1c1.2-1.5,2.9-2.6,4.8-3c0.9-0.2,1.8-0.4,2.7-0.4c1,0,1.9,0.2,2.8,0.6
				c1.4,0.7,2.6,1.6,3.5,2.9l20.7,27c0.8,0.9,1.3,2,1.6,3.2c0.3,1.2,0.4,2.4,0.1,3.7c-0.3,1.1-0.7,2.1-1.4,3
				c-0.6,0.9-1.4,1.7-2.3,2.3c-0.9,0.6-1.9,1.1-3,1.4c-0.8,0.2-1.6,0.3-2.4,0.3c-2.7,0-5.3-1.5-6.7-3.8l-1.7-2.4l-8.4,2.2l-0.4,3.1
				c-0.2,1.8-0.9,3.5-2.1,4.8c-1,1.2-2.4,2.1-3.9,2.5C183.6,85.1,182.7,85.2,181.9,85.2z"/>
			<path class="st9" d="M200.4,69l-12.1,3.2l-0.6,5c-0.1,1.2-0.6,2.4-1.4,3.3c-0.7,0.8-1.6,1.4-2.6,1.7c-0.8,0.2-1.6,0.3-2.3,0.2
				c-0.8-0.1-1.5-0.2-2.2-0.6c-0.7-0.3-1.3-0.8-1.9-1.3c-0.5-0.6-0.9-1.3-1.1-2.1c-0.3-0.8-0.3-1.6-0.2-2.4l5.8-34.1
				c0.2-1.1,0.6-2.1,1.2-3c0.8-1,1.9-1.6,3.2-1.8c1.2-0.4,2.4-0.4,3.6,0c1,0.4,1.8,1.1,2.4,2l20.8,27c0.5,0.6,0.8,1.4,1,2.2
				c0.2,0.7,0.2,1.5,0.1,2.3c-0.2,0.7-0.5,1.4-0.9,2.1c-0.5,0.6-1,1.2-1.7,1.6c-0.6,0.5-1.4,0.8-2.1,1c-2.3,0.7-4.8-0.2-6-2.3
				L200.4,69z M189.4,62.4l5.5-1.5l-4.5-6.7L189.4,62.4z"/>
			<path class="st7" d="M230.3,76.8c-6.1,0-9.9-3.8-10.2-10.1l-1.5-30.9c-0.2-2.9,0.8-5.9,2.9-7.9c1.9-1.8,4.4-2.9,7-3h0.6
				c2.4,0,4.8,0.8,6.7,2.3c2.3,1.9,3.7,4.7,3.7,7.7l1,20.4l1.5-0.1h0.6c2.7-0.1,5.4,1,7.3,3c3.5,4,3.8,9.9,0.7,14.2
				c-1.8,2.4-4.6,3.8-7.6,3.8L231,76.8C230.8,76.8,230.6,76.8,230.3,76.8z"/>
			<path class="st8" d="M230.3,74.9c-5.1,0-8.1-3-8.4-8.3l-1.5-30.9c-0.2-2.4,0.6-4.8,2.4-6.5c1.6-1.5,3.6-2.4,5.8-2.5h0.5
				c2,0,4,0.7,5.6,1.9c1.9,1.5,3,3.8,3,6.3l1.1,22.3l3.4-0.2h0.5c2.2-0.1,4.4,0.8,5.9,2.5c1.5,1.6,2.3,3.7,2.3,5.8
				c0.1,2.1-0.5,4.3-1.8,6c-1.5,1.9-3.7,3.1-6.1,3.1l-12,0.6L230.3,74.9z"/>
			<path class="st9" d="M230.8,72.1c-3.9,0.2-5.9-1.7-6.1-5.6l-1.5-30.9c-0.2-1.6,0.4-3.2,1.5-4.4c1.1-1.1,2.5-1.7,4-1.7
				c1.5-0.1,3,0.4,4.2,1.3c1.3,1,2,2.6,1.9,4.2l1.2,25.1l6.2-0.3c1.6-0.2,3.1,0.4,4.2,1.5c1,1.1,1.6,2.6,1.6,4.1
				c0.1,1.5-0.3,3-1.2,4.2c-0.9,1.3-2.4,2-4,2L230.8,72.1z"/>
		</g>
		<path class="st10" d="M41.3,149.3L41.3,149.3c-18,0-27.9-6.2-32.1-9.9l-0.5-0.4l0.2-0.6c3-9,3.9-32.3,2.6-69.3l-0.1-2.3l1.7,1.6
			c1.1,1,2.2,2,3.5,2.9l0.2,0.2c6.3,4.5,13.7,6.9,21.4,6.9h0.1h1.3c8.9,0,19-2.2,31.8-6.9l0.2-0.1c1.5-0.6,2.9-1.1,4.3-1.7
			c11.6-4.5,24-10.4,37.1-16.7c17-8.1,34.6-16.5,53-23.2l0.7-0.2c0.1,0,0.3-0.1,0.4-0.2l0.3-0.1c1.4-0.5,2.9-1,4.3-1.5l1.8-0.6
			l1.1-0.4l1.1-0.4l2.4-0.7l1-0.3c6.6-2,13.2-3.7,20-5.1c13.1-2.9,26.4-4.4,39.8-4.6c15.9,0,29.5,2.6,40.6,7.8l0.4,0.2
			c17,7.4,26.1,18.9,30.7,27.1l0.9,1.6l-1.9-0.2c-1.6-0.2-3.2-0.3-4.9-0.3c-14,0-18.8,9.1-19,9.5c-0.6,1.2-0.5,2.7,0.3,3.9
			c4.7,6.5,10.5,16.9,11.5,29.8l0.2,2.4l-1.8-1.6c-10.5-9.6-26.2-14.4-46.6-14.4c-36.5,0-84.6,15.6-132,42.7
			C87.9,140.8,62.4,149.3,41.3,149.3z M10.9,138.5c4.3,3.5,13.6,9,30.4,9l0,0c20.8,0,46-8.4,75-25c47.6-27.3,96.1-42.9,132.9-42.9
			c19.8,0,35.3,4.5,46.1,13.4c-1.5-11.3-6.6-20.6-10.9-26.5c-1.2-1.7-1.4-3.9-0.5-5.8c0.2-0.4,5.5-10.5,20.6-10.5
			c1.1,0,2.2,0,3.3,0.2c-4.7-7.9-13.4-18-28.9-24.8c-0.2-0.1-0.3-0.2-0.5-0.2c-10.8-5-24.1-7.6-39.7-7.6
			c-13.3,0.1-26.5,1.7-39.4,4.5c-6.7,1.3-13.3,3-19.8,5l-1,0.3l-2.3,0.7l-1.1,0.3l-1,0.4l-1.2,0.4l-0.6,0.2l-4.3,1.5l-0.3,0.1
			l-0.5,0.2l-0.7,0.2c-18.3,6.6-35.8,15-52.8,23.1C100.6,61,88.2,67,76.5,71.5c-1.4,0.6-2.9,1.1-4.3,1.7L72,73.2
			c-13.1,4.8-23.4,7-32.4,7h-1.3h-0.1c-8.1,0-15.9-2.6-22.5-7.2l-0.2-0.2c-0.7-0.5-1.3-1-2-1.6C14.6,106.4,13.8,129,10.9,138.5
			L10.9,138.5z"/>
		<path class="st11" d="M170.4,24.3c-1.5,0.5-2.9,1-4.4,1.5C167,25.5,168.5,25,170.4,24.3z"/>
		<path class="st12" d="M70.1,68L70.1,68c-0.9,0.4-15.9,7.4-31.7,6.7h-0.1c-6.9-0.2-13.6-2.3-19.3-6.2l-0.2-0.1
			c-5.1-3.7-9.1-8.6-11.7-14.3c0,0-0.1-0.6-0.1-1.5c0-0.5,0-1.2,0-1.9c0-9.9,4.2-35.1,53,8c0.5,0.5,1.1,1,1.6,1.4
			C64.3,62.5,67.1,65.1,70.1,68z"/>
		<path class="st5" d="M296.6,113.5c-0.1-0.1-0.9-1-2-2.3c-2.3-2.6-6.3-6.6-9.1-8.4l3.7,1.9c1.6,1.5,3.1,3,4.4,4.7
			c1,1.2,2,2.6,2.9,3.9L296.6,113.5L296.6,113.5L296.6,113.5z"/>
		<line class="st13" x1="257.2" y1="175.4" x2="255.2" y2="178.8"/>
		<path class="st14" d="M254,105.5l0.9,0.2c-2.5-0.3-5-0.5-7.3-0.6c-69.1-2.5-75.6,86.6-142,45.4c5.6-2.8,15-7.1,20.8-10.4l4-2.2
			c41,19.6,56.9-46.1,118.9-34.1c2,0.4,4,0.8,6,1.4C254.8,105.2,254.4,105.3,254,105.5z"/>
		<path class="st4" d="M257.7,101c0.5,0,1,0,1.4,0C258.6,101,258.2,101,257.7,101z"/>
		<path class="st14" d="M271,109.6c-3.4-5.8-7.5-7.9-10.9-8.4l0,0H260h-0.1h-0.4h-0.3c-0.4,0-0.8,0-1.4,0h-0.2
			c-3,0.1-5.9,1.1-8.4,2.8c-0.6,0.4-1.1,0.8-1.5,1.3c-4.6,5.1,1.2,14.2,11.4,14.7c12.1,0.6,21.4,8.2,21.7,8.5
			C280.5,128.1,278.8,122.8,271,109.6z M254.9,105.7l-0.9-0.2c0.4-0.2,0.9-0.3,1.3-0.4c3.1-0.7,11.2-0.7,17.9,14.7
			C272.9,119.4,262.6,107.8,254.9,105.7L254.9,105.7z"/>
		
			<linearGradient id="SVGID_00000036943832283038855230000015425063908318207872_" gradientUnits="userSpaceOnUse" x1="259.39" y1="78.9136" x2="259.83" y2="78.9136" gradientTransform="matrix(1 0 0 -1 0 180)">
			<stop  offset="0" style="stop-color:#A60C16"/>
			<stop  offset="0.12" style="stop-color:#B50F19"/>
			<stop  offset="0.36" style="stop-color:#DC1722"/>
			<stop  offset="0.46" style="stop-color:#ED1B26"/>
			<stop  offset="0.56" style="stop-color:#E81A25"/>
			<stop  offset="0.68" style="stop-color:#D81821"/>
			<stop  offset="0.82" style="stop-color:#BE151B"/>
			<stop  offset="0.97" style="stop-color:#9A1112"/>
			<stop  offset="1" style="stop-color:#921010"/>
		</linearGradient>
		<path style="opacity:0.35;fill:url(#SVGID_00000036943832283038855230000015425063908318207872_);enable-background:new    ;" d="
			M259.4,101.1c0.1,0,0.3,0,0.4,0H259.4z"/>
	</g>
</g>
</svg>
