<?xml version="1.0" encoding="utf-8"?>
<!-- Generator: Adobe Illustrator 26.0.1, SVG Export Plug-In . SVG Version: 6.00 Build 0)  -->
<svg version="1.1" id="Capa_1" xmlns="http://www.w3.org/2000/svg" xmlns:xlink="http://www.w3.org/1999/xlink" x="0px" y="0px"
	 viewBox="0 0 2027.6 523.5" style="enable-background:new 0 0 2027.6 523.5;" xml:space="preserve">
<style type="text/css">
	.st0{fill:#0A0C1A;}
	.st1{fill:#FFFFFF;}
	.st2{fill:#01AA98;}
</style>
<g id="Capa_2_00000028305535909634600970000004020391561424117172_">
	<g id="Capa_1-2">
		<path class="st0" d="M66.2,391.2h958.3c36.6,0,66.2,29.6,66.2,66.2v0c0,36.5-29.6,66.2-66.2,66.2H66.2C29.6,523.6,0,493.9,0,457.4
			v0C0,420.8,29.6,391.2,66.2,391.2z"/>
		<path class="st0" d="M94.8,74H42.6v48.6H101v14.6H25V2.4h73V17H42.6v42.6h52.2V74z"/>
		<path class="st0" d="M123.6,137.2V2.4h19.2l43,68.2c9.8,15.8,17.8,30,24,43.8l0.6-0.2c-1.6-18-2-34.4-2-55.4V2.4h16.4v134.8h-17.6
			l-42.8-68.4c-9.4-15-18.4-30.4-25-45l-0.6,0.2c1,17,1.2,33.2,1.2,55.6v57.6L123.6,137.2z"/>
		<path class="st0" d="M349.2,133c-6.2,3.2-19.2,6.4-35.6,6.4c-38,0-66.4-24-66.4-68.4c0-42.4,28.6-70.8,70.4-70.8
			c16.6,0,27.4,3.6,32,6l-4.4,14.2c-6.4-3.2-15.8-5.6-27-5.6c-31.6,0-52.6,20.2-52.6,55.6c0,33.2,19,54.2,51.6,54.2
			c10.8,0,21.6-2.2,28.6-5.6L349.2,133z"/>
		<path class="st0" d="M388.6,2.4v80c0,30,13.4,42.8,31.4,42.8c19.8,0,32.8-13.2,32.8-42.8v-80h17.6v78.8c0,41.4-21.8,58.2-51,58.2
			c-27.6,0-48.4-15.6-48.4-57.6V2.4H388.6z"/>
		<path class="st0" d="M570.2,74H518v48.6h58.4v14.6h-76V2.4h73V17H518v42.6h52.2L570.2,74z"/>
		<path class="st0" d="M599,137.2V2.4h19.2l43,68.2c9.8,15.8,17.8,30,24,43.8l0.6-0.2c-1.6-18-2-34.4-2-55.4V2.4h16.4v134.8h-17.6
			l-42.8-68.4c-9.4-15-18.4-30.4-25-45l-0.6,0.2c1,17,1.2,33.2,1.2,55.6v57.6L599,137.2z"/>
		<path class="st0" d="M756.2,17.2h-41V2.4H815v14.8h-41.2v120h-17.6L756.2,17.2z"/>
		<path class="st0" d="M830,4.2c11-1.9,22.2-2.8,33.4-2.8c18.6,0,30.8,3.6,39,11c6.6,6,10.6,15.2,10.6,25.8
			c0,17.6-11.2,29.4-25.2,34.2V73c10.2,3.6,16.4,13.2,19.6,27.2c4.4,18.8,7.6,31.8,10.4,37h-18c-2.2-4-5.2-15.4-8.8-32.2
			c-4-18.6-11.4-25.6-27.2-26.2h-16.4v58.4H830V4.2z M847.4,65.6h17.8c18.6,0,30.4-10.2,30.4-25.6c0-17.4-12.6-25-31-25
			c-8.4,0-14.2,0.6-17.2,1.4V65.6z"/>
		<path class="st0" d="M960.4,94.8l-14,42.4h-18l46-134.8h20.8l46,134.8h-18.6l-14.4-42.4L960.4,94.8z M1004.8,81.2l-13.4-38.8
			c-3-8.8-5-16.8-7-24.6H984c-2,7.8-4,16.2-6.8,24.4l-13.2,39L1004.8,81.2z"/>
		<path class="st0" d="M1103.2,2.4h17.6v120.2h57.6v14.6h-75.2V2.4z"/>
		<path class="st0" d="M1305.2,68.4c0,46.2-28.2,71-62.6,71c-35.8,0-60.6-27.8-60.6-68.6C1182,28,1208.4,0,1244.4,0
			C1281.4,0,1305.2,28.2,1305.2,68.4z M1200.4,70.4c0,29,15.6,54.8,43.2,54.8s43.2-25.4,43.2-56c0-27-14-55-43-55
			S1200.4,41,1200.4,70.4z"/>
		<path class="st0" d="M1325.6,116c9.3,5.8,20.1,8.8,31,8.8c17.8,0,28.2-9.4,28.2-23c0-12.4-7.2-19.8-25.4-26.6
			c-22-8-35.6-19.6-35.6-38.4c0-21,17.4-36.6,43.6-36.6c13.6,0,23.8,3.2,29.6,6.6l-4.8,14.2c-4.2-2.6-13.2-6.4-25.4-6.4
			c-18.4,0-25.4,11-25.4,20.2c0,12.6,8.2,18.8,26.8,26c22.8,8.8,34.2,19.8,34.2,39.6c0,20.8-15.2,39-47,39c-13,0-27.2-4-34.4-8.8
			L1325.6,116z"/>
		<path class="st1" d="M137.2,275.6c-0.6-16.2-1.2-35.8-1.2-55.4h-0.4c-4.4,17.2-10,36.4-15.2,52.2L104,325H80.2l-14.4-52
			c-4.4-16-8.8-35.2-12.2-52.8h-0.4c-0.6,18.2-1.4,39-2.2,55.8l-2.6,51.2H20.2l8.6-134.8h40.6l13.2,45C87,253,91,269.8,94,285.6h0.8
			c3.6-15.6,8.2-33.4,12.8-48.4l14.2-44.8h40l7.2,134.8h-29.6L137.2,275.6z"/>
		<path class="st1" d="M272.6,270.2H223v32h55.4v25h-85.8V192.4h83v25H223v28h49.6V270.2z"/>
		<path class="st1" d="M330,192.4h30.4v85.2c0,38.4-18.4,51.8-47.8,51.8c-7.2,0-16.4-1.2-22.4-3.2l3.4-24.6c5,1.6,10.3,2.4,15.6,2.4
			c12.8,0,20.8-5.8,20.8-26.6V192.4z"/>
		<path class="st1" d="M509.2,258.4c0,44.4-26.6,71-66.2,71c-39.8,0-63.4-30.2-63.4-68.8c0-40.4,26-70.6,65.6-70.6
			C486.6,190,509.2,221,509.2,258.4z M411.8,260c0,26.6,12.4,45.2,32.8,45.2c20.6,0,32.4-19.6,32.4-45.8c0-24.4-11.4-45.2-32.4-45.2
			C423.8,214.2,411.8,233.8,411.8,260z"/>
		<path class="st1" d="M529.2,194.2c13.4-2,27-2.9,40.6-2.8c20,0,34,3,43.6,10.6c8.2,6.4,12.6,16,12.6,28.4c0,17-12.2,28.8-23.8,33
			v0.6c9.4,3.8,14.6,12.6,18,25c4.2,15.4,8.2,33,10.8,38.2h-31.2c-2-4-5.4-14.8-9.2-31.4c-3.8-17-9.6-21.4-22.2-21.6h-9v53h-30.2
			L529.2,194.2z M559.4,252.2h12c15.2,0,24.2-7.6,24.2-19.4c0-12.2-8.4-18.6-22.4-18.6c-7.4,0-11.6,0.4-13.8,1V252.2z"/>
		<path class="st1" d="M728,270.2h-49.6v32h55.4v25H648V192.4h83v25h-52.6v28H728V270.2z"/>
		<path class="st1" d="M755.6,295.8c10.5,5.3,22,8.2,33.8,8.4c14,0,21.4-5.8,21.4-14.6c0-8.4-6.4-13.2-22.6-18.8
			c-22.4-8-37.2-20.4-37.2-40c0-23,19.4-40.4,51-40.4c15.4,0,26.4,3,34.4,6.8l-6.8,24.4c-8.7-4.3-18.3-6.4-28-6.4
			c-13.2,0-19.6,6.2-19.6,13c0,8.6,7.4,12.4,25,19c23.8,8.8,34.8,21.2,34.8,40.2c0,22.6-17.2,41.8-54.2,41.8
			c-15.4,0-30.6-4.2-38.2-8.4L755.6,295.8z"/>
		<path class="st1" d="M936.4,292.6l-9.6,34.6h-31.4l41-134.8h40l42,134.8h-33L975,292.6H936.4z M970.6,269.8l-8.4-28.6
			c-2.4-8-4.8-18-6.8-26H955c-2,8-4,18.2-6.2,26l-8,28.6H970.6z"/>
		<path class="st1" d="M1130,323.6c-5.4,2.6-18.2,5.8-34.4,5.8c-46.6,0-70.6-29.2-70.6-67.6c0-46,32.8-71.4,73.6-71.4
			c15.8,0,27.8,3,33.2,6l-6.4,24c-8.1-3.4-16.8-5.1-25.6-5c-24,0-42.8,14.6-42.8,44.6c0,27,16,44,43,44c9.4,0,19.4-1.8,25.6-4.4
			L1130,323.6z"/>
		<path class="st1" d="M1243,323.6c-5.4,2.6-18.2,5.8-34.4,5.8c-46.6,0-70.6-29.2-70.6-67.6c0-46,32.8-71.4,73.6-71.4
			c15.8,0,27.8,3,33.2,6l-6.4,24c-8.1-3.4-16.8-5.1-25.6-5c-24,0-42.8,14.6-42.8,44.6c0,27,16,44,43,44c9.4,0,19.4-1.8,25.6-4.4
			L1243,323.6z"/>
		<path class="st1" d="M1343.4,270.2h-49.6v32h55.4v25h-85.8V192.4h83v25h-52.6v28h49.6V270.2z"/>
		<path class="st1" d="M1371,295.8c10.5,5.3,22,8.2,33.8,8.4c14,0,21.4-5.8,21.4-14.6c0-8.4-6.4-13.2-22.6-18.8
			c-22.4-8-37.2-20.4-37.2-40c0-23,19.4-40.4,51-40.4c15.4,0,26.4,3,34.4,6.8l-6.8,24.4c-8.7-4.3-18.3-6.4-28-6.4
			c-13.2,0-19.6,6.2-19.6,13c0,8.6,7.4,12.4,25,19c23.8,8.8,34.8,21.2,34.8,40.2c0,22.6-17.2,41.8-54.2,41.8
			c-15.4,0-30.6-4.2-38.2-8.4L1371,295.8z"/>
		<path class="st1" d="M1601.4,258.4c0,44.4-26.6,71-66.2,71c-39.8,0-63.4-30.2-63.4-68.8c0-40.4,26-70.6,65.6-70.6
			C1578.8,190,1601.4,221,1601.4,258.4z M1504,260c0,26.6,12.4,45.2,32.8,45.2c20.6,0,32.4-19.6,32.4-45.8
			c0-24.4-11.4-45.2-32.4-45.2C1516,214.2,1504,233.8,1504,260z"/>
		<path class="st1" d="M1621.4,194.2c13.4-2,27-2.9,40.6-2.8c20,0,34,3,43.6,10.6c8.2,6.4,12.6,16,12.6,28.4c0,17-12.2,28.8-23.8,33
			v0.6c9.4,3.8,14.6,12.6,18,25c4.2,15.4,8.2,33,10.8,38.2H1692c-2-4-5.4-14.8-9.2-31.4c-3.8-17-9.6-21.4-22.2-21.6h-9v53h-30.2
			L1621.4,194.2z M1651.6,252.2h12c15.2,0,24.2-7.6,24.2-19.4c0-12.2-8.4-18.6-22.4-18.6c-7.4,0-11.6,0.4-13.8,1L1651.6,252.2z"/>
		<path class="st1" d="M1770.6,192.4v134.8h-30.4V192.4H1770.6z"/>
		<path class="st1" d="M1920.4,258.4c0,44.4-26.6,71-66.2,71c-39.8,0-63.4-30.2-63.4-68.8c0-40.4,26-70.6,65.6-70.6
			C1897.8,190,1920.4,221,1920.4,258.4z M1823,260c0,26.6,12.4,45.2,32.8,45.2c20.6,0,32.4-19.6,32.4-45.8
			c0-24.4-11.4-45.2-32.4-45.2C1835,214.2,1823,233.8,1823,260z"/>
		<path class="st1" d="M1941.4,295.8c10.5,5.3,22,8.2,33.8,8.4c14,0,21.4-5.8,21.4-14.6c0-8.4-6.4-13.2-22.6-18.8
			c-22.4-8-37.2-20.4-37.2-40c0-23,19.4-40.4,51-40.4c15.4,0,26.4,3,34.4,6.8l-6.8,24.4c-8.7-4.3-18.3-6.4-28-6.4
			c-13.2,0-19.6,6.2-19.6,13c0,8.6,7.4,12.4,25,19c23.8,8.8,34.8,21.2,34.8,40.2c0,22.6-17.2,41.8-54.2,41.8
			c-15.4,0-30.6-4.2-38.2-8.4L1941.4,295.8z"/>
		
			<ellipse transform="matrix(0.9927 -0.1205 0.1205 0.9927 -54.7482 11.5042)" class="st2" cx="67.7" cy="458.3" rx="38.8" ry="38.8"/>
		<path class="st1" d="M134.8,432.9c4-0.6,8.1-1,12.1-0.9c6.3,0,10.9,1.5,13.8,4.1c2.9,2.6,4.4,6.4,4.3,10.3c0,4.4-1.3,7.9-3.8,10.5
			c-3.4,3.6-8.8,5.4-15,5.4c-1.7,0.1-3.4-0.1-5.1-0.4v19.6h-6.3L134.8,432.9z M141.1,456.5c1.7,0.4,3.5,0.6,5.2,0.5
			c7.6,0,12.3-3.8,12.3-10.4s-4.6-9.6-11.6-9.6c-2-0.1-4,0.1-6,0.5L141.1,456.5z"/>
		<path class="st1" d="M196.1,472.9c0,2.8,0.1,5.6,0.5,8.4h-5.8l-0.5-4.4h-0.2c-2.5,3.4-6.5,5.3-10.8,5.2c-7.1,0-10.8-5-10.8-10.1
			c0-8.5,7.6-13.2,21.2-13.1v-0.7c0-2.8-0.8-8.1-8-8.1c-3.3,0-6.5,0.9-9.2,2.6l-1.4-4.3c3.5-2,7.6-3.1,11.6-3.1
			c10.8,0,13.4,7.4,13.4,14.3L196.1,472.9z M189.9,463.4c-7-0.1-14.9,1.1-14.9,7.9c0,4.2,2.8,6.1,6,6.1c3.9,0.1,7.4-2.3,8.7-5.9
			c0.2-0.6,0.3-1.3,0.3-2L189.9,463.4z"/>
		<path class="st1" d="M206.4,457.1c0-4.1-0.1-7.7-0.3-11h5.6l0.3,7h0.2c1.6-4.7,5.5-7.7,9.8-7.7c0.6,0,1.2,0.1,1.8,0.1v6
			c-0.7-0.1-1.5-0.2-2.2-0.1c-4.5,0-7.7,3.4-8.6,8.1c-0.2,1-0.2,2-0.2,3v18.8h-6.4V457.1z"/>
		<path class="st1" d="M254.6,472.9c0,2.8,0.1,5.6,0.5,8.4h-5.8l-0.5-4.4h-0.2c-2.5,3.4-6.5,5.3-10.8,5.2c-7.1,0-10.8-5-10.8-10.1
			c0-8.5,7.6-13.2,21.2-13.1v-0.7c0-2.8-0.8-8.1-8-8.1c-3.3,0-6.5,0.9-9.2,2.6l-1.4-4.3c3.5-2,7.6-3.1,11.6-3.1
			c10.8,0,13.4,7.4,13.4,14.3L254.6,472.9z M248.5,463.4c-7-0.1-14.9,1.1-14.9,7.9c0,4.2,2.8,6.1,6,6.1c3.9,0.1,7.4-2.3,8.7-5.9
			c0.2-0.7,0.3-1.3,0.3-2L248.5,463.4z"/>
		<path class="st1" d="M288.1,437.7v8.4h9.2v4.9h-9.2v19c0,4.4,1.2,6.8,4.8,6.8c1.3,0,2.5-0.1,3.7-0.4l0.3,4.9
			c-1.8,0.6-3.7,0.9-5.7,0.9c-2.6,0.1-5.1-0.9-6.9-2.7c-1.7-2-2.5-5.1-2.5-9.2V451h-5.5v-4.9h5.5v-6.5L288.1,437.7z"/>
		<path class="st1" d="M334,471.7c0,3.7,0.1,6.9,0.3,9.7h-5.7l-0.4-5.8h-0.1c-2.4,4.1-6.9,6.6-11.6,6.5c-5.5,0-12.2-3.1-12.2-15.4
			v-20.6h6.4v19.4c0,6.7,2.1,11.3,7.9,11.3c3.8-0.1,7.1-2.4,8.4-5.9c0.4-1,0.6-2.2,0.6-3.3v-21.5h6.4V471.7z"/>
		<path class="st1" d="M343.7,474.9c2.6,1.5,5.5,2.4,8.5,2.5c4.6,0,6.8-2.3,6.8-5.2s-1.8-4.7-6.5-6.4c-6.4-2.3-9.4-5.8-9.4-10
			c0-5.7,4.6-10.3,12.1-10.3c3-0.1,6,0.7,8.6,2.2l-1.5,4.7c-2.2-1.4-4.7-2.1-7.2-2.1c-3.8,0-5.8,2.2-5.8,4.8c0,2.9,2,4.2,6.6,6
			c6,2.3,9.2,5.3,9.2,10.6c0,6.2-4.9,10.6-13.1,10.6c-3.5,0-6.9-0.8-9.9-2.5L343.7,474.9z"/>
		<path class="st1" d="M392.4,464.9c0.1,8.7,5.6,12.2,12.1,12.2c3.3,0.1,6.7-0.5,9.8-1.8l1.2,4.6c-3.7,1.6-7.7,2.3-11.8,2.3
			c-10.8,0-17.3-7.2-17.3-17.8s6.3-18.9,16.5-18.9c11.6,0,14.6,10,14.6,16.5c0,1-0.1,2-0.2,3L392.4,464.9z M411.2,460.3
			c0.1-4-1.7-10.3-8.9-10.3c-6.5,0-9.3,5.9-9.8,10.3H411.2z"/>
		<path class="st1" d="M449.3,476h-0.1c-2,3.4-5.8,6.2-11.5,6.2c-8.2,0-14.9-7.1-14.9-17.8c0-13.2,8.5-19,15.9-19
			c5.5,0,9.1,2.7,10.8,6h0.1l0.2-5.3h6c-0.1,2.9-0.3,6-0.3,9.7v40h-6.3V476z M449.3,460.4c0-0.9-0.1-1.8-0.3-2.6
			c-1-4.3-4.8-7.3-9.2-7.3c-6.6,0-10.6,5.6-10.6,13.5c0,7.1,3.4,13.1,10.4,13.1c4.3,0,8-2.8,9.2-6.9c0.3-1,0.5-2.1,0.5-3.1V460.4z"
			/>
		<path class="st1" d="M495.7,471.7c0,3.7,0.1,6.9,0.3,9.7h-5.7l-0.4-5.8h-0.1c-2.4,4.1-6.9,6.6-11.6,6.5c-5.5,0-12.2-3.1-12.2-15.4
			v-20.6h6.4v19.4c0,6.7,2.1,11.3,7.9,11.3c3.8-0.1,7.1-2.4,8.4-5.9c0.4-1,0.6-2.2,0.6-3.3v-21.5h6.4L495.7,471.7z"/>
		<path class="st1" d="M513.5,436.2c0.1,2.1-1.6,3.9-3.7,3.9c-0.1,0-0.2,0-0.4,0c-2.1,0.1-3.8-1.6-3.9-3.7c0-0.1,0-0.2,0-0.3
			c-0.1-2.2,1.6-3.9,3.8-4c0.1,0,0.1,0,0.2,0c2.1-0.1,3.9,1.6,3.9,3.7C513.5,436.1,513.5,436.1,513.5,436.2z M506.4,481.4v-35.2h6.4
			v35.2H506.4z"/>
		<path class="st1" d="M523.4,457.6c0-4.5-0.2-8.2-0.3-11.5h5.7l0.4,6h0.1c2.5-4.3,6.8-6.8,12.5-6.8c8.6,0,15,7.2,15,17.8
			c0,12.7-7.8,18.9-16.1,18.9c-4.7,0-8.7-2-10.8-5.5h-0.2v19.1h-6.3L523.4,457.6z M529.7,467c-0.1,5.5,4.2,10,9.7,10.1
			c0.1,0,0.2,0,0.2,0c6.8,0,10.7-5.5,10.7-13.6c0-7-3.7-13-10.5-13c-4.7,0.1-8.7,3.3-9.7,7.9c-0.3,0.8-0.4,1.7-0.4,2.5L529.7,467z"
			/>
		<path class="st1" d="M596.7,463.5c0,13-9.1,18.7-17.5,18.7c-9.5,0-16.9-7-16.9-18.1c0-11.7,7.8-18.6,17.5-18.6
			C589.8,445.4,596.7,452.8,596.7,463.5z M568.8,463.8c0,7.7,4.4,13.5,10.6,13.5s10.7-5.8,10.7-13.7c0-6-3-13.5-10.5-13.5
			S568.8,457.2,568.8,463.8z"/>
		<path class="st1" d="M603.9,474.9c2.6,1.5,5.5,2.4,8.5,2.5c4.6,0,6.8-2.3,6.8-5.2s-1.8-4.7-6.5-6.4c-6.4-2.3-9.4-5.8-9.4-10
			c0-5.7,4.7-10.3,12.2-10.3c3-0.1,6,0.7,8.6,2.2l-1.5,4.7c-2.2-1.4-4.7-2.1-7.2-2.1c-3.8,0-5.8,2.2-5.8,4.8c0,2.9,2,4.2,6.6,6
			c6,2.3,9.2,5.3,9.2,10.6c0,6.2-4.9,10.6-13.1,10.6c-3.5,0-6.9-0.8-9.9-2.5L603.9,474.9z"/>
		<path class="st1" d="M656.7,437.7v8.4h9.2v4.9h-9.2v19c0,4.4,1.2,6.8,4.8,6.8c1.3,0,2.5-0.1,3.7-0.4l0.3,4.9
			c-1.8,0.6-3.8,0.9-5.7,0.9c-2.6,0.1-5.1-0.9-6.9-2.7c-1.8-2-2.5-5.1-2.5-9.2V451H645v-4.9h5.5v-6.5L656.7,437.7z"/>
		<path class="st1" d="M676.2,464.9c0.1,8.7,5.6,12.2,12.1,12.2c3.3,0.1,6.7-0.5,9.8-1.8l1.2,4.6c-3.7,1.6-7.7,2.3-11.8,2.3
			c-10.8,0-17.3-7.2-17.3-17.8s6.3-18.9,16.5-18.9c11.6,0,14.6,10,14.6,16.5c0,1-0.1,2-0.2,3L676.2,464.9z M695,460.3
			c0.1-4-1.7-10.3-8.9-10.3c-6.5,0-9.3,5.9-9.8,10.3H695z"/>
		<path class="st1" d="M734.2,480.1c-3.2,1.4-6.6,2-10.1,2c-10.6,0-17.5-7.2-17.5-18s7.4-18.7,18.9-18.7c3.1-0.1,6.1,0.6,8.9,1.9
			l-1.5,4.9c-2.3-1.2-4.9-1.7-7.4-1.7c-8.1,0-12.4,6-12.4,13.3c0,8.2,5.2,13.2,12.2,13.2c2.7,0,5.4-0.5,7.9-1.7L734.2,480.1z"/>
		<path class="st1" d="M741.7,455.7c0-3.7-0.1-6.6-0.3-9.5h5.7l0.4,5.8h0.2c2.4-4.2,6.8-6.7,11.6-6.5c4.9,0,12.5,2.9,12.5,15v21
			h-6.4v-20.3c0-5.7-2.1-10.4-8.2-10.4c-5.1,0.2-9.1,4.4-9,9.5v21.2h-6.4L741.7,455.7z"/>
		<path class="st1" d="M814,463.5c0,13-9.1,18.7-17.5,18.7c-9.5,0-16.9-7-16.9-18.1c0-11.7,7.8-18.6,17.5-18.6
			C807.1,445.4,814,452.8,814,463.5z M786.1,463.8c0,7.7,4.4,13.5,10.6,13.5s10.7-5.8,10.7-13.7c0-6-3-13.5-10.5-13.5
			S786.1,457.2,786.1,463.8L786.1,463.8z"/>
		<path class="st1" d="M822.1,429.7h6.4v51.7h-6.4V429.7z"/>
		<path class="st1" d="M871.1,463.5c0,13-9.1,18.7-17.5,18.7c-9.5,0-16.9-7-16.9-18.1c0-11.7,7.8-18.6,17.5-18.6
			C864.3,445.4,871.1,452.8,871.1,463.5z M843.2,463.8c0,7.7,4.4,13.5,10.6,13.5s10.7-5.8,10.7-13.7c0-6-3-13.5-10.6-13.5
			S843.2,457.2,843.2,463.8z M863.5,430.9l-8.9,10.4h-4.5l6.3-10.4H863.5z"/>
		<path class="st1" d="M909.3,476.2c0,8.1-1.7,13-5,16.2s-8.4,4.2-12.9,4.2c-4.2,0-8.9-1-11.7-2.9l1.6-5c3.1,1.9,6.7,2.9,10.3,2.8
			c6.5,0,11.3-3.4,11.3-12.4v-3.9h-0.1c-1.9,3.3-5.8,5.9-11.2,5.9c-8.7,0-15-7.4-15-17.2c0-11.9,7.8-18.6,15.9-18.6
			c6.1,0,9.4,3.1,11,6h0.2l0.2-5.3h5.7c-0.2,2.5-0.3,5.4-0.3,9.6L909.3,476.2z M902.9,460c0-1-0.1-1.9-0.4-2.8
			c-1.1-4.1-4.8-6.9-9-6.8c-6.1,0-10.5,5.2-10.5,13.3c0,6.9,3.6,12.7,10.4,12.7c4.1,0,7.7-2.6,8.9-6.5c0.3-1.1,0.5-2.3,0.5-3.4
			L902.9,460z"/>
		<path class="st1" d="M926.6,436.2c0.1,2.1-1.6,3.9-3.7,3.9c-0.1,0-0.2,0-0.4,0c-2.1,0.1-3.8-1.6-3.9-3.7c0-0.1,0-0.2,0-0.3
			c-0.1-2.2,1.6-3.9,3.8-4c0.1,0,0.1,0,0.2,0c2.1-0.1,3.9,1.6,3.9,3.7C926.6,436.1,926.6,436.1,926.6,436.2z M919.4,481.4v-35.2h6.4
			v35.2H919.4z"/>
		<path class="st1" d="M961.6,480.1c-3.2,1.4-6.6,2-10.1,2c-10.6,0-17.5-7.2-17.5-18s7.4-18.8,18.9-18.8c3.1-0.1,6.1,0.6,8.9,1.9
			l-1.5,4.9c-2.3-1.2-4.9-1.7-7.4-1.7c-8.1,0-12.4,6-12.4,13.3c0,8.1,5.2,13.2,12.2,13.2c2.7,0,5.4-0.5,7.9-1.7L961.6,480.1z"/>
		<path class="st1" d="M1000.5,463.5c0,13-9.1,18.7-17.5,18.7c-9.5,0-16.9-7-16.9-18.1c0-11.7,7.8-18.6,17.5-18.6
			C993.7,445.4,1000.5,452.8,1000.5,463.5z M972.6,463.8c0,7.7,4.4,13.5,10.6,13.5s10.8-5.8,10.8-13.7c0-6-3-13.5-10.5-13.5
			S972.6,457.2,972.6,463.8z"/>
		<path class="st1" d="M1007.7,474.9c2.6,1.5,5.5,2.4,8.5,2.5c4.6,0,6.8-2.3,6.8-5.2s-1.8-4.7-6.5-6.4c-6.4-2.3-9.4-5.8-9.4-10
			c0-5.7,4.7-10.3,12.2-10.3c3-0.1,6,0.7,8.6,2.2l-1.5,4.7c-2.2-1.4-4.7-2.1-7.2-2.1c-3.8,0-5.8,2.2-5.8,4.8c0,2.9,2,4.2,6.6,6
			c6,2.3,9.2,5.3,9.2,10.6c0,6.2-4.9,10.6-13.1,10.6c-3.5,0-6.9-0.8-9.9-2.5L1007.7,474.9z"/>
	</g>
</g>
</svg>
