<svg xmlns="http://www.w3.org/2000/svg" viewBox="0 0 1705.92 541.65"><defs><style>.cls-1{fill:#fff;}.cls-2{fill:#086596;}.cls-3{fill:#0a0c1a;}</style></defs><g id="Capa_2" data-name="Capa 2"><g id="Capa_1-2" data-name="Capa 1"><path class="cls-1" d="M67.22,394.85H817.56c37.09,0,67.22,32.8,67.22,73.4h0c0,40.5-30,73.4-67.22,73.4H67.22C30.13,541.65,0,508.85,0,468.25H0C0,427.65,30.13,394.85,67.22,394.85Z"/><circle class="cls-2" cx="69.55" cy="467.58" r="37"/><path class="cls-3" d="M31.74,175h63.6q22.8,0,40.3,8.7a65.16,65.16,0,0,1,27.2,24.5q9.69,15.79,9.7,36.8t-9.7,36.8a65.22,65.22,0,0,1-27.2,24.5q-17.5,8.69-40.3,8.7H31.74Zm62,113.4q21,0,33.5-11.7t12.5-31.7q0-20-12.5-31.7t-33.5-11.71H64.14v86.81Z"/><path class="cls-3" d="M305.33,289v26H196.93V175h105.8v26h-73.6v30.4h65v25.19h-65V289Z"/><path class="cls-3" d="M416.73,201.36h-44.8V175h122v26.4h-44.8V315h-32.4Z"/><path class="cls-3" d="M524.43,300.76q-16.69-16.61-16.7-47.4V175h32.4v77.2q0,37.59,31.2,37.6,15.2,0,23.2-9.1t8-28.5V175h32v78.4q0,30.79-16.7,47.4t-46.7,16.6Q541.13,317.36,524.43,300.76Z"/><path class="cls-3" d="M680.43,312.86q-15.51-4.5-24.9-11.7l11-24.4a74.69,74.69,0,0,0,21.4,10.6,80.53,80.53,0,0,0,24.8,4q13.8,0,20.4-4.1t6.6-10.9a10.44,10.44,0,0,0-3.9-8.31,29.74,29.74,0,0,0-10-5.29q-6.11-2-16.5-4.4a229.93,229.93,0,0,1-26.2-7.6,42.52,42.52,0,0,1-17.5-12.21q-7.3-8.38-7.3-22.39a39,39,0,0,1,6.6-22.11q6.6-9.88,19.9-15.69t32.5-5.81a107.36,107.36,0,0,1,26.2,3.21,77.35,77.35,0,0,1,22.4,9.2l-10,24.59q-19.41-11-38.8-11-13.61,0-20.1,4.41t-6.5,11.59q0,7.22,7.5,10.71t22.9,6.9a226.48,226.48,0,0,1,26.2,7.6,43.34,43.34,0,0,1,17.5,12q7.29,8.19,7.3,22.2a38.28,38.28,0,0,1-6.7,21.9q-6.71,9.9-20.1,15.69t-32.6,5.81A114.51,114.51,0,0,1,680.43,312.86Z"/><path class="cls-3" d="M864.62,312.86q-15.5-4.5-24.9-11.7l11-24.4a74.82,74.82,0,0,0,21.4,10.6,80.63,80.63,0,0,0,24.8,4q13.8,0,20.4-4.1t6.6-10.9a10.44,10.44,0,0,0-3.9-8.31,29.64,29.64,0,0,0-10-5.29q-6.09-2-16.5-4.4a230.54,230.54,0,0,1-26.2-7.6,42.58,42.58,0,0,1-17.5-12.21q-7.29-8.38-7.3-22.39a39,39,0,0,1,6.6-22.11q6.6-9.88,19.9-15.69t32.5-5.81a107.24,107.24,0,0,1,26.2,3.21,77.23,77.23,0,0,1,22.4,9.2l-10,24.59q-19.39-11-38.8-11-13.59,0-20.1,4.41t-6.5,11.59q0,7.22,7.5,10.71t22.9,6.9a225.88,225.88,0,0,1,26.2,7.6,43.28,43.28,0,0,1,17.5,12q7.3,8.19,7.3,22.2a38.2,38.2,0,0,1-6.7,21.9q-6.69,9.9-20.1,15.69t-32.6,5.81A114.61,114.61,0,0,1,864.62,312.86Z"/><path class="cls-3" d="M993.82,300.76q-16.7-16.61-16.7-47.4V175h32.4v77.2q0,37.59,31.2,37.6,15.19,0,23.2-9.1t8-28.5V175h32v78.4q0,30.79-16.7,47.4t-46.7,16.6Q1010.52,317.36,993.82,300.76Z"/><path class="cls-3" d="M1244.32,289v26h-108.4V175h105.8v26h-73.6v30.4h65v25.19h-65V289Z"/><path class="cls-3" d="M1398.52,175V315h-26.6l-69.8-85v85h-32V175h26.8l69.6,85V175Zm-58.7-12.91a70.37,70.37,0,0,1-9.1-5.69,53,53,0,0,0-5.3-3.6,8.27,8.27,0,0,0-4.1-1.21,8.68,8.68,0,0,0-6.8,2.91q-2.61,2.89-2.8,8.3h-15.8q.39-13.41,6.7-21.3a21.57,21.57,0,0,1,26-5.8,70.83,70.83,0,0,1,9.3,5.89,52.26,52.26,0,0,0,5.3,3.61,8.22,8.22,0,0,0,4.1,1.2,8.81,8.81,0,0,0,6.7-2.9,11.93,11.93,0,0,0,2.9-7.91h15.8q-.4,13-6.7,20.81a22,22,0,0,1-26.2,5.69Z"/><path class="cls-3" d="M1460.22,308a69.79,69.79,0,0,1-27.4-25.91,74.45,74.45,0,0,1,0-74.19,69.7,69.7,0,0,1,27.4-25.9q17.49-9.41,39.3-9.41t39.2,9.41a71.41,71.41,0,0,1,0,126q-17.4,9.39-39.2,9.4T1460.22,308Zm61.7-23.91a40.86,40.86,0,0,0,15.7-15.89,50.06,50.06,0,0,0,0-46.4,41,41,0,0,0-15.7-15.9,46.86,46.86,0,0,0-44.8,0,40.88,40.88,0,0,0-15.7,15.9,50.06,50.06,0,0,0,0,46.4,40.79,40.79,0,0,0,15.7,15.89,46.79,46.79,0,0,0,44.8,0Z"/><path class="cls-3" d="M1614.42,312.86q-15.51-4.5-24.9-11.7l11-24.4a74.69,74.69,0,0,0,21.4,10.6,80.53,80.53,0,0,0,24.8,4q13.8,0,20.4-4.1t6.6-10.9a10.44,10.44,0,0,0-3.9-8.31,29.74,29.74,0,0,0-10-5.29q-6.1-2-16.5-4.4a229.93,229.93,0,0,1-26.2-7.6,42.52,42.52,0,0,1-17.5-12.21q-7.3-8.38-7.3-22.39a39,39,0,0,1,6.6-22.11q6.6-9.88,19.9-15.69t32.5-5.81a107.36,107.36,0,0,1,26.2,3.21,77.35,77.35,0,0,1,22.4,9.2l-10,24.59q-19.41-11-38.8-11-13.61,0-20.1,4.41t-6.5,11.59q0,7.22,7.5,10.71t22.9,6.9a226.48,226.48,0,0,1,26.2,7.6,43.34,43.34,0,0,1,17.5,12q7.29,8.19,7.3,22.2a38.28,38.28,0,0,1-6.7,21.9q-6.71,9.9-20.1,15.69t-32.6,5.81A114.51,114.51,0,0,1,1614.42,312.86Z"/><path class="cls-2" d="M201.88,482H170.66L164.2,496.7h-8.65L182.16,438h8.31l26.68,58.75h-8.81Zm-2.94-6.72-12.67-28.79L173.6,475.3Z"/><path class="cls-2" d="M224.71,434.43h8.06V496.7h-8.06Z"/><path class="cls-2" d="M339.65,456.67q4.91,4.86,4.91,14.43v25.6H336.5V472q0-6.46-3-9.74T325,459a12.73,12.73,0,0,0-9.73,3.82q-3.61,3.81-3.61,11V496.7H303.6V472q0-6.46-3-9.74T292.1,459a12.73,12.73,0,0,0-9.73,3.82q-3.62,3.81-3.61,11V496.7H270.7V452.22h7.72v6.63a15.7,15.7,0,0,1,6.38-5.25,21.4,21.4,0,0,1,9-1.8,19.65,19.65,0,0,1,9.23,2.1,14.52,14.52,0,0,1,6.21,6.13,17.09,17.09,0,0,1,7-6,23,23,0,0,1,10.12-2.18Q334.74,451.8,339.65,456.67Z"/><path class="cls-2" d="M399.7,477.15H363.61a14,14,0,0,0,5.16,9.44,16.84,16.84,0,0,0,11,3.57,16.5,16.5,0,0,0,12.85-5.38L397,490a19.38,19.38,0,0,1-7.51,5.37A28.27,28.27,0,0,1,367,494.31a20.66,20.66,0,0,1-8.44-8.1,23.27,23.27,0,0,1-3-11.75,23.56,23.56,0,0,1,2.9-11.66,20.76,20.76,0,0,1,8-8.1,22.75,22.75,0,0,1,11.46-2.9,22.26,22.26,0,0,1,11.37,2.9,20.37,20.37,0,0,1,7.81,8.1,24.71,24.71,0,0,1,2.81,11.91A23.79,23.79,0,0,1,399.7,477.15Zm-31.52-15a14.23,14.23,0,0,0-4.57,9.24h28.54a14.31,14.31,0,0,0-4.58-9.19,13.81,13.81,0,0,0-9.69-3.57A14,14,0,0,0,368.18,462.12Z"/><path class="cls-2" d="M399.87,512.82a11.26,11.26,0,0,1-4.2-2l2.6-6.21a9.88,9.88,0,0,0,6.55,2.1,6.18,6.18,0,0,0,4.91-2q1.72-2,1.72-5.83V452.22h8.06v46.5q0,6.87-3.7,10.82t-10.49,3.95A21.47,21.47,0,0,1,399.87,512.82Zm11.71-70.67a5,5,0,0,1-1.56-3.69,5.09,5.09,0,0,1,1.56-3.74,5.29,5.29,0,0,1,3.9-1.55,5.45,5.45,0,0,1,3.9,1.47,4.79,4.79,0,0,1,1.55,3.65,5.18,5.18,0,0,1-1.55,3.82,5.74,5.74,0,0,1-7.8,0Z"/><path class="cls-2" d="M442,494.27a21.39,21.39,0,0,1-8.27-8.1,24.5,24.5,0,0,1,0-23.42A21.06,21.06,0,0,1,442,454.7a24.43,24.43,0,0,1,11.92-2.9,24.13,24.13,0,0,1,11.87,2.9,21.09,21.09,0,0,1,8.23,8.05,24.5,24.5,0,0,1,0,23.42,21.42,21.42,0,0,1-8.23,8.1,23.83,23.83,0,0,1-11.87,2.94A24.13,24.13,0,0,1,442,494.27Zm19.6-6.09a13.94,13.94,0,0,0,5.33-5.54,18.3,18.3,0,0,0,0-16.36,13.71,13.71,0,0,0-5.33-5.5,16.25,16.25,0,0,0-15.36,0,13.87,13.87,0,0,0-5.37,5.5,17.89,17.89,0,0,0,0,16.36,14.1,14.1,0,0,0,5.37,5.54,15.88,15.88,0,0,0,15.36,0Z"/><path class="cls-2" d="M502.09,453.81a22.58,22.58,0,0,1,10-2v7.81a14.63,14.63,0,0,0-1.84-.09q-6.56,0-10.29,3.9c-2.49,2.61-3.73,6.31-3.73,11.13V496.7h-8.06V452.22h7.72v7.47A13.83,13.83,0,0,1,502.09,453.81Z"/><path class="cls-2" d="M580.32,454.65a20.55,20.55,0,0,1,8,8,23.62,23.62,0,0,1,2.9,11.83,23.87,23.87,0,0,1-2.9,11.88,20.43,20.43,0,0,1-8,8,23.35,23.35,0,0,1-11.59,2.86,20.63,20.63,0,0,1-8.77-1.85,18.14,18.14,0,0,1-6.75-5.37v23h-8.06V452.22h7.72v7a17.14,17.14,0,0,1,6.8-5.58,21.43,21.43,0,0,1,9.06-1.89A23.45,23.45,0,0,1,580.32,454.65Zm-4.58,33.53a14.1,14.1,0,0,0,5.37-5.54,17.89,17.89,0,0,0,0-16.36,13.87,13.87,0,0,0-5.37-5.5,15.21,15.21,0,0,0-7.68-1.93,14.86,14.86,0,0,0-7.59,2,14.36,14.36,0,0,0-5.38,5.5,16.43,16.43,0,0,0-2,8.14,17,17,0,0,0,1.93,8.18,13.84,13.84,0,0,0,5.37,5.54,15.81,15.81,0,0,0,15.32,0Z"/><path class="cls-2" d="M616.32,453.81a22.58,22.58,0,0,1,10-2v7.81a14.69,14.69,0,0,0-1.85-.09q-6.54,0-10.28,3.9c-2.49,2.61-3.73,6.31-3.73,11.13V496.7h-8.06V452.22h7.72v7.47A13.83,13.83,0,0,1,616.32,453.81Z"/><path class="cls-2" d="M675.83,477.15H639.74a14,14,0,0,0,5.16,9.44,16.84,16.84,0,0,0,11,3.57,16.46,16.46,0,0,0,12.84-5.38l4.45,5.21a19.46,19.46,0,0,1-7.51,5.37,28.29,28.29,0,0,1-22.54-1.05,20.64,20.64,0,0,1-8.43-8.1,23.17,23.17,0,0,1-3-11.75,23.46,23.46,0,0,1,2.9-11.66,20.69,20.69,0,0,1,8-8.1A22.69,22.69,0,0,1,654,451.8a22.27,22.27,0,0,1,11.38,2.9,20.28,20.28,0,0,1,7.8,8.1A24.6,24.6,0,0,1,676,474.71,23.32,23.32,0,0,1,675.83,477.15Zm-31.52-15a14.19,14.19,0,0,0-4.57,9.24h28.53a14.3,14.3,0,0,0-4.57-9.19,15,15,0,0,0-19.39-.05Z"/><path class="cls-2" d="M694.42,494.27a21.47,21.47,0,0,1-8.35-8.1,24.14,24.14,0,0,1,0-23.42,21.14,21.14,0,0,1,8.35-8.05,25,25,0,0,1,12.13-2.9,23.31,23.31,0,0,1,10.78,2.43,17.4,17.4,0,0,1,7.34,7l-6.12,4a13.76,13.76,0,0,0-5.21-4.79,14.86,14.86,0,0,0-6.88-1.59,15.88,15.88,0,0,0-7.85,1.93,13.74,13.74,0,0,0-5.45,5.5,16.56,16.56,0,0,0-2,8.18,16.75,16.75,0,0,0,2,8.27,13.74,13.74,0,0,0,5.45,5.5,16,16,0,0,0,7.85,1.93,14.74,14.74,0,0,0,6.88-1.6,13.73,13.73,0,0,0,5.21-4.78l6.12,3.86a17.55,17.55,0,0,1-7.34,7.09,23,23,0,0,1-10.78,2.48A24.67,24.67,0,0,1,694.42,494.27Z"/><path class="cls-2" d="M735.21,442.15a5,5,0,0,1-1.56-3.69,5.09,5.09,0,0,1,1.56-3.74,5.29,5.29,0,0,1,3.9-1.55,5.43,5.43,0,0,1,3.9,1.47,4.8,4.8,0,0,1,1.56,3.65,5.19,5.19,0,0,1-1.56,3.82,5.74,5.74,0,0,1-7.8,0Zm-.13,10.07h8.06V496.7h-8.06Z"/><path class="cls-2" d="M765.63,494.27a21.39,21.39,0,0,1-8.27-8.1,24.5,24.5,0,0,1,0-23.42,21.06,21.06,0,0,1,8.27-8.05,25.87,25.87,0,0,1,23.8,0,21.13,21.13,0,0,1,8.22,8.05,24.5,24.5,0,0,1,0,23.42,21.46,21.46,0,0,1-8.22,8.1,25.55,25.55,0,0,1-23.8,0Zm19.6-6.09a13.94,13.94,0,0,0,5.33-5.54,18.3,18.3,0,0,0,0-16.36,13.71,13.71,0,0,0-5.33-5.5,16.25,16.25,0,0,0-15.36,0,13.87,13.87,0,0,0-5.37,5.5,18,18,0,0,0,0,16.36,14.1,14.1,0,0,0,5.37,5.54,15.88,15.88,0,0,0,15.36,0Z"/><path class="cls-1" d="M97.24,87.13v8.69H30.05V.81H95.2V9.5H40.1V43.3H89.23v8.55H40.1V87.13Z"/><path class="cls-1" d="M200.25.81v95H192L130.89,18.73V95.82h-10V.81h8.28L190.34,77.9V.81Z"/><path class="cls-1" d="M247,90.39a45.77,45.77,0,0,1-17.78-17.3,48.27,48.27,0,0,1-6.44-24.77,48.24,48.24,0,0,1,6.44-24.77A45.65,45.65,0,0,1,247.07,6.24,52.27,52.27,0,0,1,272.59,0a52.91,52.91,0,0,1,19.54,3.53,40.51,40.51,0,0,1,15.2,10.31L301,20.22Q289.82,9,272.86,9a41.31,41.31,0,0,0-20.5,5.16,37.68,37.68,0,0,0-14.45,14.11,39.17,39.17,0,0,0-5.23,20.09,39.13,39.13,0,0,0,5.23,20.08,37.63,37.63,0,0,0,14.45,14.12,41.31,41.31,0,0,0,20.5,5.16q17.1,0,28.09-11.4l6.38,6.38A41.12,41.12,0,0,1,292.06,93a52.45,52.45,0,0,1-19.61,3.6A51.9,51.9,0,0,1,247,90.39Z"/><path class="cls-1" d="M338,86.05Q327.7,75.46,327.69,55.24V.81h10v54q0,16.56,7.47,24.7t21.58,8.15q14.25,0,21.71-8.15T396,54.83V.81h9.77V55.24q0,20.22-10.25,30.81t-28.7,10.59Q348.32,96.64,338,86.05Z"/><path class="cls-1" d="M503.18,87.13v8.69H436V.81h65.14V9.5H446V43.3h49.13v8.55H446V87.13Z"/><path class="cls-1" d="M606.19.81v95h-8.28L536.84,18.73V95.82H526.79V.81h8.28L596.28,77.9V.81Z"/><path class="cls-1" d="M655.59,9.5H622.2V.81H699V9.5H665.64V95.82h-10Z"/><path class="cls-1" d="M779.91,95.82,758.2,65.28a69.3,69.3,0,0,1-7.6.41H725.08V95.82H715V.81H750.6q18.18,0,28.5,8.69t10.31,23.89q0,11.13-5.63,18.8T767.7,63.25l23.21,32.57Zm-8-44.92q7.46-6.24,7.46-17.51,0-11.54-7.46-17.71T750.33,9.5H725.08V57.14h25.25Q764.45,57.14,771.91,50.9Z"/><path class="cls-1" d="M872.75,70.44H819.82L808.41,95.82H798L841.4.81h9.9l43.43,95H884.15Zm-3.67-8.14-22.8-51-22.8,51Z"/><path class="cls-1" d="M1013.22,87.13v8.69H946V.81h65.14V9.5h-55.1V43.3h49.13v8.55H956.08V87.13Z"/><path class="cls-1" d="M1036.83.81h10.05V87.13h53.2v8.69h-63.25Z"/><path class="cls-1" d="M1219.51,87.13v8.69h-67.18V.81h65.15V9.5h-55.11V43.3h49.14v8.55h-49.14V87.13Z"/><path class="cls-1" d="M1338.27,103.83A29.26,29.26,0,0,1,1328,111.9a29.61,29.61,0,0,1-12.82,2.79,32.63,32.63,0,0,1-16-4.14q-7.53-4.14-16.9-13.91a51.56,51.56,0,0,1-24.7-6.79,46.38,46.38,0,0,1-17.24-17.24,47.86,47.86,0,0,1-6.24-24.29,47.89,47.89,0,0,1,6.45-24.7,46.09,46.09,0,0,1,17.91-17.31,55,55,0,0,1,51-.07,46.23,46.23,0,0,1,17.84,17.31,47.82,47.82,0,0,1,6.52,24.77,48.51,48.51,0,0,1-5,21.92,46,46,0,0,1-13.84,16.62,48.45,48.45,0,0,1-20.43,8.82q10.46,11,20.63,11,10.59,0,18.05-8.69Zm-89-35.43a37.82,37.82,0,0,0,14.39,14.12,42.89,42.89,0,0,0,40.79,0,37.45,37.45,0,0,0,14.25-14.12,39.57,39.57,0,0,0,5.15-20.08,39.61,39.61,0,0,0-5.15-20.09,37.5,37.5,0,0,0-14.25-14.11,42.89,42.89,0,0,0-40.79,0,37.87,37.87,0,0,0-14.39,14.11,39.16,39.16,0,0,0-5.22,20.09A39.12,39.12,0,0,0,1249.3,68.4Z"/><path class="cls-1" d="M1366,86.05q-10.32-10.59-10.32-30.81V.81h10v54q0,16.56,7.46,24.7t21.58,8.15q14.25,0,21.72-8.15t7.46-24.7V.81h9.77V55.24q0,20.22-10.24,30.81t-28.71,10.59Q1376.27,96.64,1366,86.05Z"/><path class="cls-1" d="M1464,.81h10v95h-10Z"/><path class="cls-1" d="M1569,9.5q10.3,8.68,10.31,23.89T1569,57.21q-10.32,8.61-28.51,8.62H1515v30h-10V.81h35.56Q1558.69.81,1569,9.5Zm-7.2,41.33q7.47-6.18,7.47-17.44,0-11.54-7.47-17.71T1540.22,9.5H1515V57h25.24Q1554.34,57,1561.8,50.83Z"/><path class="cls-1" d="M1618.33,90.32A46,46,0,0,1,1600.41,73a47.88,47.88,0,0,1-6.44-24.7,47.88,47.88,0,0,1,6.44-24.7,46.12,46.12,0,0,1,17.92-17.31,55,55,0,0,1,51-.07,46.25,46.25,0,0,1,17.85,17.31,47.9,47.9,0,0,1,6.51,24.77,47.93,47.93,0,0,1-6.51,24.77,46.23,46.23,0,0,1-17.85,17.3,54.93,54.93,0,0,1-51-.07Zm45.94-7.73a36.9,36.9,0,0,0,14.25-14.12,39.84,39.84,0,0,0,5.16-20.15,39.91,39.91,0,0,0-5.16-20.16,36.87,36.87,0,0,0-14.25-14.11,43.39,43.39,0,0,0-40.78,0,37.17,37.17,0,0,0-14.39,14.11,39.55,39.55,0,0,0-5.23,20.16,39.49,39.49,0,0,0,5.23,20.15,37.19,37.19,0,0,0,14.39,14.12,43.39,43.39,0,0,0,40.78,0Z"/></g></g></svg>