<svg xmlns="http://www.w3.org/2000/svg" viewBox="0 0 192.04 119.91"><defs><style>.cls-1,.cls-5{fill:#fff;}.cls-2{fill:#a60c16;}.cls-3,.cls-6{fill:#161616;}.cls-3{stroke:#fff;stroke-miterlimit:10;stroke-width:0.13px;}.cls-4{fill:#e30613;}.cls-5{fill-rule:evenodd;}</style></defs><g id="Capa_2" data-name="Capa 2"><g id="Capa_1-2" data-name="Capa 1"><path class="cls-1" d="M11.16,16a1.15,1.15,0,0,1-.54-.22.19.19,0,0,1-.06-.22.15.15,0,0,1,.16-.14,1,1,0,0,1,.24,0c.2,0,.4,0,.62,0a5.27,5.27,0,0,0,3.22-.92,8.46,8.46,0,0,0,1.22-1,12.69,12.69,0,0,0,1.22-1.52A14.36,14.36,0,0,0,19.1,8,11,11,0,0,0,19.44,6,4.46,4.46,0,0,0,19,3.54,3.24,3.24,0,0,0,17.38,2a4,4,0,0,0-.7-.2,4,4,0,0,0-1.46,0,6.58,6.58,0,0,0-2.2.7A10.39,10.39,0,0,0,8.9,6.16a7.39,7.39,0,0,0-1,2.47,3.59,3.59,0,0,0,0,1.46,3.93,3.93,0,0,1,.06.48.27.27,0,0,1-.18.27.21.21,0,0,1-.24,0c-.06,0-.14-.05-.2-.11a1.56,1.56,0,0,1-.52-.8,3.77,3.77,0,0,1-.12-1.34A5.34,5.34,0,0,1,7.34,6.5,9.46,9.46,0,0,1,9.52,3.72a10.07,10.07,0,0,1,3.9-2.2,9.29,9.29,0,0,1,3-.38,4.88,4.88,0,0,1,.58,0,4.07,4.07,0,0,1,1.74.5,3.24,3.24,0,0,1,1.44,1.44,4.24,4.24,0,0,1,.5,1.76,9.24,9.24,0,0,1-.2,2.67,14.6,14.6,0,0,1-1.76,4.4,10.58,10.58,0,0,1-1.84,2.26,7.94,7.94,0,0,1-1.72,1.18,6.51,6.51,0,0,1-2.82.68A6.36,6.36,0,0,1,11.16,16ZM7.42,16c-.08,0-.2-.2-.16-.28a.54.54,0,0,1,.2-.3A5.44,5.44,0,0,0,9,13.73c.22-.38.44-.78.64-1.18s.4-.8.58-1.2c.58-1.26,1.16-2.52,1.76-3.77a9.85,9.85,0,0,1,.48-1,7.06,7.06,0,0,1,1.6-2,3.27,3.27,0,0,1,1.38-.72.33.33,0,0,1,.4.2.31.31,0,0,1-.1.32,6.1,6.1,0,0,0-1.9,2.2c-.24.42-.46.87-.68,1.3-.66,1.43-1.32,2.87-2,4.31-.16.34-.3.66-.48,1a7,7,0,0,1-1.38,1.86,4.15,4.15,0,0,1-1.3.88,1,1,0,0,1-.48.08Z"/><path class="cls-1" d="M20.4,14.31a.79.79,0,0,1-.2-.3,2.41,2.41,0,0,1-.2-.92,6.86,6.86,0,0,1,.3-1.44c.12-.28.22-.54.34-.81.42-.95.86-1.91,1.28-2.87a1.52,1.52,0,0,1,.2-.33.42.42,0,0,1,.3-.17A.78.78,0,0,1,23,7.7a.44.44,0,0,1,.06.1.89.89,0,0,1,0,.6c-.08.23-.2.44-.28.69-.34.74-.68,1.48-1,2.22a6,6,0,0,0-.54,1.86.85.85,0,0,0,.12.58c.06.1.22.18.3.14l.24-.06a4.09,4.09,0,0,0,.68-.52,7,7,0,0,0,1.12-1.42l.46-.72a.18.18,0,0,1,.22-.08.35.35,0,0,1,.16.3,4.46,4.46,0,0,1-.52,1A6.56,6.56,0,0,1,22.58,14a3.1,3.1,0,0,1-1.06.6A1,1,0,0,1,20.4,14.31Zm2.44-7.83a1.19,1.19,0,0,1,0-.46,1.9,1.9,0,0,1,.26-.66.5.5,0,0,1,.52-.24.54.54,0,0,1,.44.36c0,.06,0,.14,0,.24a1,1,0,0,1,0,.34l-.24.54a.44.44,0,0,1-.5.22A.49.49,0,0,1,22.84,6.48Z"/><path class="cls-1" d="M24.18,14.63a1.13,1.13,0,0,1-1-1.4,3.91,3.91,0,0,1,.26-.82c.16-.36.34-.8.52-1.18,0-.1.32-.18.44-.16a.57.57,0,0,1,.44.52,2.63,2.63,0,0,1-.08.68,1.22,1.22,0,0,1-.14.34l-.24.68a.51.51,0,0,0,.52.66,1.17,1.17,0,0,0,.58-.12,2.19,2.19,0,0,0,1-1.16,1.52,1.52,0,0,0,.16-.94.42.42,0,0,0-.08-.22c-.08-.12-.24-.16-.3-.06A4.39,4.39,0,0,0,26,12c-.2.3-.4.6-.58.92A.35.35,0,0,1,25,13c-.08,0-.14-.1-.12-.18a1.73,1.73,0,0,1,.14-.34c.24-.42.48-.84.74-1.26a3.7,3.7,0,0,0,.62-1.57A2.19,2.19,0,0,1,27,8.43,3.85,3.85,0,0,1,28,7.64a.29.29,0,0,1,.4.12.27.27,0,0,1,0,.13,2,2,0,0,1-.46.55,2.12,2.12,0,0,0-.32.66,1,1,0,0,0,0,.49l.24.82a4.19,4.19,0,0,0,.16.46,2.6,2.6,0,0,1,0,1.56,2.71,2.71,0,0,1-.38.76,3.53,3.53,0,0,1-2.06,1.4,4.15,4.15,0,0,1-.8.1A3.69,3.69,0,0,1,24.18,14.63Z"/><path class="cls-1" d="M29.12,14.43a1.38,1.38,0,0,1-.32-.36,2.41,2.41,0,0,1-.22-.94c0-.08,0-.28.06-.48a6.89,6.89,0,0,1,.54-1.76c.38-.8.74-1.63,1.1-2.45.22-.47.42-1,.64-1.46a.26.26,0,0,0-.2-.36c-.16,0-.32,0-.48-.08a.22.22,0,0,1-.14-.18.2.2,0,0,1,.2-.24,2.2,2.2,0,0,1,.36,0A3.93,3.93,0,0,0,31.14,6a.36.36,0,0,0,.28-.2L32,4.72a4.49,4.49,0,0,1,.24-.42.35.35,0,0,1,.32-.14.62.62,0,0,1,.6.84c-.06.22-.16.46-.24.68s0,.28.18.4l.1.06a.24.24,0,0,1,.08.22.17.17,0,0,1-.14.18,1,1,0,0,1-.22,0l-.26,0a.47.47,0,0,0-.26.22.83.83,0,0,0-.14.22C31.6,8.43,31,9.8,30.38,11.19a7.68,7.68,0,0,0-.56,1.74,1.51,1.51,0,0,0,0,.6.61.61,0,0,0,.2.3.33.33,0,0,0,.24,0,1.63,1.63,0,0,0,.52-.28,6.43,6.43,0,0,0,1.3-1.46l.46-.72a2.86,2.86,0,0,1,.22-.3.2.2,0,0,1,.3,0c0,.08.08.18,0,.24a7.39,7.39,0,0,1-1.78,2.44,3.81,3.81,0,0,1-1.26.74A1.05,1.05,0,0,1,29.12,14.43Z"/><path class="cls-1" d="M34.84,13.63a1.52,1.52,0,0,0,0-.32,2.88,2.88,0,0,1,.16-.88c.24-.78.5-1.56.74-2.34a3.09,3.09,0,0,0,.12-.46,1,1,0,0,0,0-.24A.51.51,0,0,0,35.56,9a8.27,8.27,0,0,0-.8-.26.4.4,0,0,0-.5.26c-.16.32-.28.66-.44,1s-.64,1.32-.92,1.76a.22.22,0,0,1-.32,0c-.08-.06-.12-.08-.1-.18a8.66,8.66,0,0,1,.48-1l.9-2a1.62,1.62,0,0,0,.16-1,2.85,2.85,0,0,1,.12-1.08A.65.65,0,0,1,35,6.12l.1.06s.06.08.06.1a2.2,2.2,0,0,1,0,.36c0,.66.18,1,.9,1.12a1.05,1.05,0,0,1,.24.06.72.72,0,0,1,.22.08.93.93,0,0,1,.64.82,1.33,1.33,0,0,1,0,.49c-.08.35-.2.72-.3,1l-.72,2.09a3.91,3.91,0,0,0-.2,1,2.25,2.25,0,0,0,.06.36.37.37,0,0,0,.28.2.74.74,0,0,0,.46-.1,5.64,5.64,0,0,0,1.3-1.28c.3-.4.52-.84.78-1.24a.37.37,0,0,1,.2-.14.24.24,0,0,1,.22.08s0,.08,0,.12a.15.15,0,0,1,0,.1,7.26,7.26,0,0,1-1.78,2.46,4.42,4.42,0,0,1-.8.56,1.73,1.73,0,0,1-.7.18A1.06,1.06,0,0,1,34.84,13.63Z"/><path class="cls-1" d="M38.64,14.31a.79.79,0,0,1-.2-.3,2.41,2.41,0,0,1-.2-.92,6.86,6.86,0,0,1,.3-1.44c.12-.28.22-.54.34-.81.42-.95.86-1.91,1.28-2.87a1.52,1.52,0,0,1,.2-.33.42.42,0,0,1,.3-.17.78.78,0,0,1,.54.23.44.44,0,0,1,.06.1.89.89,0,0,1,0,.6c-.08.23-.2.44-.28.69-.34.74-.68,1.48-1,2.22a6,6,0,0,0-.54,1.86.85.85,0,0,0,.12.58c.06.1.22.18.3.14l.24-.06a4.09,4.09,0,0,0,.68-.52,7,7,0,0,0,1.12-1.42l.46-.72a.18.18,0,0,1,.22-.08.35.35,0,0,1,.16.3,4.46,4.46,0,0,1-.52,1A6.56,6.56,0,0,1,40.82,14a3.1,3.1,0,0,1-1.06.6A1,1,0,0,1,38.64,14.31Zm2.44-7.83a1.19,1.19,0,0,1,0-.46,1.9,1.9,0,0,1,.26-.66.5.5,0,0,1,.52-.24.54.54,0,0,1,.44.36c0,.06,0,.14,0,.24a1,1,0,0,1,0,.34L42,6.6a.44.44,0,0,1-.5.22A.49.49,0,0,1,41.08,6.48Z"/><path class="cls-1" d="M41.86,13.89c0-.08,0-.16,0-.24a1.24,1.24,0,0,0,0-.3A4.26,4.26,0,0,1,42,12.09c.12-.36.24-.7.38-1l3.88-8.57a1.07,1.07,0,0,1,.2-.32A.36.36,0,0,1,46.86,2a.64.64,0,0,1,.46.38.61.61,0,0,1,0,.46,6.91,6.91,0,0,1-.28.68c-.44,1-.88,1.94-1.3,2.9l-.3.68c-.12.3,0,.41.22.42a2.17,2.17,0,0,1,.36,0,1,1,0,0,1,.88.74,3,3,0,0,1,.08.73,4.35,4.35,0,0,1-.24,1.44,8.82,8.82,0,0,1-1.62,2.86,5.22,5.22,0,0,1-1.4,1.16,1.74,1.74,0,0,1-.82.22A1,1,0,0,1,41.86,13.89Zm1.84,0a3.09,3.09,0,0,0,.54-.48,8.85,8.85,0,0,0,1.92-3.5,2.85,2.85,0,0,0,.12-1.08,1,1,0,0,0,0-.24.32.32,0,0,0-.4-.19,1.65,1.65,0,0,0-.4.27,4.18,4.18,0,0,0-.6.59,9.16,9.16,0,0,0-1.74,3.47c-.06.24-.06.48-.1.72s.06.24.08.36a.27.27,0,0,0,.28.18A.85.85,0,0,0,43.7,13.85Z"/><path class="cls-1" d="M50.58,14.09a3.07,3.07,0,0,1-.24-.68.18.18,0,0,0-.28-.06l-.38.32-.66.54a3,3,0,0,1-.9.38A1,1,0,0,1,47,14.05a2.13,2.13,0,0,1-.22-.9c0-.08,0-.24,0-.4A6.84,6.84,0,0,1,47.34,11c.24-.56.5-1.12.74-1.66l.66-1.47c.06-.1.14-.2.2-.3a.42.42,0,0,1,.44-.12,1.14,1.14,0,0,1,.22.12.62.62,0,0,1,.26.65c0,.09-.06.22-.1.34l-.9,2c-.14.29-.28.6-.4.9A6.67,6.67,0,0,0,48,13.09a.81.81,0,0,0,.16.7.24.24,0,0,0,.22.08.53.53,0,0,0,.24-.06,2.39,2.39,0,0,0,.68-.5,7.27,7.27,0,0,0,1.38-1.84,10.16,10.16,0,0,0,.48-1c.42-.88.82-1.79,1.22-2.67a.72.72,0,0,1,.14-.2c.06,0,.14-.12.2-.12a.63.63,0,0,1,.74.62,1,1,0,0,1,0,.24c-.08.22-.18.45-.28.67-.32.71-.62,1.42-.94,2.12a8.91,8.91,0,0,0-.52,1.5,2.31,2.31,0,0,0-.06,1,.37.37,0,0,0,.46.28,1,1,0,0,0,.22-.08c.16-.12.34-.24.48-.36A6.78,6.78,0,0,0,54,12c.14-.22.24-.44.38-.64a.69.69,0,0,1,.16-.18.21.21,0,0,1,.24,0,.25.25,0,0,1,.1.2.25.25,0,0,1,0,.12,7.34,7.34,0,0,1-1.7,2.36,4,4,0,0,1-1.24.76,1.34,1.34,0,0,1-.48.08A1,1,0,0,1,50.58,14.09Z"/><path class="cls-1" d="M54.26,14.31a.79.79,0,0,1-.2-.3,2.41,2.41,0,0,1-.2-.92,6.86,6.86,0,0,1,.3-1.44c.12-.28.22-.54.34-.81.42-.95.86-1.91,1.28-2.87a1.52,1.52,0,0,1,.2-.33.42.42,0,0,1,.3-.17.78.78,0,0,1,.54.23.44.44,0,0,1,.06.1.89.89,0,0,1,0,.6c-.08.23-.2.44-.28.69-.34.74-.68,1.48-1,2.22a6,6,0,0,0-.54,1.86.85.85,0,0,0,.12.58c.06.1.22.18.3.14l.24-.06a4.09,4.09,0,0,0,.68-.52,7,7,0,0,0,1.12-1.42l.46-.72a.18.18,0,0,1,.22-.08.35.35,0,0,1,.16.3,4.46,4.46,0,0,1-.52,1A6.56,6.56,0,0,1,56.44,14a3.1,3.1,0,0,1-1.06.6A1,1,0,0,1,54.26,14.31ZM56.7,6.48a1.19,1.19,0,0,1,0-.46,1.9,1.9,0,0,1,.26-.66.5.5,0,0,1,.52-.24.54.54,0,0,1,.44.36c0,.06,0,.14,0,.24a1,1,0,0,1,0,.34l-.24.54a.44.44,0,0,1-.5.22A.49.49,0,0,1,56.7,6.48Z"/><path class="cls-1" d="M61,14a3.14,3.14,0,0,1-.18-.46.25.25,0,0,0-.32-.08,8.74,8.74,0,0,1-1,.74,1.86,1.86,0,0,1-.92.3,1,1,0,0,1-1.13-.88,4.13,4.13,0,0,1,0-.5,4.07,4.07,0,0,1,.28-1.54,8.05,8.05,0,0,1,2-3.29A3.67,3.67,0,0,1,61,7.47a1.44,1.44,0,0,1,.58-.13,1,1,0,0,1,.58.18,3.42,3.42,0,0,1,.28.22.24.24,0,0,0,.32,0,2.62,2.62,0,0,0,.34-.64c.62-1.34,1.22-2.68,1.82-4,.12-.24.24-.5.38-.76,0-.06.1-.12.14-.18A.32.32,0,0,1,65.64,2a.64.64,0,0,1,.6.86,4.73,4.73,0,0,1-.26.68c-.68,1.52-1.38,3-2.06,4.57-.4.88-.8,1.78-1.22,2.66-.16.38-.3.76-.44,1.14A3.68,3.68,0,0,0,62,13.25a2.25,2.25,0,0,0,.06.36c0,.08.22.18.3.18a1.09,1.09,0,0,0,.56-.24A6,6,0,0,0,64.32,12c.18-.26.34-.56.52-.82a.62.62,0,0,1,.18-.14.13.13,0,0,1,.12,0,.17.17,0,0,1,.14.16.51.51,0,0,1,0,.24,7.18,7.18,0,0,1-1.56,2.16,4.05,4.05,0,0,1-.88.66,2.35,2.35,0,0,1-.8.26A1,1,0,0,1,61,14Zm-1.62-.38a6.39,6.39,0,0,0,.54-.5,9.32,9.32,0,0,0,1.92-3.62,3.19,3.19,0,0,0,.08-1c0-.08-.06-.16-.08-.24a.23.23,0,0,0-.28-.14,2.25,2.25,0,0,0-.24.08,2.48,2.48,0,0,0-.72.65,9.35,9.35,0,0,0-1.83,3.4c-.07.28-.09.56-.13.8a3.37,3.37,0,0,1,0,.4.33.33,0,0,0,.36.26A1,1,0,0,0,59.36,13.61Z"/><path class="cls-1" d="M64.28,13.81a4.15,4.15,0,0,1,0-.42,4.86,4.86,0,0,1,.35-1.84A8.73,8.73,0,0,1,66,9.13,5.34,5.34,0,0,1,67.26,8a2.15,2.15,0,0,1,.88-.37,1,1,0,0,1,1.22.76A5.51,5.51,0,0,1,68.52,12,8,8,0,0,1,67,13.93C66.24,14.63,64.58,15.33,64.28,13.81Zm2.34-.38a13.63,13.63,0,0,0,1.2-1.62,5.11,5.11,0,0,0,.9-3.06c0-.2-.16-.39-.38-.35a1.7,1.7,0,0,0-.34.12,5.71,5.71,0,0,0-1.52,2.07,7.51,7.51,0,0,0-1,2.56.88.88,0,0,0,.1.64C65.86,14.23,66.4,13.67,66.62,13.43Z"/><path class="cls-1" d="M71.68,13.63a1.52,1.52,0,0,0,0-.32,2.88,2.88,0,0,1,.16-.88c.24-.78.5-1.56.74-2.34a3.09,3.09,0,0,0,.12-.46,1,1,0,0,0,0-.24A.51.51,0,0,0,72.4,9a8.27,8.27,0,0,0-.8-.26.4.4,0,0,0-.5.26c-.16.32-.28.66-.44,1s-.64,1.32-.92,1.76a.22.22,0,0,1-.32,0c-.09-.06-.13-.08-.1-.18a8.61,8.61,0,0,1,.47-1l.91-2a1.7,1.7,0,0,0,.16-1A2.85,2.85,0,0,1,71,6.54a.65.65,0,0,1,.88-.42l.1.06s.06.08.06.1a2.2,2.2,0,0,1,0,.36c0,.66.18,1,.9,1.12a1.05,1.05,0,0,1,.24.06.72.72,0,0,1,.22.08.93.93,0,0,1,.64.82,1.33,1.33,0,0,1,0,.49c-.08.35-.2.72-.3,1L73,12.35a3.91,3.91,0,0,0-.2,1,2.25,2.25,0,0,0,.06.36.37.37,0,0,0,.28.2.74.74,0,0,0,.46-.1,5.64,5.64,0,0,0,1.3-1.28c.3-.4.52-.84.78-1.24a.37.37,0,0,1,.2-.14.24.24,0,0,1,.22.08s0,.08,0,.12a.15.15,0,0,1,0,.1,7.26,7.26,0,0,1-1.78,2.46,4.42,4.42,0,0,1-.8.56,1.73,1.73,0,0,1-.7.18A1.06,1.06,0,0,1,71.68,13.63Z"/><path class="cls-1" d="M75.2,13.81c0-.24-.07-.48-.08-.62a4.42,4.42,0,0,1,.21-1.3A8.63,8.63,0,0,1,77,8.9a6.2,6.2,0,0,1,1.28-1.12,2.81,2.81,0,0,1,.68-.26,1.18,1.18,0,0,1,1,.2l.18.17a.26.26,0,0,0,.32-.07c.06-.06.1-.14.16-.2a.63.63,0,0,1,.78.08.93.93,0,0,1,.1.2.69.69,0,0,1,0,.49,2.63,2.63,0,0,1-.16.45l-1,2.13a13.24,13.24,0,0,0-.48,1.24,3.55,3.55,0,0,0-.16,1.2,1,1,0,0,0,0,.24.36.36,0,0,0,.46.24,2.8,2.8,0,0,0,.52-.32A6.23,6.23,0,0,0,82.1,12a5.7,5.7,0,0,1,.52-.82c.06-.06.16-.1.22-.06s.1.12.14.18,0,.08,0,.12a.28.28,0,0,1,0,.12,7.53,7.53,0,0,1-1.64,2.24,4.19,4.19,0,0,1-1.12.74l-.22.08A1.05,1.05,0,0,1,78.64,14c-.06-.14-.06-.32-.18-.44a.19.19,0,0,0-.22,0c-.2.14-.38.3-.58.46a3.38,3.38,0,0,1-.94.54,2.05,2.05,0,0,1-.48.1A1,1,0,0,1,75.2,13.81Zm2.3-.46a9.14,9.14,0,0,0,2-3.72,2.46,2.46,0,0,0,.06-1.08.35.35,0,0,0-.36-.27,1,1,0,0,0-.34.12,4.28,4.28,0,0,0-.84.86,9.16,9.16,0,0,0-1.58,3.15,4.29,4.29,0,0,0-.12.74v.34a.25.25,0,0,1,0,.12.36.36,0,0,0,.46.26A2.92,2.92,0,0,0,77.5,13.35Z"/><path class="cls-1" d="M93,16.45A3.5,3.5,0,0,1,90.84,15a4,4,0,0,1-.58-1.22,5.4,5.4,0,0,1,.1-3.59A7.08,7.08,0,0,1,92.88,6.8a6,6,0,0,1,2-1c.32-.08.64-.16,1-.22.14,0,.22-.14.18-.24a7.16,7.16,0,0,0-.22-.7,2.55,2.55,0,0,1-.08-1.1A4.92,4.92,0,0,1,96,2.52a3.34,3.34,0,0,1,1-1.34A6.27,6.27,0,0,1,99.56.06a4.29,4.29,0,0,1,1.34,0,2,2,0,0,1,1.72,1.36,1.57,1.57,0,0,1,0,1,1.81,1.81,0,0,1-.22.44,2.65,2.65,0,0,1-1,.92,2.82,2.82,0,0,1-1.36.5A.3.3,0,0,1,99.8,4a.2.2,0,0,1,.06-.22.53.53,0,0,1,.2-.12,3.19,3.19,0,0,0,.46-.2,1.64,1.64,0,0,0,.88-1.24V2.14a1.34,1.34,0,0,0-.42-1,1.24,1.24,0,0,0-1.36-.3,4.49,4.49,0,0,0-.54.26,4.94,4.94,0,0,0-1.92,2.32,3.88,3.88,0,0,0-.26,1.08,1.42,1.42,0,0,0,.14.7.73.73,0,0,0,.4.44l.56.22a.37.37,0,0,1,.14.2.2.2,0,0,1-.1.2,1,1,0,0,1-.48.06,6,6,0,0,0-2.24.55,6.9,6.9,0,0,0-2.56,1.83,5.69,5.69,0,0,0-1.24,2.49,7,7,0,0,0-.08,1.58,4.17,4.17,0,0,0,.24,1.32,2.68,2.68,0,0,0,1.9,1.74,1.13,1.13,0,0,0,.36.06,3.92,3.92,0,0,0,2.14-.34,5.26,5.26,0,0,0,2-1.52A3.55,3.55,0,0,0,99,12.31a2.49,2.49,0,0,0-2-3l-.6-.11c-.06,0-.1-.12-.14-.17a.23.23,0,0,1,.18-.26,3.32,3.32,0,0,1,1,0,7.22,7.22,0,0,0,2.74-.45l.34-.13A4.2,4.2,0,0,0,103,5.12a4,4,0,0,1,.16-.7.5.5,0,0,1,.28-.22,3,3,0,0,1,.74,0,.36.36,0,0,1,.24.24s0,.08,0,.12a4.73,4.73,0,0,1-2.16,3.78,5.39,5.39,0,0,1-1.68.7c-.36.11-.72.19-1.06.28-.1,0-.12.11-.06.21s.22.32.34.48a2.69,2.69,0,0,1,.5,1.5c0,.24,0,.48,0,.72a3.34,3.34,0,0,1-.66,1.8,4.66,4.66,0,0,1-1.16,1.1,7.77,7.77,0,0,1-3,1.26,4,4,0,0,0-.48.08A4.54,4.54,0,0,1,93,16.45Z"/><path class="cls-1" d="M13.62,34.09c-3.52,0-5.48-1.26-6.42-3.18l2.12-1.34a5.21,5.21,0,0,0,4.4,2.2c1.82,0,2.6-.68,2.6-1.32s-.36-.92-1.5-1.32l-4-1.45c-2.32-.84-2.94-2.16-2.94-3.86,0-2.1,2-4.26,6.14-4.26,3,0,4.94,1.28,5.88,3L18,23.88a4.91,4.91,0,0,0-3.86-2c-1.62,0-2.46.82-2.46,1.36s.26.92,1.5,1.36l3.26,1.16c2.38.84,3.9,2.07,3.9,3.95C20.36,32.21,18.28,34.09,13.62,34.09Z"/><path class="cls-1" d="M26.58,19.82h4.14l5.62,14H32.2l-1.12-2.78H24.94l-1.12,2.78H21Zm-.64,8.73h4.14L28,23.38Z"/><path class="cls-1" d="M37.74,19.82h3.8V31.33H48v2.5H37.74Z"/><path class="cls-1" d="M55.78,34.09c-3.52,0-5.48-1.26-6.42-3.18l2.12-1.34a5.21,5.21,0,0,0,4.4,2.2c1.82,0,2.6-.68,2.6-1.32s-.36-.92-1.5-1.32l-4-1.45C50.64,26.84,50,25.52,50,23.82c0-2.1,2-4.26,6.14-4.26,3,0,4.94,1.28,5.88,3l-1.86,1.32a4.91,4.91,0,0,0-3.86-2c-1.62,0-2.46.82-2.46,1.36s.26.92,1.5,1.36l3.26,1.16c2.38.84,3.9,2.07,3.9,3.95C62.52,32.21,60.44,34.09,55.78,34.09Z"/><path class="cls-1" d="M68.74,19.82h4.14l5.62,14H74.36l-1.12-2.78H67.1L66,33.83H63.12Zm-.64,8.73h4.14l-2.06-5.17Z"/><path class="cls-1" d="M83.84,19.82,88.12,29l4.5-9.13h3.62v14h-3.8v-7.7l-3.78,7.7H86.18L82.6,26.2v7.63H79.9v-14Z"/><path class="cls-1" d="M108.76,19.82v2.5h-6.92v3.24h5.48v2.5h-5.48v3.27h6.92v2.5H98v-14Z"/><path class="cls-1" d="M114.36,19.82,120.58,29V19.82h2.7v14h-4l-6-8.89v8.89h-2.7v-14Z"/><path class="cls-1" d="M136.84,19.82v2.5h-4V33.83h-3.81V22.32h-4v-2.5Z"/><path class="cls-1" d="M141.66,19.82h4.14l5.62,14h-4.14l-1.12-2.78H140l-1.12,2.78H136ZM141,28.55h4.14l-2.06-5.17Z"/><path class="cls-1" d="M152.81,19.82h6.33c3.7,0,6,1.92,6,5.26a4.8,4.8,0,0,1-2.6,4.55l2.8,4.2h-4.42l-2.32-3.48h-2v3.48h-3.81Zm3.81,8h1.28c2.24,0,3.36-.75,3.36-2.76s-1.12-2.76-3.36-2.76h-1.28Z"/><path class="cls-1" d="M170.66,33.83h-3.81v-14h3.81Z"/><path class="cls-1" d="M177.67,19.82h4.15l5.62,14H183.3l-1.12-2.78H176l-1.12,2.78h-2.86ZM177,28.55h4.14l-2.06-5.17Z"/><rect class="cls-1" x="129.21" y="40.02" width="60.91" height="10.96" rx="5.18"/><circle class="cls-2" cx="135.34" cy="45.5" r="4.18"/><path class="cls-1" d="M134.64,46.42l.71-.7c.1-.09.07-.14,0-.22l-1-1c-.28-.28-.29-.37,0-.67.47-.41.47-.41.92,0s1,1,1.49,1.49c.22.22.23.37,0,.59L135,47.59c-.21.22-.37.21-.58,0-.45-.47-.45-.47,0-.93A2.39,2.39,0,0,0,134.64,46.42Z"/><path class="cls-2" d="M141.83,46.94a.35.35,0,0,1-.36.39.37.37,0,0,1-.37-.39l.17-1.93h.39Zm-.36-2.29a.37.37,0,0,0,0-.74.37.37,0,1,0,0,.74Z"/><path class="cls-2" d="M143,44v1.46h1.49V44h.73v3.29h-.73V45.85H143v1.41h-.73V44Z"/><path class="cls-2" d="M146.88,44h.81L149,47.26h-.81l-.31-.77h-1.51l-.31.77h-.51Zm.84,2.1-.58-1.46-.59,1.46Z"/><path class="cls-2" d="M151.8,44v.43l-1.57,2.44h1.57v.42h-2.46v-.42l1.56-2.44h-1.56V44Z"/><path class="cls-2" d="M156,44v.43h-.93v2.86h-.73V44.4h-.94V44Z"/><path class="cls-2" d="M156.42,46V44h.73v2a.77.77,0,1,0,1.53,0V44h.42v2a1.34,1.34,0,1,1-2.68,0Z"/><path class="cls-2" d="M160.7,47.26V44H162c.87,0,1.42.37,1.42,1.16s-.55,1.16-1.42,1.16h-.59v1Zm.73-1.39h.46c.53,0,.79-.27.79-.74s-.26-.73-.79-.73h-.46Z"/><path class="cls-2" d="M166.19,44v.43h-1.63v1h1.29v.42h-1.29v1h1.63v.42h-2.35V44Z"/><path class="cls-2" d="M167.64,44a1.65,1.65,0,1,1,0,3.29h-1V44Zm-.3.43v2.44h.31c.6,0,1-.45,1-1.23s-.42-1.21-1-1.21Z"/><path class="cls-2" d="M170.55,47.26h-.73V44h.73Z"/><path class="cls-2" d="M172,44a1.65,1.65,0,1,1,0,3.29h-1V44Zm-.3.43v2.44H172c.59,0,1-.45,1-1.23s-.43-1.21-1-1.21Z"/><path class="cls-2" d="M175.8,43.91a1.71,1.71,0,1,1-1.64,1.71A1.57,1.57,0,0,1,175.8,43.91Zm0,3c.53,0,.89-.49.89-1.28s-.36-1.29-.89-1.29-.89.49-.89,1.29S175.27,46.9,175.8,46.9Z"/><path class="cls-2" d="M179,44h.9l1,1.61.95-1.61h.52L181,46.16v1.1h-.73v-1.1Z"/><path class="cls-2" d="M183.14,44h.8l1.33,3.29h-.81l-.31-.77h-1.52l-.31.77h-.51Zm.84,2.1-.59-1.46-.59,1.46Z"/><path class="cls-2" d="M186.18,46.23h-.39l-.17-1.93a.35.35,0,0,1,.36-.39.36.36,0,0,1,.37.39Zm-.2,1.1a.37.37,0,0,0,0-.74.37.37,0,0,0,0,.74Z"/><rect class="cls-1" x="0.06" y="74.58" width="191.73" height="43.05" rx="14.7"/><path class="cls-3" d="M12.7,94.58H179.34A12.64,12.64,0,0,1,192,107.22h0a12.64,12.64,0,0,1-12.64,12.63H12.7A12.64,12.64,0,0,1,.06,107.22h0A12.64,12.64,0,0,1,12.7,94.58Z"/><path class="cls-2" d="M111.34,102.26a3.73,3.73,0,0,0-2.06-1,1.58,1.58,0,0,1-.65-.1H107.5a3.25,3.25,0,0,0-1,.14,4.77,4.77,0,0,0-3.16,4.48,6.26,6.26,0,0,0,.63,2.79,14.11,14.11,0,0,0,3.37,4.34,1.52,1.52,0,0,0,.72.38h.38a1.22,1.22,0,0,0,.51-.28c.4-.36.78-.74,1.13-1.12a17.39,17.39,0,0,0,2-2.63,7.23,7.23,0,0,0,1-3.19,4.83,4.83,0,0,0-1.69-3.92h0Zm-3.17,6.07a2.38,2.38,0,0,1,0-4.76h0a2.39,2.39,0,0,1-.08,4.76Z"/><circle class="cls-4" cx="56.01" cy="84.47" r="6.44"/><g id="WA_Logo" data-name="WA Logo"><path class="cls-5" d="M58.48,81.87A3.49,3.49,0,0,0,53,86.08l-.49,1.8,1.86-.48a3.45,3.45,0,0,0,1.66.43h0a3.49,3.49,0,0,0,2.48-6ZM56,87.24h0a2.87,2.87,0,0,1-1.48-.41l-.1-.06-1.11.29L53.6,86l-.07-.11A2.89,2.89,0,1,1,56,87.24Zm1.6-2.16c-.08,0-.51-.25-.62-.28s-.14,0-.19,0l-.28.34c0,.06-.1.06-.19,0a2.4,2.4,0,0,1-.7-.43,2.64,2.64,0,0,1-.48-.62c0-.09,0-.13,0-.17l.13-.16a.53.53,0,0,0,.08-.15.14.14,0,0,0,0-.15s-.2-.47-.26-.65-.15-.14-.2-.15h-.17a.34.34,0,0,0-.23.11,1,1,0,0,0-.31.73,1.66,1.66,0,0,0,.36.9,3.84,3.84,0,0,0,1.49,1.31,2.92,2.92,0,0,0,.49.19,1.46,1.46,0,0,0,.55,0,.91.91,0,0,0,.59-.42.72.72,0,0,0,0-.41A.36.36,0,0,0,57.6,85.08Z"/></g><path class="cls-2" d="M24.35,102.5a3.73,3.73,0,0,0-2.06-1,1.58,1.58,0,0,1-.65-.1H20.51a3.25,3.25,0,0,0-1,.14,4.77,4.77,0,0,0-3.16,4.48,6.26,6.26,0,0,0,.63,2.79,14.11,14.11,0,0,0,3.37,4.34,1.52,1.52,0,0,0,.72.38h.38a1.32,1.32,0,0,0,.52-.28c.39-.36.77-.74,1.12-1.12a17.39,17.39,0,0,0,2-2.63,7.23,7.23,0,0,0,1-3.19,4.83,4.83,0,0,0-1.69-3.92h0Zm-3.17,6.07a2.38,2.38,0,0,1,0-4.76h0a2.39,2.39,0,0,1-.08,4.76Z"/><path class="cls-6" d="M67.7,81.4a2.55,2.55,0,0,1,1.7-.54,2.87,2.87,0,0,1,1.23.25,1.84,1.84,0,0,1,.77.68,1.79,1.79,0,0,1,.26,1,1.64,1.64,0,0,1-.32,1,1.56,1.56,0,0,1-.76.58v0a1.66,1.66,0,0,1,.89.63,2,2,0,0,1,.32,1.16,2.06,2.06,0,0,1-.27,1.06,1.81,1.81,0,0,1-.8.72,2.73,2.73,0,0,1-1.26.26,2.79,2.79,0,0,1-1.82-.56,2.11,2.11,0,0,1-.74-1.65h1.34a1.12,1.12,0,0,0,.33.77,1.22,1.22,0,0,0,.86.29.95.95,0,0,0,1-1,1,1,0,0,0-.37-.85A2.11,2.11,0,0,0,68.93,85h-.28V83.87h.28c.94,0,1.4-.31,1.4-.94a.86.86,0,0,0-.25-.66,1,1,0,0,0-.72-.23,1,1,0,0,0-.72.25,1,1,0,0,0-.29.63H67A2,2,0,0,1,67.7,81.4Z"/><path class="cls-6" d="M73.32,86.66c.63-.53,1.13-1,1.51-1.32a6.25,6.25,0,0,0,.93-1.1,2,2,0,0,0,.38-1.12,1.18,1.18,0,0,0-.24-.79.89.89,0,0,0-.73-.28.92.92,0,0,0-.76.33,1.44,1.44,0,0,0-.27.9H72.8a2.25,2.25,0,0,1,2.39-2.41,2.35,2.35,0,0,1,1.73.6,2.12,2.12,0,0,1,.6,1.57,2.83,2.83,0,0,1-.42,1.47,5.81,5.81,0,0,1-.94,1.22c-.36.34-.82.76-1.39,1.24h2.91v1.15H72.81v-1Z"/><path class="cls-6" d="M78.37,82.3V81h2.38v7.18H79.33V82.3Z"/><path class="cls-6" d="M82.05,86.82V85.73l3.22-4.61h1.61v4.49h.87v1.21h-.87v1.39H85.5V86.82Zm3.54-4.22-2,3h2Z"/><path class="cls-6" d="M90.58,86.86a1.18,1.18,0,0,0,.75.23.93.93,0,0,0,.89-.51,3.69,3.69,0,0,0,.28-1.71,1.48,1.48,0,0,1-.64.5,2.3,2.3,0,0,1-.88.17,2.39,2.39,0,0,1-1.14-.26,1.88,1.88,0,0,1-.8-.78,2.44,2.44,0,0,1-.3-1.25,2.35,2.35,0,0,1,.65-1.74,2.43,2.43,0,0,1,1.78-.65,2.15,2.15,0,0,1,2,.9,5,5,0,0,1,.58,2.7,8.19,8.19,0,0,1-.22,2.1,2.29,2.29,0,0,1-.76,1.24,2.32,2.32,0,0,1-1.46.42A2.57,2.57,0,0,1,90,87.94a1.92,1.92,0,0,1-.78-.74,2.3,2.3,0,0,1-.31-1h1.28A1,1,0,0,0,90.58,86.86Zm1.49-2.75a1.41,1.41,0,0,0,0-1.75,1.1,1.1,0,0,0-.84-.32,1.11,1.11,0,0,0-.85.33,1.25,1.25,0,0,0-.31.87,1.21,1.21,0,0,0,.3.85,1.18,1.18,0,0,0,.91.33A1,1,0,0,0,92.07,84.11Z"/><path class="cls-6" d="M98.18,82.2a1,1,0,0,0-.7-.2,1.09,1.09,0,0,0-1,.54,3.86,3.86,0,0,0-.33,1.78,1.58,1.58,0,0,1,.69-.61,2.22,2.22,0,0,1,1-.23,2.31,2.31,0,0,1,1.13.28,1.86,1.86,0,0,1,.77.8,2.67,2.67,0,0,1,.28,1.27,2.8,2.8,0,0,1-.28,1.25,2,2,0,0,1-.83.85,2.62,2.62,0,0,1-1.29.3A2.59,2.59,0,0,1,96,87.78a2.37,2.37,0,0,1-.82-1.27,7.59,7.59,0,0,1-.23-2,5,5,0,0,1,.62-2.73,2.57,2.57,0,0,1,3.57-.36,2.27,2.27,0,0,1,.66,1.4H98.52A1.2,1.2,0,0,0,98.18,82.2Zm-1.54,2.72a1.11,1.11,0,0,0-.36.89,1.15,1.15,0,0,0,1.26,1.25,1.15,1.15,0,0,0,.85-.32,1.26,1.26,0,0,0,.31-.88,1.33,1.33,0,0,0-.3-.91,1.15,1.15,0,0,0-.89-.33A1.3,1.3,0,0,0,96.64,84.92Z"/><path class="cls-6" d="M103.06,86.86a1.18,1.18,0,0,0,.75.23.93.93,0,0,0,.89-.51,3.83,3.83,0,0,0,.28-1.71,1.61,1.61,0,0,1-.64.5,2.34,2.34,0,0,1-.88.17,2.39,2.39,0,0,1-1.14-.26,1.82,1.82,0,0,1-.8-.78,2.44,2.44,0,0,1-.3-1.25,2.35,2.35,0,0,1,.65-1.74,2.41,2.41,0,0,1,1.77-.65,2.16,2.16,0,0,1,2,.9,5,5,0,0,1,.58,2.7,8.66,8.66,0,0,1-.22,2.1,2.06,2.06,0,0,1-2.23,1.66,2.52,2.52,0,0,1-1.24-.28,1.92,1.92,0,0,1-.78-.74,2.18,2.18,0,0,1-.31-1h1.28A1,1,0,0,0,103.06,86.86Zm1.49-2.75a1.21,1.21,0,0,0,.3-.85,1.26,1.26,0,0,0-.31-.9,1.26,1.26,0,0,0-1.69,0,1.37,1.37,0,0,0,0,1.72,1.16,1.16,0,0,0,.9.33A1.06,1.06,0,0,0,104.55,84.11Z"/><path class="cls-6" d="M108,81.4a2.55,2.55,0,0,1,1.7-.54,2.87,2.87,0,0,1,1.23.25,1.84,1.84,0,0,1,.77.68,1.79,1.79,0,0,1,.26,1,1.64,1.64,0,0,1-.32,1,1.56,1.56,0,0,1-.76.58v0a1.66,1.66,0,0,1,.89.63,2,2,0,0,1,.32,1.16,2.06,2.06,0,0,1-.27,1.06,1.81,1.81,0,0,1-.8.72,2.73,2.73,0,0,1-1.26.26,2.79,2.79,0,0,1-1.82-.56,2.11,2.11,0,0,1-.74-1.65h1.34a1.12,1.12,0,0,0,.33.77,1.22,1.22,0,0,0,.86.29.95.95,0,0,0,1-1,1,1,0,0,0-.37-.85,2.11,2.11,0,0,0-1.17-.26h-.28V83.87h.28c.94,0,1.4-.31,1.4-.94a.86.86,0,0,0-.25-.66,1,1,0,0,0-.72-.23,1,1,0,0,0-.72.25,1,1,0,0,0-.29.63h-1.35A2,2,0,0,1,108,81.4Z"/><path class="cls-6" d="M113.39,82.82a1.84,1.84,0,0,1,.27-1,2,2,0,0,1,.82-.7,3.17,3.17,0,0,1,1.34-.26,3.12,3.12,0,0,1,1.33.26,1.91,1.91,0,0,1,.82.7,1.84,1.84,0,0,1,.27,1,1.68,1.68,0,0,1-.27,1,1.73,1.73,0,0,1-.7.64,1.92,1.92,0,0,1,.84.69,1.82,1.82,0,0,1,.31,1.07,2.07,2.07,0,0,1-.34,1.17,2.27,2.27,0,0,1-.93.77,3.36,3.36,0,0,1-1.33.26,3.29,3.29,0,0,1-1.33-.26,2.27,2.27,0,0,1-.93-.77,2.07,2.07,0,0,1-.34-1.17,1.9,1.9,0,0,1,.31-1.07,1.82,1.82,0,0,1,.85-.69A1.68,1.68,0,0,1,113.39,82.82Zm1.51,2.48a1,1,0,0,0-.35.82,1.07,1.07,0,0,0,.34.8,1.32,1.32,0,0,0,.93.31,1.28,1.28,0,0,0,.91-.32,1,1,0,0,0,.34-.79,1,1,0,0,0-.35-.82,1.37,1.37,0,0,0-.9-.29A1.43,1.43,0,0,0,114.9,85.3Zm1.71-3a1.11,1.11,0,0,0-.79-.26,1.13,1.13,0,0,0-.79.26,1,1,0,0,0-.29.76.9.9,0,0,0,.3.71,1.25,1.25,0,0,0,1.55,0,.91.91,0,0,0,.31-.72A1,1,0,0,0,116.61,82.27Z"/><path class="cls-6" d="M124.08,82.07l-2.62,6.14h-1.4l2.65-6h-3.38V81.05h4.75Z"/><path class="cls-1" d="M29.3,103.57a2.51,2.51,0,0,1,1-1,2.8,2.8,0,0,1,1.42-.36,2.75,2.75,0,0,1,1.61.47,2.49,2.49,0,0,1,1,1.31H33a1.28,1.28,0,0,0-.53-.59,1.48,1.48,0,0,0-.79-.2,1.64,1.64,0,0,0-.86.22,1.57,1.57,0,0,0-.58.64,2.28,2.28,0,0,0,0,1.91,1.57,1.57,0,0,0,.58.64,1.65,1.65,0,0,0,.86.23,1.48,1.48,0,0,0,.79-.21,1.33,1.33,0,0,0,.53-.59H34.3a2.49,2.49,0,0,1-1,1.31,3,3,0,0,1-3,.11,2.57,2.57,0,0,1-1-1,2.82,2.82,0,0,1-.37-1.45A2.86,2.86,0,0,1,29.3,103.57Z"/><path class="cls-1" d="M36.34,102v5.82h-1.1V102Z"/><path class="cls-1" d="M38.53,102v5.82h-1.1V102Z"/><path class="cls-1" d="M39.61,107.65a.65.65,0,0,1,0-.92.71.71,0,0,1,.5-.18.64.64,0,0,1,.47.18.65.65,0,0,1,0,.92.61.61,0,0,1-.47.19A.68.68,0,0,1,39.61,107.65Z"/><path class="cls-1" d="M43.28,103.06v-1h1.89v5.74H44v-4.72Z"/><path class="cls-1" d="M49,103a.82.82,0,0,0-.55-.16.86.86,0,0,0-.8.43,3,3,0,0,0-.26,1.42,1.2,1.2,0,0,1,.55-.49,1.72,1.72,0,0,1,.78-.18,1.91,1.91,0,0,1,.91.22,1.53,1.53,0,0,1,.61.65,2.09,2.09,0,0,1,.22,1,2.12,2.12,0,0,1-.22,1,1.6,1.6,0,0,1-.66.68,2,2,0,0,1-1,.25,2.08,2.08,0,0,1-1.29-.36,1.91,1.91,0,0,1-.65-1,6,6,0,0,1-.18-1.6,3.89,3.89,0,0,1,.49-2.17,1.76,1.76,0,0,1,1.57-.74,1.74,1.74,0,0,1,1.28.45,1.82,1.82,0,0,1,.53,1.12h-1A.9.9,0,0,0,49,103Zm-1.23,2.17a.89.89,0,0,0-.28.71,1,1,0,0,0,.26.73,1,1,0,0,0,.74.27.91.91,0,0,0,.68-.26,1,1,0,0,0,.25-.7,1,1,0,0,0-.24-.72.91.91,0,0,0-.71-.27A1,1,0,0,0,47.73,105.15Z"/><path class="cls-1" d="M51.87,102.34a2,2,0,0,1,1.35-.43,2.27,2.27,0,0,1,1,.2,1.5,1.5,0,0,1,.62.54,1.56,1.56,0,0,1,.2.78,1.37,1.37,0,0,1-.25.84,1.28,1.28,0,0,1-.61.46v0a1.31,1.31,0,0,1,.71.5,1.57,1.57,0,0,1,.26.93,1.64,1.64,0,0,1-.22.84,1.45,1.45,0,0,1-.64.58,2.22,2.22,0,0,1-1,.21,2.26,2.26,0,0,1-1.45-.45,1.68,1.68,0,0,1-.59-1.32H52.3a.85.85,0,0,0,.27.62,1,1,0,0,0,.68.23.75.75,0,0,0,.83-.8.76.76,0,0,0-.3-.68,1.65,1.65,0,0,0-.93-.2h-.22v-.91h.22c.75,0,1.12-.25,1.12-.75a.65.65,0,0,0-.2-.52.8.8,0,0,0-.58-.19.76.76,0,0,0-.57.2.81.81,0,0,0-.23.51H51.31A1.61,1.61,0,0,1,51.87,102.34Z"/><path class="cls-1" d="M56.12,104.41a1.9,1.9,0,0,1,1.72-1.06,1.82,1.82,0,0,1,.86.2,1.65,1.65,0,0,1,.58.49v-.62h1.11v4.36H59.28v-.64a1.52,1.52,0,0,1-.58.51,1.73,1.73,0,0,1-.86.2,1.85,1.85,0,0,1-1-.28,2,2,0,0,1-.71-.8,2.71,2.71,0,0,1,0-2.36Zm3,.5a1.14,1.14,0,0,0-.43-.44,1.16,1.16,0,0,0-.57-.15,1.1,1.1,0,0,0-.57.15,1.12,1.12,0,0,0-.42.44,1.32,1.32,0,0,0-.16.68,1.34,1.34,0,0,0,.16.68,1.25,1.25,0,0,0,.42.46,1.16,1.16,0,0,0,1.14,0,1.14,1.14,0,0,0,.43-.44,1.66,1.66,0,0,0,0-1.38Z"/><path class="cls-1" d="M68.18,104.25l-.26,1.21h1v1H67.71l-.28,1.34H66.38l.29-1.34H65.23L65,107.78h-1l.28-1.34H63v-1h1.4l.26-1.21H63.49v-1h1.39l.27-1.3h1l-.27,1.3h1.43l.28-1.3h1l-.27,1.3h1v1Zm-1,0H65.71l-.26,1.21h1.43Z"/><path class="cls-1" d="M70.37,103.48a1.42,1.42,0,0,1,.22-.78,1.51,1.51,0,0,1,.65-.56,2.46,2.46,0,0,1,1.07-.21,2.49,2.49,0,0,1,1.07.21,1.57,1.57,0,0,1,.65.56,1.5,1.5,0,0,1,.21.78,1.38,1.38,0,0,1-.21.76,1.5,1.5,0,0,1-.56.5,1.58,1.58,0,0,1,.67.55,1.55,1.55,0,0,1,.25.86,1.58,1.58,0,0,1-.28.94,1.79,1.79,0,0,1-.74.61,2.78,2.78,0,0,1-2.12,0,1.86,1.86,0,0,1-.74-.61,1.65,1.65,0,0,1-.27-.94,1.52,1.52,0,0,1,.24-.86,1.54,1.54,0,0,1,.68-.55A1.34,1.34,0,0,1,70.37,103.48Zm1.21,2a.79.79,0,0,0-.28.66.84.84,0,0,0,.27.64,1.08,1.08,0,0,0,.74.24,1,1,0,0,0,.73-.25.83.83,0,0,0,.27-.63.78.78,0,0,0-.28-.65,1,1,0,0,0-.72-.24A1.14,1.14,0,0,0,71.58,105.45ZM72.94,103a.85.85,0,0,0-.63-.22.88.88,0,0,0-.63.22.78.78,0,0,0-.23.6.72.72,0,0,0,.24.57.91.91,0,0,0,.62.21.87.87,0,0,0,.62-.22.72.72,0,0,0,.24-.57A.74.74,0,0,0,72.94,103Z"/><path class="cls-1" d="M77.38,104.33h-.76v3.45H75.5v-3.45H75v-.91h.49v-.22A1.46,1.46,0,0,1,76,102a2,2,0,0,1,1.38-.35v.93a.76.76,0,0,0-.56.13.64.64,0,0,0-.16.51v.18h.76Z"/><path class="cls-1" d="M81.45,104.51v.93H78.12v-.93Z"/><path class="cls-1" d="M82.52,106.66v-.86l2.57-3.69h1.28v3.59h.69v1h-.69v1.12h-1.1v-1.12Zm2.82-3.36-1.61,2.4h1.61Z"/><path class="cls-1" d="M87.94,103.48a1.5,1.5,0,0,1,.21-.78,1.6,1.6,0,0,1,.66-.56,2.41,2.41,0,0,1,1.06-.21,2.46,2.46,0,0,1,1.07.21,1.51,1.51,0,0,1,.65.56,1.42,1.42,0,0,1,.22.78,1.38,1.38,0,0,1-.21.76,1.46,1.46,0,0,1-.57.5,1.45,1.45,0,0,1,.92,1.41,1.65,1.65,0,0,1-.27.94,1.86,1.86,0,0,1-.74.61,2.62,2.62,0,0,1-1.07.21,2.52,2.52,0,0,1-1.05-.21,1.79,1.79,0,0,1-.74-.61,1.58,1.58,0,0,1-.28-.94,1.53,1.53,0,0,1,.25-.86,1.49,1.49,0,0,1,.68-.55A1.33,1.33,0,0,1,87.94,103.48Zm1.21,2a.79.79,0,0,0-.28.66.84.84,0,0,0,.27.64,1.05,1.05,0,0,0,.73.24,1,1,0,0,0,.74-.25.86.86,0,0,0,.26-.63.8.8,0,0,0-.27-.65,1.09,1.09,0,0,0-.73-.24A1.11,1.11,0,0,0,89.15,105.45ZM90.51,103a.89.89,0,0,0-.64-.22.84.84,0,0,0-.62.22.75.75,0,0,0-.23.6.72.72,0,0,0,.24.57.89.89,0,0,0,.61.21.9.9,0,0,0,.63-.22.72.72,0,0,0,.24-.57A.78.78,0,0,0,90.51,103Z"/><path class="cls-1" d="M29.69,112.25a1.05,1.05,0,0,1-.43-.34.93.93,0,0,1-.16-.5h.48a.69.69,0,0,0,.2.41.74.74,0,0,0,.52.17.82.82,0,0,0,.51-.16.54.54,0,0,0,.18-.42.43.43,0,0,0-.11-.32.66.66,0,0,0-.27-.19l-.44-.14a3.94,3.94,0,0,1-.55-.18.86.86,0,0,1-.35-.28.79.79,0,0,1-.15-.51.84.84,0,0,1,.15-.5.89.89,0,0,1,.4-.34,1.4,1.4,0,0,1,.6-.12,1.19,1.19,0,0,1,.79.25.85.85,0,0,1,.35.64h-.49a.57.57,0,0,0-.21-.35.74.74,0,0,0-.49-.15.71.71,0,0,0-.46.15.48.48,0,0,0-.18.41.44.44,0,0,0,.11.3.68.68,0,0,0,.26.18c.11,0,.25.09.44.14a5.59,5.59,0,0,1,.55.19,1,1,0,0,1,.36.28.82.82,0,0,1,.15.52.92.92,0,0,1-.14.48.91.91,0,0,1-.39.36,1.35,1.35,0,0,1-.62.14A1.48,1.48,0,0,1,29.69,112.25Z"/><path class="cls-1" d="M32.11,110.23a1.15,1.15,0,0,1,.47-.48,1.2,1.2,0,0,1,.65-.18,1.12,1.12,0,0,1,.62.16,1,1,0,0,1,.39.38v-.49h.46v2.71h-.46v-.5a1,1,0,0,1-.39.39,1.17,1.17,0,0,1-.62.16,1.26,1.26,0,0,1-.66-.18,1.31,1.31,0,0,1-.46-.5,1.6,1.6,0,0,1-.17-.73A1.58,1.58,0,0,1,32.11,110.23Zm2,.2a.83.83,0,0,0-.33-.34.88.88,0,0,0-.47-.13.9.9,0,0,0-.46.12.86.86,0,0,0-.33.35,1.13,1.13,0,0,0-.13.54,1.2,1.2,0,0,0,.13.54.86.86,0,0,0,.33.35.9.9,0,0,0,.46.12,1,1,0,0,0,.47-.12.86.86,0,0,0,.33-.35,1.16,1.16,0,0,0,.12-.54A1.19,1.19,0,0,0,34.12,110.43Z"/><path class="cls-1" d="M37.59,109.87a1.13,1.13,0,0,1,.31.86v1.6h-.45V110.8a.93.93,0,0,0-.2-.63.75.75,0,0,0-.56-.21.72.72,0,0,0-.56.22.88.88,0,0,0-.22.65v1.5h-.45v-2.71h.45V110a1,1,0,0,1,.37-.32,1.19,1.19,0,0,1,.51-.11A1.09,1.09,0,0,1,37.59,109.87Z"/><path class="cls-1" d="M40,109.69a1.63,1.63,0,0,1,.62-.63,1.75,1.75,0,0,1,.88-.23,1.71,1.71,0,0,1,1,.28,1.58,1.58,0,0,1,.62.77h-.54a1.1,1.1,0,0,0-.42-.48,1.2,1.2,0,0,0-.64-.17,1.29,1.29,0,0,0-.65.17,1.1,1.1,0,0,0-.45.48,1.5,1.5,0,0,0-.17.72,1.47,1.47,0,0,0,.17.72,1.1,1.1,0,0,0,.45.48,1.34,1.34,0,0,0,1.29,0,1.16,1.16,0,0,0,.42-.48h.54a1.56,1.56,0,0,1-.62.76,1.78,1.78,0,0,1-1,.27,1.74,1.74,0,0,1-.88-.22,1.63,1.63,0,0,1-.62-.63,1.84,1.84,0,0,1-.23-.91A1.86,1.86,0,0,1,40,109.69Z"/><path class="cls-1" d="M44.58,109.7a1,1,0,0,1,.54-.13V110H45c-.51,0-.76.28-.76.83v1.47h-.45v-2.71h.45v.44A.79.79,0,0,1,44.58,109.7Z"/><path class="cls-1" d="M45.65,109.09a.31.31,0,0,1-.09-.22.31.31,0,0,1,.31-.31.29.29,0,0,1,.21.09.29.29,0,0,1,.09.22.31.31,0,0,1-.09.22.29.29,0,0,1-.21.09A.29.29,0,0,1,45.65,109.09Zm.44.53v2.71h-.45v-2.71Z"/><path class="cls-1" d="M47.26,112.27a.85.85,0,0,1-.39-.3.73.73,0,0,1-.16-.43h.46a.51.51,0,0,0,.19.33.8.8,0,0,0,.45.13.65.65,0,0,0,.41-.12.34.34,0,0,0,.15-.29.3.3,0,0,0-.16-.26,1.94,1.94,0,0,0-.49-.17,4.27,4.27,0,0,1-.5-.16,1,1,0,0,1-.32-.25.61.61,0,0,1-.14-.42.58.58,0,0,1,.13-.38.82.82,0,0,1,.35-.28,1.38,1.38,0,0,1,.52-.1,1.14,1.14,0,0,1,.73.23.82.82,0,0,1,.29.62h-.45a.45.45,0,0,0-.17-.34.66.66,0,0,0-.42-.13.61.61,0,0,0-.38.11.32.32,0,0,0-.15.27.29.29,0,0,0,.09.22.55.55,0,0,0,.22.14l.36.12a3.49,3.49,0,0,1,.48.15.87.87,0,0,1,.31.23.61.61,0,0,1,.14.4.67.67,0,0,1-.13.41.77.77,0,0,1-.35.28,1.36,1.36,0,0,1-.51.1A1.4,1.4,0,0,1,47.26,112.27Z"/><path class="cls-1" d="M50,110v1.6a.36.36,0,0,0,.09.28.42.42,0,0,0,.29.08h.33v.38h-.4a.79.79,0,0,1-.57-.17.74.74,0,0,1-.19-.57V110h-.35v-.37h.35v-.69H50v.69h.71V110Z"/><path class="cls-1" d="M51.74,112.2a1.22,1.22,0,0,1-.49-.49,1.58,1.58,0,0,1-.17-.74,1.5,1.5,0,0,1,.18-.74,1.28,1.28,0,0,1,.49-.49,1.53,1.53,0,0,1,1.4,0,1.28,1.28,0,0,1,.49.49,1.54,1.54,0,0,1,0,1.48,1.24,1.24,0,0,1-.5.49,1.44,1.44,0,0,1-.71.18A1.37,1.37,0,0,1,51.74,112.2Zm1.15-.33a.86.86,0,0,0,.34-.34,1.1,1.1,0,0,0,.13-.56,1.22,1.22,0,0,0-.12-.56.83.83,0,0,0-.34-.33.89.89,0,0,0-.45-.12.9.9,0,0,0-.46.12.87.87,0,0,0-.33.33,1.22,1.22,0,0,0-.12.56,1.19,1.19,0,0,0,.12.56.78.78,0,0,0,.33.34.93.93,0,0,0,.44.11A1,1,0,0,0,52.89,111.87Z"/><path class="cls-1" d="M55.28,109.73a1.13,1.13,0,0,1,.61-.16,1.26,1.26,0,0,1,.66.18,1.18,1.18,0,0,1,.46.48,1.58,1.58,0,0,1,.17.74,1.6,1.6,0,0,1-.17.73,1.26,1.26,0,0,1-.47.5,1.2,1.2,0,0,1-.65.18,1.15,1.15,0,0,1-.62-.16,1,1,0,0,1-.4-.39v.5h-.45v-3.67h.45v1.46A1,1,0,0,1,55.28,109.73Zm1.31.7a.86.86,0,0,0-.33-.35.94.94,0,0,0-.47-.12.87.87,0,0,0-.46.13.8.8,0,0,0-.33.35,1,1,0,0,0-.13.53,1.05,1.05,0,0,0,.13.54.86.86,0,0,0,.33.35,1,1,0,0,0,.46.12.94.94,0,0,0,.47-.12.86.86,0,0,0,.33-.35,1.2,1.2,0,0,0,.13-.54A1.13,1.13,0,0,0,56.59,110.43Z"/><path class="cls-1" d="M57.77,110.23a1.18,1.18,0,0,1,.46-.48,1.26,1.26,0,0,1,.66-.18,1.12,1.12,0,0,1,.62.16,1,1,0,0,1,.39.38v-.49h.46v2.71H59.9v-.5a1,1,0,0,1-.4.39,1.11,1.11,0,0,1-.61.16,1.26,1.26,0,0,1-.66-.18,1.31,1.31,0,0,1-.46-.5,1.6,1.6,0,0,1-.17-.73A1.58,1.58,0,0,1,57.77,110.23Zm2,.2a.86.86,0,0,0-.34-.34A.82.82,0,0,0,59,110a.9.9,0,0,0-.46.12.86.86,0,0,0-.33.35,1,1,0,0,0-.13.54,1.08,1.08,0,0,0,.13.54.86.86,0,0,0,.33.35.94.94,0,0,0,.92,0,.88.88,0,0,0,.34-.35,1.16,1.16,0,0,0,.12-.54A1.19,1.19,0,0,0,59.78,110.43Z"/><path class="cls-1" d="M61.57,108.66v3.67h-.45v-3.67Z"/><path class="cls-1" d="M116.46,103.3a2.67,2.67,0,0,1,1-1,3,3,0,0,1,3,.11,2.57,2.57,0,0,1,1,1.31H120.2a1.39,1.39,0,0,0-.53-.59,1.6,1.6,0,0,0-.79-.2,1.65,1.65,0,0,0-.86.23,1.54,1.54,0,0,0-.58.63,2.09,2.09,0,0,0-.21,1,2.12,2.12,0,0,0,.21,1,1.56,1.56,0,0,0,.58.64,1.64,1.64,0,0,0,.86.22,1.6,1.6,0,0,0,.79-.2,1.39,1.39,0,0,0,.53-.59h1.27a2.53,2.53,0,0,1-1,1.31,2.83,2.83,0,0,1-1.62.46,3,3,0,0,1-1.42-.35,2.67,2.67,0,0,1-1-1,3.1,3.1,0,0,1,0-2.9Z"/><path class="cls-1" d="M124.07,103.28a1.53,1.53,0,0,1,.78-.2v1.16h-.29a1.15,1.15,0,0,0-.79.24,1.17,1.17,0,0,0-.26.85v2.18h-1.1v-4.36h1.1v.67A1.53,1.53,0,0,1,124.07,103.28Z"/><path class="cls-1" d="M125.58,107.38a.66.66,0,0,1-.19-.46.63.63,0,0,1,.19-.46.68.68,0,0,1,.5-.19.65.65,0,0,1,.48.19.63.63,0,0,1,.19.46.66.66,0,0,1-.19.46.68.68,0,0,1-.48.18A.71.71,0,0,1,125.58,107.38Z"/><path class="cls-1" d="M129.25,102.78v-1h1.9v5.74H130v-4.73Z"/><path class="cls-1" d="M134.93,102.71a.8.8,0,0,0-.55-.17.87.87,0,0,0-.8.44,2.93,2.93,0,0,0-.26,1.42,1.2,1.2,0,0,1,.55-.49,1.73,1.73,0,0,1,.79-.18,1.77,1.77,0,0,1,.9.22,1.51,1.51,0,0,1,.61.64,2.12,2.12,0,0,1,.22,1,2.16,2.16,0,0,1-.22,1,1.6,1.6,0,0,1-.66.68,2.09,2.09,0,0,1-1,.24,2,2,0,0,1-1.28-.36,1.89,1.89,0,0,1-.66-1,6.08,6.08,0,0,1-.18-1.6,3.93,3.93,0,0,1,.49-2.18,2.07,2.07,0,0,1,2.85-.29,1.79,1.79,0,0,1,.53,1.12h-1A.94.94,0,0,0,134.93,102.71Zm-1.23,2.17a.88.88,0,0,0-.28.71.92.92,0,0,0,1,1,.9.9,0,0,0,.67-.26,1,1,0,0,0,.25-.7,1.05,1.05,0,0,0-.24-.73.91.91,0,0,0-.71-.27A1.07,1.07,0,0,0,133.7,104.88Z"/><path class="cls-1" d="M144.11,104l-.26,1.21h1v1h-1.22l-.28,1.34h-1l.29-1.34h-1.43l-.29,1.34h-1l.29-1.34h-1.19v-1h1.4l.26-1.21h-1.18v-1h1.39l.28-1.31h1l-.28,1.31h1.43l.28-1.31h1l-.27,1.31h1v1Zm-1.05,0h-1.43l-.26,1.21h1.43Z"/><path class="cls-1" d="M146,102.78v-1h1.89v5.74h-1.13v-4.73Z"/><path class="cls-1" d="M149.14,103.2a1.47,1.47,0,0,1,.22-.77,1.44,1.44,0,0,1,.65-.56,2.46,2.46,0,0,1,1.07-.21,2.49,2.49,0,0,1,1.07.21,1.44,1.44,0,0,1,.65.56,1.47,1.47,0,0,1,.22.77,1.31,1.31,0,0,1-.22.76,1.45,1.45,0,0,1-.56.51,1.49,1.49,0,0,1,.92,1.41,1.62,1.62,0,0,1-.27.93,1.74,1.74,0,0,1-.75.61,2.78,2.78,0,0,1-2.12,0,1.71,1.71,0,0,1-.74-.61,1.62,1.62,0,0,1-.27-.93,1.52,1.52,0,0,1,.24-.86,1.48,1.48,0,0,1,.68-.55A1.36,1.36,0,0,1,149.14,103.2Zm1.21,2a.81.81,0,0,0-.28.65.82.82,0,0,0,.27.64,1,1,0,0,0,.74.25,1,1,0,0,0,.73-.25.84.84,0,0,0,.27-.64.79.79,0,0,0-.28-.65,1.09,1.09,0,0,0-.72-.23A1.14,1.14,0,0,0,150.35,105.18Zm1.36-2.42a.89.89,0,0,0-.63-.21.92.92,0,0,0-.63.21.79.79,0,0,0-.23.61.71.71,0,0,0,.24.56.87.87,0,0,0,.62.22.92.92,0,0,0,.62-.22.73.73,0,0,0,.25-.57A.75.75,0,0,0,151.71,102.76Z"/><path class="cls-1" d="M156.73,102.71a.8.8,0,0,0-.55-.17.87.87,0,0,0-.8.44,2.93,2.93,0,0,0-.26,1.42,1.2,1.2,0,0,1,.55-.49,1.72,1.72,0,0,1,.78-.18,1.78,1.78,0,0,1,.91.22,1.51,1.51,0,0,1,.61.64,2.12,2.12,0,0,1,.22,1,2.16,2.16,0,0,1-.22,1,1.6,1.6,0,0,1-.66.68,2.42,2.42,0,0,1-2.32-.12,1.88,1.88,0,0,1-.65-1,6.08,6.08,0,0,1-.18-1.6,3.93,3.93,0,0,1,.49-2.18,2.07,2.07,0,0,1,2.85-.29,1.79,1.79,0,0,1,.53,1.12h-1A.94.94,0,0,0,156.73,102.71Zm-1.23,2.17a.88.88,0,0,0-.28.71.92.92,0,0,0,1,1,.9.9,0,0,0,.67-.26,1,1,0,0,0,.25-.7,1.05,1.05,0,0,0-.24-.73.91.91,0,0,0-.71-.27A1.05,1.05,0,0,0,155.5,104.88Z"/><path class="cls-1" d="M162.55,104.23v.93h-3.34v-.93Z"/><path class="cls-1" d="M164.15,102.43a2.11,2.11,0,0,1,3.26,0,4.83,4.83,0,0,1,0,4.28,2.09,2.09,0,0,1-3.26,0,4.92,4.92,0,0,1,0-4.28Zm2.59,1.15a1.26,1.26,0,0,0-.29-.65.89.89,0,0,0-.67-.25.87.87,0,0,0-.66.25,1.35,1.35,0,0,0-.3.65,5.46,5.46,0,0,0-.08,1,6.94,6.94,0,0,0,.07,1,1.31,1.31,0,0,0,.3.65,1,1,0,0,0,1.34,0,1.31,1.31,0,0,0,.3-.65,5.76,5.76,0,0,0,.07-1A5.46,5.46,0,0,0,166.74,103.58Z"/><path class="cls-1" d="M169.31,102.06a2.09,2.09,0,0,1,1.36-.42,2.12,2.12,0,0,1,1,.2,1.43,1.43,0,0,1,.62.54,1.46,1.46,0,0,1,.21.77,1.36,1.36,0,0,1-.26.84,1.23,1.23,0,0,1-.61.46v0a1.34,1.34,0,0,1,.71.51,1.51,1.51,0,0,1,.26.93,1.6,1.6,0,0,1-.22.84,1.42,1.42,0,0,1-.63.58,2.25,2.25,0,0,1-1,.21,2.22,2.22,0,0,1-1.45-.45,1.65,1.65,0,0,1-.59-1.32h1.07a.86.86,0,0,0,.26.61.94.94,0,0,0,.68.24.83.83,0,0,0,.62-.23.82.82,0,0,0,.22-.58.75.75,0,0,0-.3-.67,1.64,1.64,0,0,0-.93-.21h-.23V104h.23c.74,0,1.12-.25,1.12-.75a.68.68,0,0,0-.21-.53.81.81,0,0,0-.57-.19.77.77,0,0,0-.57.2.81.81,0,0,0-.24.51h-1.07A1.62,1.62,0,0,1,169.31,102.06Z"/><path class="cls-1" d="M119.83,108.86l-1.45,3.83h-.57l-1.45-3.83h.53l1.21,3.3,1.2-3.3Z"/><path class="cls-1" d="M123.11,111.37H120.7a.93.93,0,0,0,.31.69,1,1,0,0,0,.67.25.91.91,0,0,0,.54-.15.77.77,0,0,0,.31-.4h.54a1.3,1.3,0,0,1-.49.71,1.46,1.46,0,0,1-.9.27,1.49,1.49,0,0,1-.76-.2,1.34,1.34,0,0,1-.54-.54,1.8,1.8,0,0,1-.19-.82,1.63,1.63,0,0,1,.19-.82,1.24,1.24,0,0,1,.52-.54,1.7,1.7,0,0,1,1.54,0,1.34,1.34,0,0,1,.51.52,1.47,1.47,0,0,1,.18.74C123.13,111.16,123.12,111.26,123.11,111.37Zm-.63-.9a.73.73,0,0,0-.34-.31,1,1,0,0,0-1.13.13,1,1,0,0,0-.3.67h1.9A.88.88,0,0,0,122.48,110.47Z"/><path class="cls-1" d="M124.66,109.76a1.27,1.27,0,0,1,.6-.14v.52h-.13c-.56,0-.84.3-.84.91v1.64h-.5v-3h.5v.48A1,1,0,0,1,124.66,109.76Z"/><path class="cls-1" d="M126.79,109.8a1.26,1.26,0,0,1,.67-.17,1.41,1.41,0,0,1,.74.19,1.47,1.47,0,0,1,.51.54,1.73,1.73,0,0,1,.18.81,1.76,1.76,0,0,1-.18.81,1.39,1.39,0,0,1-1.25.76,1.37,1.37,0,0,1-.68-.17,1.16,1.16,0,0,1-.44-.44v.56h-.5v-4.07h.5v1.62A1.12,1.12,0,0,1,126.79,109.8Zm1.45.78a.93.93,0,0,0-.37-.39,1,1,0,0,0-.51-.13,1.14,1.14,0,0,0-.51.13,1,1,0,0,0-.37.4,1.12,1.12,0,0,0-.14.59,1.15,1.15,0,0,0,.14.59,1,1,0,0,0,.37.39,1,1,0,0,0,.51.14,1,1,0,0,0,.51-.14.93.93,0,0,0,.37-.39,1.16,1.16,0,0,0,.14-.6A1.12,1.12,0,0,0,128.24,110.58Z"/><path class="cls-1" d="M132.28,111.37h-2.4a.94.94,0,0,0,1,.94,1,1,0,0,0,.54-.15.81.81,0,0,0,.3-.4h.54a1.33,1.33,0,0,1-.48.71,1.61,1.61,0,0,1-1.67.07,1.31,1.31,0,0,1-.53-.54,1.68,1.68,0,0,1-.19-.82,1.74,1.74,0,0,1,.18-.82,1.26,1.26,0,0,1,.53-.54,1.5,1.5,0,0,1,.78-.19,1.54,1.54,0,0,1,.75.18,1.34,1.34,0,0,1,.51.52,1.47,1.47,0,0,1,.18.74A1.62,1.62,0,0,1,132.28,111.37Zm-.62-.9a.81.81,0,0,0-.35-.31,1,1,0,0,0-.48-.11.93.93,0,0,0-.64.24,1,1,0,0,0-.31.67h1.9A1,1,0,0,0,131.66,110.47Z"/><path class="cls-1" d="M135.32,110a1.26,1.26,0,0,1,.34,1v1.78h-.5V111a1,1,0,0,0-.22-.69.81.81,0,0,0-.62-.24.86.86,0,0,0-.63.25,1.05,1.05,0,0,0-.23.72v1.67H133v-3h.5v.42a1,1,0,0,1,.4-.35,1.22,1.22,0,0,1,.57-.13A1.24,1.24,0,0,1,135.32,110Z"/><path class="cls-1" d="M136.48,110.36a1.33,1.33,0,0,1,.51-.54,1.4,1.4,0,0,1,.73-.19,1.31,1.31,0,0,1,.69.17,1,1,0,0,1,.43.43v-.55h.51v3h-.51v-.56a1.14,1.14,0,0,1-.44.43,1.31,1.31,0,0,1-.69.18,1.39,1.39,0,0,1-.72-.2,1.32,1.32,0,0,1-.51-.56,1.64,1.64,0,0,1-.19-.81A1.62,1.62,0,0,1,136.48,110.36Zm2.22.22a.93.93,0,0,0-.37-.39,1.07,1.07,0,0,0-.51-.13,1,1,0,0,0-.51.13.93.93,0,0,0-.37.39,1.22,1.22,0,0,0-.14.59,1.27,1.27,0,0,0,.14.6.93.93,0,0,0,.37.39,1,1,0,0,0,1,0,.93.93,0,0,0,.37-.39,1.15,1.15,0,0,0,.14-.59A1.16,1.16,0,0,0,138.7,110.58Z"/><path class="cls-1" d="M140.69,108.62v4.07h-.5v-4.07Z"/></g></g></svg>