<?xml version="1.0" encoding="utf-8"?>
<!-- Generator: Adobe Illustrator 26.0.1, SVG Export Plug-In . SVG Version: 6.00 Build 0)  -->
<svg version="1.1" id="Capa_1" xmlns="http://www.w3.org/2000/svg" xmlns:xlink="http://www.w3.org/1999/xlink" x="0px" y="0px"
	 viewBox="0 0 2010.3 614.2" style="enable-background:new 0 0 2010.3 614.2;" xml:space="preserve">
<style type="text/css">
	.st0{fill:#FFFFFF;}
	.st1{fill:#01AA98;}
</style>
<g id="Capa_2_00000038380882440599447570000007770957450064113082_">
	<g id="Capa_1-2">
		<path class="st0" d="M89.1,454.9h819.3c40.5,0,73.4,32.8,73.4,73.4v0c0,40.5-32.8,73.4-73.4,73.4H89.1
			c-40.5,0-73.4-32.8-73.4-73.4v0C15.7,487.7,48.6,454.9,89.1,454.9z"/>
		<path class="st0" d="M52.5,48.8h-49V36h112.7v12.8h-49v126.6H52.5V48.8z"/>
		<path class="st0" d="M238.2,162.6v12.7h-98.5V36h95.5v12.8h-80.8v49.6h72v12.5h-72v51.7H238.2z"/>
		<path class="st0" d="M295.2,167.4c-10.9-5.9-19.9-14.7-26.1-25.4c-6.4-11-9.6-23.6-9.5-36.3c-0.2-12.7,3.1-25.3,9.5-36.3
			c6.2-10.7,15.3-19.5,26.2-25.4c11.5-6.2,24.4-9.3,37.4-9.2c9.8-0.1,19.5,1.6,28.7,5.2c8.5,3.3,16.1,8.4,22.3,15.1l-9.4,9.4
			c-10.9-11-24.6-16.5-41.2-16.5c-10.5-0.1-20.9,2.5-30,7.6c-8.8,4.8-16.1,12-21.2,20.7c-5.2,8.9-7.8,19.1-7.7,29.5
			c-0.1,10.3,2.5,20.5,7.7,29.4c5,8.7,12.4,15.9,21.2,20.7c9.2,5.1,19.5,7.7,30,7.6c16.7,0,30.5-5.6,41.2-16.7l9.4,9.4
			c-6.2,6.7-13.9,11.9-22.4,15.2c-9.2,3.6-18.9,5.4-28.8,5.3C318.7,176.5,306.3,173.5,295.2,167.4z"/>
		<path class="st0" d="M531.5,36v139.3h-12.1l-89.5-113v113h-14.7V36h12.1L517,149V36H531.5z"/>
		<path class="st0" d="M600.3,167.3c-10.9-5.9-20-14.7-26.3-25.4c-6.4-11-9.6-23.5-9.5-36.2c-0.2-12.7,3.1-25.2,9.5-36.2
			c6.3-10.7,15.4-19.5,26.3-25.4c11.5-6.2,24.4-9.4,37.5-9.3c13.8,0,26.2,3.1,37.3,9.2c10.9,5.9,19.9,14.7,26.2,25.4
			c6.4,11,9.7,23.6,9.5,36.3c0.2,12.8-3.1,25.3-9.5,36.3c-6.2,10.7-15.3,19.5-26.2,25.4c-11.1,6.1-23.5,9.1-37.3,9.1
			C624.7,176.7,611.8,173.5,600.3,167.3z M667.6,155.9c8.7-4.8,16-12,20.9-20.7c5.1-9,7.7-19.2,7.6-29.6c0.1-10.3-2.5-20.5-7.6-29.6
			c-4.9-8.7-12.1-15.9-20.9-20.7c-18.7-9.9-41.1-9.9-59.8,0c-8.8,4.8-16.1,12-21.1,20.7c-5.2,9-7.8,19.2-7.7,29.6
			c-0.1,10.4,2.5,20.6,7.7,29.6c5,8.7,12.3,15.9,21.1,20.7C626.5,165.9,648.9,165.9,667.6,155.9z"/>
		<path class="st0" d="M743.8,36h14.7v126.6h78v12.7h-92.7V36z"/>
		<path class="st0" d="M881.7,167.3c-10.9-5.9-20-14.7-26.3-25.4c-6.4-11-9.6-23.5-9.5-36.2c-0.2-12.7,3.1-25.2,9.5-36.2
			c6.3-10.7,15.4-19.5,26.3-25.4c11.5-6.2,24.4-9.4,37.5-9.3c13.8,0,26.2,3.1,37.3,9.2c10.9,5.9,19.9,14.7,26.2,25.4
			c6.4,11,9.7,23.6,9.6,36.3c0.2,12.8-3.1,25.3-9.6,36.3c-6.2,10.7-15.3,19.5-26.2,25.4c-11.1,6.1-23.5,9.1-37.3,9.1
			C906.1,176.7,893.2,173.5,881.7,167.3z M949,155.9c8.7-4.8,16-12,20.9-20.7c5.1-9,7.7-19.2,7.6-29.6c0.1-10.3-2.5-20.5-7.6-29.6
			c-4.9-8.7-12.2-15.9-20.9-20.7c-18.7-9.9-41.1-9.9-59.8,0c-8.8,4.8-16.1,12-21.1,20.7c-5.2,9-7.8,19.2-7.7,29.6
			c-0.1,10.4,2.5,20.6,7.7,29.6c5,8.7,12.3,15.9,21.1,20.7C907.9,165.9,930.3,165.9,949,155.9z"/>
		<path class="st0" d="M1123.3,105.7h14.1v53.1c-6.8,5.9-14.6,10.3-23.1,13.1c-9,3.1-18.5,4.6-28.1,4.6c-13.9,0-26.5-3.1-37.6-9.1
			c-10.9-5.9-20-14.7-26.3-25.4c-6.4-11-9.7-23.6-9.5-36.3c-0.2-12.7,3.1-25.3,9.5-36.3c6.3-10.7,15.4-19.5,26.3-25.4
			c11.1-6.1,23.7-9.2,37.8-9.2c10-0.1,19.9,1.6,29.2,5.1c8.6,3.2,16.3,8.3,22.5,15l-9.2,9.4c-11-10.9-25-16.3-42-16.3
			c-10.7-0.2-21.2,2.4-30.6,7.5c-8.9,4.8-16.3,12-21.4,20.7c-5.2,9-7.9,19.2-7.8,29.6c-0.1,10.3,2.5,20.5,7.8,29.4
			c5.1,8.7,12.5,15.8,21.3,20.7c9.3,5.1,19.8,7.7,30.4,7.6c14.3,0,26.5-3.6,36.4-10.8V105.7z"/>
		<path class="st0" d="M1200.8,0h18.9l-32.2,24.7h-13.9L1200.8,0z M1179.1,36h14.7v139.3h-14.7V36z"/>
		<path class="st0" d="M1326.5,138.1h-77.6l-16.7,37.2h-15.3L1280.6,36h14.5l63.7,139.3h-15.5L1326.5,138.1z M1321.2,126.2
			l-33.4-74.8l-33.4,74.8H1321.2z"/>
		<path class="st1" d="M86.2,314.8v49.4H53.9v-49.8L0,224.8h34.2l37.2,61.9l37.2-61.9h31.6L86.2,314.8z"/>
		<path class="st1" d="M336.9,364.1l-0.2-83.6l-41,68.9h-14.5l-40.8-67.1v81.8h-30.2V224.8h26.7l52.1,86.6l51.4-86.6h26.5l0.4,139.3
			H336.9z"/>
		<path class="st1" d="M491.9,334.3h-64.7l-12.3,29.9h-33L444,224.8h31.8l62.3,139.3h-33.8L491.9,334.3z M481.8,309.8l-22.1-53.3
			l-22.1,53.3L481.8,309.8z"/>
		<path class="st1" d="M680.4,224.8v139.3h-26.5l-69.5-84.6v84.6h-31.8V224.8h26.7l69.2,84.6v-84.6H680.4z"/>
		<path class="st1" d="M742.3,251.1h-44.6v-26.3h121.4v26.3h-44.6v113h-32.2V251.1z"/>
		<path class="st1" d="M944.2,338.2v25.9H836.4V224.8h105.3v25.9h-73.2v30.2h64.7V306h-64.7v32.2L944.2,338.2z"/>
		<path class="st1" d="M1097.7,224.8v139.3h-26.5l-69.5-84.6v84.6h-31.8V224.8h26.7l69.2,84.6v-84.6H1097.7z"/>
		<path class="st1" d="M1130.7,224.8h32.2v139.3h-32.2V224.8z"/>
		<path class="st1" d="M1322.7,364.1l-0.2-83.6l-41,68.9H1267l-40.8-67.1v81.8H1196V224.8h26.7l52.1,86.6l51.3-86.6h26.5l0.4,139.3
			H1322.7z"/>
		<path class="st1" d="M1386,224.8h32.2v139.3H1386V224.8z"/>
		<path class="st1" d="M1559.2,338.2v25.9h-107.9V224.8h105.3v25.9h-73.2v30.2h64.7V306h-64.7v32.2L1559.2,338.2z"/>
		<path class="st1" d="M1712.6,224.8v139.3h-26.5l-69.4-84.6v84.6h-31.8V224.8h26.7l69.2,84.6v-84.6H1712.6z"/>
		<path class="st1" d="M1774.5,251.1h-44.6v-26.3h121.4v26.3h-44.6v113h-32.2V251.1z"/>
		<path class="st1" d="M1895,357.1c-11.3-5.9-20.7-14.8-27.3-25.8c-13.1-22.9-13.1-51,0-73.8c6.6-10.9,16-19.8,27.3-25.8
			c11.6-6.2,24.6-9.3,39.1-9.4c14.5,0,27.5,3.1,39,9.4c34.6,18.5,47.7,61.5,29.2,96.1c-6.6,12.4-16.8,22.6-29.2,29.2
			c-11.6,6.2-24.6,9.4-39,9.4C1919.7,366.5,1906.6,363.4,1895,357.1z M1956.4,333.4c6.6-3.7,12-9.2,15.6-15.8
			c7.6-14.5,7.6-31.7,0-46.2c-3.6-6.6-9-12.1-15.6-15.8c-13.9-7.6-30.7-7.6-44.6,0c-6.6,3.7-12,9.2-15.6,15.8
			c-7.6,14.5-7.6,31.7,0,46.2c3.6,6.6,9,12.1,15.6,15.8C1925.7,340.9,1942.5,340.9,1956.4,333.4L1956.4,333.4z"/>
		
			<ellipse transform="matrix(0.9951 -9.853767e-02 9.853767e-02 0.9951 -51.5953 10.9493)" class="st1" cx="85.1" cy="527.8" rx="43.2" ry="43.2"/>
		<path d="M188.9,539.5H163l-5.4,12.2h-7.2l22.1-48.8h6.9l22.2,48.8h-7.3L188.9,539.5z M186.5,533.9L176,510l-10.5,23.9L186.5,533.9
			z"/>
		<path d="M207.9,500h6.7v51.7h-6.7V500z"/>
		<path d="M271.3,518.2c2.7,2.5,4.1,6.2,4.1,11.2v22.3H269v-4.9c-1.2,1.8-2.8,3.1-4.8,3.9c-2.3,1-4.8,1.4-7.4,1.4
			c-4.1,0-7.4-1-9.9-3c-2.4-1.9-3.8-4.8-3.7-7.9c-0.1-3,1.2-5.9,3.6-7.8c2.4-2,6.1-3,11.3-3h10.6v-1.3c0.2-2.5-0.8-4.9-2.5-6.6
			c-1.7-1.5-4.1-2.3-7.4-2.3c-2.2,0-4.3,0.4-6.4,1.1c-1.9,0.6-3.7,1.6-5.3,2.9l-2.8-5c2-1.6,4.3-2.8,6.8-3.5
			c2.7-0.8,5.6-1.2,8.4-1.2C264.6,514.4,268.5,515.7,271.3,518.2z M264.6,545.3c1.8-1.1,3.2-2.8,4-4.8v-5.2h-10.3
			c-5.7,0-8.5,1.9-8.5,5.7c-0.1,1.7,0.7,3.4,2.2,4.4c1.8,1.2,3.9,1.7,6,1.6C260.3,547,262.6,546.4,264.6,545.3z"/>
		<path d="M287.7,500h6.7v51.7h-6.7V500z"/>
		<path d="M313.2,549.7c-2.9-1.6-5.3-3.9-6.9-6.7c-3.3-6-3.3-13.4,0-19.4c1.6-2.8,4-5.1,6.9-6.7c3.1-1.6,6.6-2.5,10.1-2.4
			c3.1-0.1,6.2,0.6,9,2c2.6,1.3,4.7,3.3,6.1,5.8l-5.1,3.3c-1.1-1.7-2.6-3.1-4.3-4c-1.8-0.9-3.7-1.3-5.7-1.3c-2.3,0-4.5,0.5-6.5,1.6
			c-1.9,1.1-3.5,2.6-4.5,4.6c-1.1,2.1-1.7,4.4-1.6,6.8c-0.1,2.4,0.5,4.7,1.6,6.9c1,1.9,2.6,3.5,4.5,4.6c2,1.1,4.2,1.6,6.5,1.6
			c2,0,3.9-0.4,5.7-1.3c1.8-0.9,3.3-2.3,4.3-4l5.1,3.2c-1.4,2.5-3.5,4.6-6.1,5.9c-2.8,1.4-5.9,2.1-9,2
			C319.8,552.1,316.3,551.3,313.2,549.7z"/>
		<path d="M372.2,518.2c2.7,2.5,4.1,6.2,4.1,11.2v22.3h-6.3v-4.9c-1.2,1.8-2.8,3.1-4.8,3.9c-2.3,1-4.8,1.4-7.4,1.4
			c-4.1,0-7.4-1-9.9-3c-2.4-1.9-3.8-4.8-3.7-7.9c-0.1-3,1.2-5.9,3.5-7.8c2.4-2,6.1-3,11.3-3h10.6v-1.3c0.2-2.5-0.8-4.9-2.5-6.6
			c-1.7-1.5-4.1-2.3-7.4-2.3c-2.2,0-4.3,0.4-6.4,1.1c-1.9,0.6-3.7,1.6-5.3,2.9l-2.8-5c2-1.6,4.3-2.8,6.8-3.5
			c2.7-0.8,5.6-1.2,8.4-1.2C365.5,514.4,369.4,515.7,372.2,518.2z M365.5,545.3c1.8-1.1,3.2-2.8,4-4.8v-5.2h-10.3
			c-5.7,0-8.5,1.9-8.5,5.7c-0.1,1.7,0.7,3.4,2.2,4.4c1.8,1.2,3.9,1.7,6,1.6C361.2,547,363.5,546.4,365.5,545.3z"/>
		<path d="M419.5,518.5c2.8,2.7,4.1,6.7,4.1,12v21.2H417v-20.5c0-3.6-0.9-6.3-2.6-8.1c-1.7-1.8-4.2-2.7-7.4-2.7
			c-3.2-0.2-6.3,1-8.6,3.2c-2.1,2.1-3.1,5.1-3.1,9.1v19h-6.7v-36.9h6.4v5.6c1.4-1.9,3.3-3.5,5.5-4.4c2.5-1.1,5.1-1.6,7.8-1.5
			C413,514.4,416.8,515.8,419.5,518.5z"/>
		<path d="M442.3,549.7c-2.9-1.6-5.3-3.9-6.9-6.7c-3.3-6-3.3-13.4,0-19.4c1.6-2.8,4-5.1,6.9-6.7c3.1-1.6,6.6-2.5,10.1-2.4
			c3.1-0.1,6.2,0.6,9,2c2.6,1.3,4.7,3.3,6.1,5.8l-5.1,3.3c-1.1-1.7-2.6-3.1-4.3-4c-1.8-0.9-3.7-1.3-5.7-1.3c-2.3,0-4.5,0.5-6.5,1.6
			c-1.9,1.1-3.5,2.6-4.5,4.6c-1.1,2.1-1.7,4.4-1.6,6.8c-0.1,2.4,0.5,4.7,1.6,6.9c1,1.9,2.6,3.5,4.5,4.6c2,1.1,4.2,1.6,6.5,1.6
			c2,0,3.9-0.4,5.7-1.3c1.8-0.9,3.3-2.3,4.3-4l5.1,3.2c-1.4,2.5-3.5,4.6-6.1,5.9c-2.8,1.4-5.8,2.1-9,2
			C448.9,552.1,445.4,551.3,442.3,549.7z"/>
		<path d="M508.8,535.5h-30c0.3,3.1,1.9,5.9,4.3,7.8c2.6,2,5.8,3.1,9.1,3c4,0.2,7.9-1.5,10.7-4.5l3.7,4.3c-1.7,2-3.8,3.5-6.2,4.5
			c-6.1,2.3-12.9,2-18.7-0.9c-2.9-1.5-5.4-3.9-7-6.7c-1.7-3-2.5-6.3-2.5-9.8c0-3.4,0.8-6.7,2.4-9.7c1.5-2.8,3.8-5.1,6.6-6.7
			c2.9-1.6,6.2-2.5,9.5-2.4c3.3-0.1,6.6,0.8,9.4,2.4c2.7,1.6,5,3.9,6.5,6.7c1.6,3.1,2.4,6.5,2.3,9.9
			C508.9,534.2,508.8,534.8,508.8,535.5z M482.6,523c-2.2,2-3.5,4.7-3.8,7.7h23.7c-0.3-2.9-1.6-5.6-3.8-7.6
			C494,519.1,487.2,519.1,482.6,523L482.6,523z"/>
		<path d="M571.7,500v51.7h-6.4v-5.8c-1.5,2-3.4,3.6-5.6,4.7c-2.4,1.1-4.9,1.6-7.5,1.6c-3.4,0.1-6.7-0.8-9.6-2.4
			c-2.8-1.5-5.1-3.9-6.7-6.7c-3.2-6.2-3.2-13.5,0-19.7c1.6-2.8,3.9-5.1,6.7-6.6c2.9-1.6,6.3-2.4,9.6-2.4c2.5,0,5,0.5,7.3,1.5
			c2.2,1,4.1,2.5,5.6,4.4V500H571.7z M559.1,544.6c1.9-1.1,3.4-2.7,4.5-4.6c2.1-4.3,2.1-9.3,0-13.6c-1-1.9-2.6-3.5-4.5-4.6
			c-4-2.1-8.7-2.1-12.7,0c-1.9,1.1-3.4,2.7-4.5,4.6c-2.2,4.3-2.2,9.3,0,13.6c1,1.9,2.6,3.5,4.5,4.6
			C550.3,546.8,555.1,546.8,559.1,544.6z"/>
		<path d="M617.7,535.5h-30c0.3,3.1,1.9,5.9,4.3,7.8c2.6,2,5.8,3.1,9.1,3c4,0.2,7.9-1.5,10.7-4.5l3.7,4.3c-1.7,2-3.8,3.5-6.2,4.5
			c-6.1,2.3-12.9,2-18.7-0.9c-2.9-1.5-5.4-3.9-7-6.7c-1.7-3-2.5-6.3-2.5-9.8c0-3.4,0.8-6.7,2.4-9.7c1.5-2.8,3.8-5.1,6.6-6.7
			c2.9-1.6,6.2-2.5,9.5-2.4c3.3-0.1,6.6,0.8,9.4,2.4c2.8,1.6,5,3.9,6.5,6.7c1.6,3.1,2.4,6.5,2.3,9.9
			C617.8,534.2,617.7,534.8,617.7,535.5z M591.5,523c-2.2,2-3.5,4.7-3.8,7.7h23.7c-0.3-2.9-1.6-5.6-3.8-7.6
			C602.9,519.1,596.1,519.1,591.5,523L591.5,523z"/>
		<path d="M666.6,549.5c-1.1,0.9-2.3,1.5-3.6,1.9c-1.4,0.4-2.9,0.7-4.5,0.7c-3.7,0-6.6-1-8.6-3s-3.1-4.9-3.1-8.6v-20.3h-6.3v-5.5
			h6.3v-8.1h6.7v8.1h10.6v5.5h-10.6v20c-0.1,1.7,0.4,3.3,1.5,4.6c1.1,1.1,2.7,1.7,4.3,1.6c1.9,0.1,3.7-0.6,5.2-1.7L666.6,549.5z"/>
		<path d="M709.1,514.8v36.9h-6.3v-5.6c-1.4,1.9-3.2,3.4-5.3,4.4c-2.3,1.1-4.7,1.6-7.2,1.6c-4.9,0-8.8-1.4-11.6-4.1
			c-2.8-2.7-4.3-6.7-4.2-12v-21.3h6.7v20.5c0,3.6,0.9,6.3,2.6,8.1s4.2,2.8,7.4,2.8c3.1,0.2,6.2-1,8.4-3.2c2-2.1,3.1-5.1,3.1-9v-19.1
			L709.1,514.8z"/>
		<path d="M797.8,518.5c2.7,2.7,4.1,6.7,4.1,12v21.2h-6.7v-20.5c0-3.6-0.8-6.3-2.5-8.1c-1.7-1.8-4-2.7-7.1-2.7c-3-0.1-6,1-8.1,3.2
			c-2,2.1-3,5.1-3,9.1v19h-6.7v-20.5c0-3.6-0.8-6.3-2.5-8.1c-1.6-1.8-4-2.7-7.1-2.7c-3-0.1-6,1-8.1,3.2c-2,2.1-3,5.1-3,9.1v19h-6.7
			v-36.9h6.4v5.5c1.3-1.9,3.2-3.4,5.3-4.4c2.4-1,4.9-1.5,7.5-1.5c2.7-0.1,5.3,0.5,7.7,1.7c2.2,1.1,4,2.9,5.2,5.1
			c1.4-2.2,3.5-3.9,5.8-5c2.6-1.2,5.5-1.9,8.4-1.8C791.4,514.4,795.1,515.8,797.8,518.5z"/>
		<path d="M839.4,518.2c2.7,2.5,4.1,6.2,4.1,11.2v22.3h-6.3v-4.9c-1.2,1.8-2.8,3.1-4.8,3.9c-2.3,1-4.8,1.4-7.3,1.4
			c-4.1,0-7.4-1-9.9-3c-2.4-1.9-3.8-4.8-3.7-7.9c-0.1-3,1.2-5.9,3.5-7.8c2.4-2,6.1-3,11.3-3h10.6v-1.3c0.2-2.5-0.8-4.9-2.5-6.6
			c-1.7-1.5-4.1-2.3-7.4-2.3c-2.2,0-4.3,0.4-6.4,1.1c-1.9,0.6-3.7,1.6-5.3,2.9l-2.8-5c2-1.6,4.3-2.8,6.8-3.5
			c2.7-0.8,5.6-1.2,8.4-1.2C832.8,514.4,836.7,515.7,839.4,518.2z M832.8,545.3c1.8-1.1,3.2-2.8,4-4.8v-5.2h-10.3
			c-5.7,0-8.5,1.9-8.5,5.7c-0.1,1.7,0.7,3.4,2.2,4.4c1.8,1.2,3.9,1.7,6,1.6C828.5,547,830.7,546.4,832.8,545.3z"/>
		<path d="M886.8,518.5c2.8,2.7,4.1,6.7,4.2,12v21.2h-6.7v-20.5c0-3.6-0.9-6.3-2.6-8.1c-1.7-1.8-4.2-2.7-7.4-2.7
			c-3.2-0.2-6.3,1-8.6,3.2c-2.1,2.1-3.1,5.1-3.1,9.1v19h-6.7v-36.9h6.4v5.6c1.4-1.9,3.3-3.5,5.5-4.4c2.5-1.1,5.1-1.6,7.8-1.5
			C880.3,514.4,884,515.8,886.8,518.5z"/>
		<path d="M909.5,549.7c-2.9-1.5-5.2-3.9-6.9-6.7c-3.3-6.1-3.3-13.4,0-19.4c1.6-2.8,4-5.1,6.9-6.7c6.2-3.2,13.6-3.2,19.8,0
			c2.9,1.6,5.2,3.9,6.8,6.7c3.3,6.1,3.3,13.4,0,19.4c-1.6,2.8-4,5.2-6.8,6.7C923,553,915.6,553,909.5,549.7L909.5,549.7z
			 M925.7,544.7c1.9-1.1,3.4-2.7,4.4-4.6c2.1-4.3,2.1-9.3,0-13.6c-1-1.9-2.5-3.5-4.4-4.6c-4-2.1-8.8-2.1-12.8,0
			c-1.9,1.1-3.4,2.7-4.5,4.6c-2.2,4.3-2.2,9.3,0,13.6c1,1.9,2.6,3.5,4.5,4.6C916.9,546.9,921.8,546.9,925.7,544.7z"/>
	</g>
</g>
</svg>
