<svg xmlns="http://www.w3.org/2000/svg" viewBox="0 0 1742.55 527.91"><defs><style>.cls-1{fill:#fff;}.cls-2{fill:#01aa98;}.cls-3{fill:#0a0c1a;}</style></defs><g id="Capa_2" data-name="Capa 2"><g id="Capa_1-2" data-name="Capa 1"><path class="cls-1" d="M27.81,139.78q-11.6-4-17.92-10.7l4.7-9.24a45,45,0,0,0,16.38,10,59.86,59.86,0,0,0,21.08,3.81q15.24,0,22.87-5.59t7.62-14.52q0-6.81-4.14-10.86A27.89,27.89,0,0,0,68.27,96.4a164.31,164.31,0,0,0-16.7-4.78,175.3,175.3,0,0,1-20.44-6.24,33.51,33.51,0,0,1-13-9.16q-5.43-6.16-5.43-16.71a28.31,28.31,0,0,1,4.54-15.65q4.53-7.05,13.94-11.27t23.36-4.21a68.91,68.91,0,0,1,19.05,2.67,55.09,55.09,0,0,1,16.13,7.38l-4,9.57a55.81,55.81,0,0,0-15.24-7,56.88,56.88,0,0,0-15.89-2.36q-14.93,0-22.46,5.76a17.85,17.85,0,0,0-7.54,14.84q0,6.81,4.13,10.94A27.11,27.11,0,0,0,39,76.46q6.24,2.19,16.78,4.78A169.39,169.39,0,0,1,76,87.32,33.18,33.18,0,0,1,89,96.4q5.34,6.09,5.35,16.46a28,28,0,0,1-4.62,15.65q-4.64,7.05-14.19,11.19t-23.52,4.14A72.73,72.73,0,0,1,27.81,139.78Z"/><path class="cls-1" d="M200.75,132.48v10.38H120.48V29.35h77.84V39.73H132.48V80.11h58.7V90.32h-58.7v42.16Z"/><path class="cls-1" d="M306.48,142.86l-26-36.48a83.26,83.26,0,0,1-9.08.48H241v36H229V29.35h42.48q21.74,0,34.06,10.38t12.32,28.54q0,13.31-6.73,22.46t-19.22,13.21l27.73,38.92Zm-9.57-53.67q8.93-7.45,8.92-20.92,0-13.78-8.92-21.16t-25.78-7.38H241V96.65h30.16Q288,96.65,296.91,89.19Z"/><path class="cls-1" d="M440.58,29.35,390.31,142.86H378.48L328.21,29.35h13l43.46,98.59,43.78-98.59Z"/><path class="cls-1" d="M457,29.35h12V142.86H457Z"/><path class="cls-1" d="M524.82,136.38a54.63,54.63,0,0,1-21.24-20.68,57.61,57.61,0,0,1-7.7-29.59,57.68,57.68,0,0,1,7.7-29.6A54.41,54.41,0,0,1,524.9,35.84a62.49,62.49,0,0,1,30.49-7.46,63.16,63.16,0,0,1,23.35,4.21A48.4,48.4,0,0,1,596.9,44.92l-7.62,7.62Q576,39.09,555.71,39.08a49.4,49.4,0,0,0-24.48,6.16A45,45,0,0,0,514,62.11a46.65,46.65,0,0,0-6.25,24,46.7,46.7,0,0,0,6.25,24A45.06,45.06,0,0,0,531.23,127a49.29,49.29,0,0,0,24.48,6.16q20.44,0,33.57-13.62l7.62,7.62a49,49,0,0,1-18.24,12.41,62.82,62.82,0,0,1-23.43,4.3A62,62,0,0,1,524.82,136.38Z"/><path class="cls-1" d="M622.52,29.35h12V142.86h-12Z"/><path class="cls-1" d="M690.55,136.3a55.1,55.1,0,0,1-21.41-20.68,57.29,57.29,0,0,1-7.7-29.51,57.33,57.33,0,0,1,7.7-29.52,55.14,55.14,0,0,1,21.41-20.67,65.71,65.71,0,0,1,61-.08,55.22,55.22,0,0,1,21.32,20.67,57.26,57.26,0,0,1,7.79,29.6,57.19,57.19,0,0,1-7.79,29.59,55.24,55.24,0,0,1-21.32,20.68,65.71,65.71,0,0,1-61-.08Zm54.89-9.25a43.92,43.92,0,0,0,17-16.86,47.67,47.67,0,0,0,6.17-24.08A47.64,47.64,0,0,0,762.46,62a44,44,0,0,0-17-16.87,51.86,51.86,0,0,0-48.73,0A44.45,44.45,0,0,0,679.52,62a47.19,47.19,0,0,0-6.24,24.08,47.21,47.21,0,0,0,6.24,24.08,44.35,44.35,0,0,0,17.19,16.86,51.86,51.86,0,0,0,48.73,0Z"/><path class="cls-1" d="M872.08,39.73H832.19V29.35H924V39.73H884.08V142.86h-12Z"/><path class="cls-1" d="M1023.37,132.48v10.38H943.11V29.35h77.83V39.73H955.11V80.11h58.7V90.32h-58.7v42.16ZM993.86,0h15.41L983,20.11H971.65Z"/><path class="cls-1" d="M1069.83,136.38a54.56,54.56,0,0,1-21.24-20.68,57.61,57.61,0,0,1-7.7-29.59,57.68,57.68,0,0,1,7.7-29.6,54.41,54.41,0,0,1,21.32-20.67,62.44,62.44,0,0,1,30.49-7.46,63.19,63.19,0,0,1,23.35,4.21,48.4,48.4,0,0,1,18.16,12.33l-7.62,7.62Q1121,39.09,1100.72,39.08a49.4,49.4,0,0,0-24.48,6.16A44.94,44.94,0,0,0,1059,62.11a46.65,46.65,0,0,0-6.25,24,46.7,46.7,0,0,0,6.25,24A45,45,0,0,0,1076.24,127a49.29,49.29,0,0,0,24.48,6.16q20.43,0,33.57-13.62l7.62,7.62a49,49,0,0,1-18.24,12.41,62.82,62.82,0,0,1-23.43,4.3A62,62,0,0,1,1069.83,136.38Z"/><path class="cls-1" d="M1262.4,29.35V142.86h-9.9l-73-92.1v92.1h-12V29.35h9.89l73.14,92.11V29.35Z"/><path class="cls-1" d="M1299.37,29.35h12V142.86h-12Z"/><path class="cls-1" d="M1367.23,136.38A54.56,54.56,0,0,1,1346,115.7a57.62,57.62,0,0,1-7.71-29.59,57.68,57.68,0,0,1,7.71-29.6,54.41,54.41,0,0,1,21.32-20.67,62.43,62.43,0,0,1,30.48-7.46,63.21,63.21,0,0,1,23.36,4.21,48.56,48.56,0,0,1,18.16,12.33l-7.62,7.62q-13.31-13.45-33.57-13.46a49.41,49.41,0,0,0-24.49,6.16,45,45,0,0,0-17.27,16.87,46.74,46.74,0,0,0-6.24,24,46.79,46.79,0,0,0,6.24,24A45.06,45.06,0,0,0,1373.63,127a49.3,49.3,0,0,0,24.49,6.16q20.43,0,33.57-13.62l7.62,7.62a49.06,49.06,0,0,1-18.25,12.41,62.79,62.79,0,0,1-23.43,4.3A62,62,0,0,1,1367.23,136.38Z"/><path class="cls-1" d="M1481.55,136.3a55.1,55.1,0,0,1-21.41-20.68,57.29,57.29,0,0,1-7.7-29.51,57.33,57.33,0,0,1,7.7-29.52,55.14,55.14,0,0,1,21.41-20.67,65.71,65.71,0,0,1,61-.08,55.18,55.18,0,0,1,21.33,20.67,57.34,57.34,0,0,1,7.78,29.6,57.28,57.28,0,0,1-7.78,29.59,55.2,55.2,0,0,1-21.33,20.68,65.71,65.71,0,0,1-61-.08Zm54.89-9.25a44,44,0,0,0,17-16.86,47.76,47.76,0,0,0,6.16-24.08A47.73,47.73,0,0,0,1553.47,62a44.1,44.1,0,0,0-17-16.87,51.86,51.86,0,0,0-48.73,0A44.45,44.45,0,0,0,1470.52,62a47.19,47.19,0,0,0-6.24,24.08,47.21,47.21,0,0,0,6.24,24.08,44.35,44.35,0,0,0,17.19,16.86,51.86,51.86,0,0,0,48.73,0Z"/><path class="cls-2" d="M70.21,256.7v40.21H44V256.37L0,183.4H27.89l30.33,50.43L88.54,183.4h25.78Z"/><path class="cls-2" d="M171.24,183.4H222.8q18.49,0,32.68,7.06a52.76,52.76,0,0,1,22,19.86q7.88,12.81,7.87,29.84T277.53,270a52.76,52.76,0,0,1-22,19.86q-14.19,7-32.68,7.05H171.24Zm50.27,92q17,0,27.16-9.49t10.13-25.7q0-16.22-10.13-25.7T221.51,205h-24v70.38Z"/><path class="cls-2" d="M393.07,275.83v21.08H305.18V183.4H391v21.08H331.29v24.65H384v20.43h-52.7v26.27Z"/><path class="cls-2" d="M563.17,296.91l-.16-68.1-33.4,56.1H517.77l-33.24-54.64v66.64H459.88V183.4h21.73l42.48,70.54,41.84-70.54H587.5l.32,113.51Z"/><path class="cls-2" d="M689.49,272.59h-52.7l-10,24.32H599.82L650.41,183.4h26l50.75,113.51H699.55Zm-8.27-19.94-18-43.46-18,43.46Z"/><path class="cls-2" d="M843.06,183.4V296.91H821.49L764.9,228v68.91H739V183.4h21.73l56.43,68.92V183.4Z"/><path class="cls-2" d="M893.49,204.81H857.16V183.4h98.92v21.41H919.76v92.1H893.49Z"/><path class="cls-2" d="M1058.08,275.83v21.08H970.19V183.4H1056v21.08H996.3v24.65H1049v20.43H996.3v26.27Z"/><path class="cls-2" d="M1182.29,296.91l-.16-68.1-33.4,56.1h-11.84l-33.24-54.64v66.64H1079V183.4h21.73l42.48,70.54,41.84-70.54h21.57l.32,113.51Z"/><path class="cls-2" d="M1233.86,183.4h26.27V296.91h-26.27Z"/><path class="cls-2" d="M1374.93,275.83v21.08H1287V183.4h85.79v21.08h-59.68v24.65h52.7v20.43h-52.7v26.27Z"/><path class="cls-2" d="M1500,183.4V296.91h-21.57L1421.8,228v68.91h-26V183.4h21.73L1474,252.32V183.4Z"/><path class="cls-2" d="M1550.39,204.81h-36.32V183.4H1613v21.41h-36.32v92.1h-26.27Z"/><path class="cls-2" d="M1648.58,291.24a56.55,56.55,0,0,1-22.22-21,60.35,60.35,0,0,1,0-60.16,56.55,56.55,0,0,1,22.22-21,70.25,70.25,0,0,1,63.64,0,57.89,57.89,0,0,1,0,102.16,70.25,70.25,0,0,1-63.64,0Zm50-19.38A33.14,33.14,0,0,0,1711.33,259a40.6,40.6,0,0,0,0-37.62,33.07,33.07,0,0,0-12.73-12.89,37.93,37.93,0,0,0-36.32,0,33.07,33.07,0,0,0-12.73,12.89,40.6,40.6,0,0,0,0,37.62,33.14,33.14,0,0,0,12.73,12.89,38,38,0,0,0,36.32,0Z"/><rect class="cls-1" x="23.51" y="395.56" width="1090.71" height="132.35" rx="66.18"/><circle class="cls-2" cx="91.2" cy="462.68" r="38.76" transform="translate(-69.91 19.47) rotate(-8.83)"/><path class="cls-3" d="M206.94,482.86H176.07l-6.39,14.52h-8.54l26.3-58.08h8.21L222,497.38h-8.71ZM204,476.22,191.5,447.76,179,476.22Z"/><path class="cls-3" d="M292.81,453.41v44h-7.55v-6.64a16,16,0,0,1-6.35,5.27,19.88,19.88,0,0,1-8.59,1.87q-8.79,0-13.85-4.86t-5.06-14.31v-25.3h8V477.8q0,6.39,3.07,9.66t8.8,3.28q6.3,0,9.95-3.82t3.65-10.78V453.41Z"/><path class="cls-3" d="M344.79,457.84q4.93,4.86,4.93,14.23v25.31h-8V473q0-6.39-3.07-9.63t-8.79-3.23q-6.48,0-10.21,3.77T316,474.73v22.65h-8v-44h7.63V460a15.52,15.52,0,0,1,6.52-5.22,22.71,22.71,0,0,1,9.33-1.83Q339.86,453,344.79,457.84Z"/><path class="cls-3" d="M394,495a21.25,21.25,0,0,1-8.26-8,24,24,0,0,1,0-23.15,21,21,0,0,1,8.26-8A24.68,24.68,0,0,1,406,453a23,23,0,0,1,10.66,2.41,17.13,17.13,0,0,1,7.26,7l-6.06,3.9a13.48,13.48,0,0,0-5.14-4.73,14.72,14.72,0,0,0-6.81-1.58,15.73,15.73,0,0,0-7.75,1.91,13.57,13.57,0,0,0-5.4,5.43,17.92,17.92,0,0,0,0,16.26,13.53,13.53,0,0,0,5.4,5.44,15.73,15.73,0,0,0,7.75,1.91,14.72,14.72,0,0,0,6.81-1.58,13.56,13.56,0,0,0,5.14-4.73l6.06,3.82a17.46,17.46,0,0,1-7.26,7A22.73,22.73,0,0,1,406,497.88,24.38,24.38,0,0,1,394,495Z"/><path class="cls-3" d="M433.61,435.82h8v61.56h-8Z"/><path class="cls-3" d="M456.88,443.45a4.88,4.88,0,0,1-1.54-3.65,5,5,0,0,1,1.54-3.69,5.21,5.21,0,0,1,3.86-1.54,5.41,5.41,0,0,1,3.85,1.45,4.75,4.75,0,0,1,1.54,3.61,5.11,5.11,0,0,1-1.54,3.78,5.23,5.23,0,0,1-3.85,1.53A5.29,5.29,0,0,1,456.88,443.45Zm-.13,10h8v44h-8Z"/><path class="cls-3" d="M487.08,495a21.32,21.32,0,0,1-8.26-8,24,24,0,0,1,0-23.15,21.11,21.11,0,0,1,8.26-8,24.68,24.68,0,0,1,12-2.86,23,23,0,0,1,10.66,2.41,17.13,17.13,0,0,1,7.26,7l-6.06,3.9a13.48,13.48,0,0,0-5.14-4.73A14.71,14.71,0,0,0,499,460a15.74,15.74,0,0,0-7.76,1.91,13.57,13.57,0,0,0-5.4,5.43,17.92,17.92,0,0,0,0,16.26,13.53,13.53,0,0,0,5.4,5.44,15.74,15.74,0,0,0,7.76,1.91,14.71,14.71,0,0,0,6.8-1.58,13.56,13.56,0,0,0,5.14-4.73l6.06,3.82a17.46,17.46,0,0,1-7.26,7,22.73,22.73,0,0,1-10.66,2.45A24.38,24.38,0,0,1,487.08,495Z"/><path class="cls-3" d="M591.08,435.82v61.56h-7.63v-7a17.26,17.26,0,0,1-6.72,5.56,20.86,20.86,0,0,1-9,1.91,23.11,23.11,0,0,1-11.45-2.82,20.23,20.23,0,0,1-7.93-7.93,25.44,25.44,0,0,1,0-23.44,20.3,20.3,0,0,1,7.93-7.88A23.11,23.11,0,0,1,567.77,453a21.23,21.23,0,0,1,8.71,1.78,17.07,17.07,0,0,1,6.64,5.27V435.82ZM576,489a13.67,13.67,0,0,0,5.31-5.48,18.09,18.09,0,0,0,0-16.18,13.35,13.35,0,0,0-5.31-5.43,16,16,0,0,0-15.14,0,13.74,13.74,0,0,0-5.31,5.43,17.76,17.76,0,0,0,0,16.18,14.07,14.07,0,0,0,5.31,5.48A15.67,15.67,0,0,0,576,489Z"/><path class="cls-3" d="M645.76,478.05H610.08a13.82,13.82,0,0,0,5.1,9.33A16.67,16.67,0,0,0,626,490.91a16.31,16.31,0,0,0,12.69-5.31l4.4,5.14a19.26,19.26,0,0,1-7.42,5.31,27.94,27.94,0,0,1-22.28-1,20.3,20.3,0,0,1-8.34-8,23,23,0,0,1-2.95-11.62A23.29,23.29,0,0,1,605,463.86a20.5,20.5,0,0,1,7.88-8A22.41,22.41,0,0,1,624.18,453a22,22,0,0,1,11.25,2.86,20.09,20.09,0,0,1,7.71,8,24.43,24.43,0,0,1,2.78,11.78A22.84,22.84,0,0,1,645.76,478.05ZM614.6,463.2a14,14,0,0,0-4.52,9.12h28.21a14.14,14.14,0,0,0-4.52-9.08,14.84,14.84,0,0,0-19.17,0Z"/><path class="cls-3" d="M720.76,435.82v61.56h-7.63v-7a17.26,17.26,0,0,1-6.72,5.56,20.86,20.86,0,0,1-9,1.91A23.11,23.11,0,0,1,686,495.06a20.23,20.23,0,0,1-7.93-7.93,25.44,25.44,0,0,1,0-23.44,20.3,20.3,0,0,1,7.93-7.88A23.11,23.11,0,0,1,697.45,453a21.23,21.23,0,0,1,8.71,1.78,17,17,0,0,1,6.63,5.27V435.82ZM705.66,489a13.67,13.67,0,0,0,5.31-5.48,18.09,18.09,0,0,0,0-16.18,13.35,13.35,0,0,0-5.31-5.43,16,16,0,0,0-15.14,0,13.74,13.74,0,0,0-5.31,5.43,17.76,17.76,0,0,0,0,16.18,14.07,14.07,0,0,0,5.31,5.48,15.67,15.67,0,0,0,15.14,0Z"/><path class="cls-3" d="M736,443.45a4.91,4.91,0,0,1-1.53-3.65,5,5,0,0,1,1.53-3.69,5.22,5.22,0,0,1,3.86-1.54A5.42,5.42,0,0,1,743.7,436a4.78,4.78,0,0,1,1.53,3.61,5.14,5.14,0,0,1-1.53,3.78,5.24,5.24,0,0,1-3.86,1.53A5.3,5.3,0,0,1,736,443.45Zm-.12,10h8v44h-8Z"/><path class="cls-3" d="M761.25,496.42a22.5,22.5,0,0,1-7.8-3.69l3.32-6.3a23.76,23.76,0,0,0,7.05,3.32A29,29,0,0,0,772.2,491q10.45,0,10.45-6a3.89,3.89,0,0,0-1.41-3.16,9,9,0,0,0-3.52-1.7q-2.12-.54-6-1.2a58.39,58.39,0,0,1-8.67-1.91,13.37,13.37,0,0,1-5.77-3.65q-2.4-2.56-2.4-7.22a11.28,11.28,0,0,1,5-9.58q5-3.62,13.35-3.61a36.74,36.74,0,0,1,8.8,1.08,23.87,23.87,0,0,1,7.22,2.9l-3.4,6.31a22.92,22.92,0,0,0-12.7-3.49c-3.37,0-6,.56-7.71,1.66a5,5,0,0,0-2.66,4.4,4.2,4.2,0,0,0,1.49,3.4,9.52,9.52,0,0,0,3.7,1.83q2.19.59,6.18,1.33a64,64,0,0,1,8.58,1.95,12.71,12.71,0,0,1,5.6,3.52,9.82,9.82,0,0,1,2.33,7,11,11,0,0,1-5.11,9.5q-5.1,3.52-13.89,3.53A36.76,36.76,0,0,1,761.25,496.42Z"/><path class="cls-3" d="M825.3,494.81a12,12,0,0,1-4.32,2.28,18.16,18.16,0,0,1-5.31.79q-6.63,0-10.28-3.57t-3.66-10.21V460h-7.46v-6.55h7.46v-9.63h8v9.63h12.61V460H809.7v23.81a7.72,7.72,0,0,0,1.78,5.48,6.66,6.66,0,0,0,5.11,1.91,9.57,9.57,0,0,0,6.22-2.08Z"/><path class="cls-3" d="M864.91,457.47q4.86,4.48,4.86,13.36v26.55h-7.55v-5.81a12.62,12.62,0,0,1-5.69,4.69,21.66,21.66,0,0,1-8.75,1.62q-7.38,0-11.82-3.57a12.26,12.26,0,0,1-.21-18.71q4.23-3.53,13.44-3.53H861.8V470.5q0-5.14-3-7.88t-8.8-2.74a23.46,23.46,0,0,0-7.63,1.28,19.76,19.76,0,0,0-6.31,3.45l-3.32-6a24.26,24.26,0,0,1,8.13-4.19,34.33,34.33,0,0,1,10-1.45Q860.07,453,864.91,457.47ZM857,489.7a11.57,11.57,0,0,0,4.81-5.76V477.8H849.52q-10.12,0-10.12,6.8a6.17,6.17,0,0,0,2.57,5.23,11.81,11.81,0,0,0,7.14,1.91A14.75,14.75,0,0,0,857,489.7Z"/><path class="cls-3" d="M921.33,457.84q4.93,4.86,4.94,14.23v25.31h-8V473q0-6.39-3.07-9.63t-8.79-3.23q-6.48,0-10.21,3.77t-3.73,10.83v22.65h-8v-44h7.63V460a15.43,15.43,0,0,1,6.51-5.22A22.73,22.73,0,0,1,908,453Q916.39,453,921.33,457.84Z"/><path class="cls-3" d="M948.46,495a21.22,21.22,0,0,1-8.25-8,23.9,23.9,0,0,1,0-23.15,21,21,0,0,1,8.25-8,24.68,24.68,0,0,1,12-2.86,22.93,22.93,0,0,1,10.66,2.41,17,17,0,0,1,7.26,7l-6,3.9a13.5,13.5,0,0,0-5.15-4.73,14.68,14.68,0,0,0-6.8-1.58,15.77,15.77,0,0,0-7.76,1.91,13.54,13.54,0,0,0-5.39,5.43,17.92,17.92,0,0,0,0,16.26,13.51,13.51,0,0,0,5.39,5.44,15.77,15.77,0,0,0,7.76,1.91,14.68,14.68,0,0,0,6.8-1.58,13.58,13.58,0,0,0,5.15-4.73l6,3.82a17.34,17.34,0,0,1-7.26,7,22.7,22.7,0,0,1-10.66,2.45A24.38,24.38,0,0,1,948.46,495Z"/><path class="cls-3" d="M988.78,443.45a4.91,4.91,0,0,1-1.53-3.65,5,5,0,0,1,1.53-3.69,5.22,5.22,0,0,1,3.86-1.54A5.42,5.42,0,0,1,996.5,436a4.78,4.78,0,0,1,1.54,3.61,5.14,5.14,0,0,1-1.54,3.78,5.24,5.24,0,0,1-3.86,1.53A5.3,5.3,0,0,1,988.78,443.45Zm-.12,10h8v44h-8Z"/><path class="cls-3" d="M1041.8,457.47q4.86,4.48,4.86,13.36v26.55h-7.56v-5.81a12.54,12.54,0,0,1-5.68,4.69,21.66,21.66,0,0,1-8.75,1.62q-7.4,0-11.82-3.57a12.26,12.26,0,0,1-.21-18.71q4.23-3.53,13.44-3.53h12.61V470.5q0-5.14-3-7.88t-8.79-2.74a23.41,23.41,0,0,0-7.63,1.28,19.65,19.65,0,0,0-6.31,3.45l-3.32-6a24.26,24.26,0,0,1,8.13-4.19,34.28,34.28,0,0,1,10-1.45Q1037,453,1041.8,457.47Zm-7.92,32.23a11.62,11.62,0,0,0,4.81-5.76V477.8h-12.28q-10.13,0-10.12,6.8a6.17,6.17,0,0,0,2.57,5.23,11.76,11.76,0,0,0,7.14,1.91A14.77,14.77,0,0,0,1033.88,489.7Z"/></g></g></svg>