<svg xmlns="http://www.w3.org/2000/svg" viewBox="0 0 1621.39 567.86"><defs><style>.cls-1{fill:#0a0c1a;}.cls-2{fill:#fff;}</style></defs><g id="Capa_2" data-name="Capa 2"><g id="Capa_1-2" data-name="Capa 1"><path class="cls-1" d="M49.2,21.2H0V8.4H113.2V21.2H64V148.4H49.2Z"/><path class="cls-1" d="M214.4,100.2h-88q1.2,16.39,12.6,26.5t28.8,10.1a45.46,45.46,0,0,0,18-3.5A39.29,39.29,0,0,0,200,123l8,9.2A45,45,0,0,1,190.5,145a59.25,59.25,0,0,1-23.1,4.4q-16.2,0-28.7-6.9a49.81,49.81,0,0,1-19.5-19.1,54.4,54.4,0,0,1-7-27.6,56.32,56.32,0,0,1,6.7-27.6,48.54,48.54,0,0,1,18.4-19,51.41,51.41,0,0,1,26.3-6.8,50.89,50.89,0,0,1,26.2,6.8A48.18,48.18,0,0,1,208,68.1q6.6,12.11,6.6,27.7ZM138.1,64.3Q127.79,74,126.4,89.6H201Q199.59,74,189.3,64.3t-25.7-9.7Q148.41,54.6,138.1,64.3Z"/><path class="cls-1" d="M259.3,142.6A49.16,49.16,0,0,1,240,123.5a55,55,0,0,1-7-27.7,54.4,54.4,0,0,1,7-27.6,49.37,49.37,0,0,1,19.3-19,56.73,56.73,0,0,1,27.9-6.8,54.11,54.11,0,0,1,24.3,5.3,40.39,40.39,0,0,1,16.9,15.5l-10.6,7.2a33.21,33.21,0,0,0-13.2-11.7,39.21,39.21,0,0,0-17.4-3.9,41.18,41.18,0,0,0-20.5,5.1,35.8,35.8,0,0,0-14.2,14.5,44.16,44.16,0,0,0-5.1,21.4,44,44,0,0,0,5.1,21.5,36,36,0,0,0,14.2,14.4,41.18,41.18,0,0,0,20.5,5.1,40.12,40.12,0,0,0,17.4-3.8,32.43,32.43,0,0,0,13.2-11.6l10.6,7.2a40.24,40.24,0,0,1-17,15.5,54.25,54.25,0,0,1-24.2,5.3A56.73,56.73,0,0,1,259.3,142.6Z"/><path class="cls-1" d="M441.29,53.9Q453,65.41,453,87.4v61H438.79V88.8q0-16.39-8.19-25t-23.41-8.6q-17,0-26.9,10.1T370.4,93.2v55.2H356.19V43.2h13.6V62.6A39.51,39.51,0,0,1,385.9,47.7q10.29-5.3,23.89-5.3Q429.61,42.4,441.29,53.9Z"/><path class="cls-1" d="M507.59,142.5a50.39,50.39,0,0,1-19.2-19.1,54.4,54.4,0,0,1-7-27.6,54.4,54.4,0,0,1,7-27.6,49.65,49.65,0,0,1,19.2-19,58.6,58.6,0,0,1,54.8,0,48.93,48.93,0,0,1,19.1,19,55.06,55.06,0,0,1,6.9,27.6,55.06,55.06,0,0,1-6.9,27.6,49.65,49.65,0,0,1-19.1,19.1,57.85,57.85,0,0,1-54.8,0Zm47.5-10.8A35.54,35.54,0,0,0,569,117.2a44.91,44.91,0,0,0,5-21.4,44.91,44.91,0,0,0-5-21.4,35.54,35.54,0,0,0-13.9-14.5,42.16,42.16,0,0,0-40.2,0,36.22,36.22,0,0,0-14,14.5,44.16,44.16,0,0,0-5.1,21.4,44.16,44.16,0,0,0,5.1,21.4,36.22,36.22,0,0,0,14,14.5,42.16,42.16,0,0,0,40.2,0Z"/><path class="cls-1" d="M617.39,0h14.2V148.4h-14.2Z"/><path class="cls-1" d="M686.79,142.5a50.39,50.39,0,0,1-19.2-19.1,54.4,54.4,0,0,1-7-27.6,54.4,54.4,0,0,1,7-27.6,49.65,49.65,0,0,1,19.2-19,58.6,58.6,0,0,1,54.8,0,48.93,48.93,0,0,1,19.1,19,55.06,55.06,0,0,1,6.9,27.6,55.06,55.06,0,0,1-6.9,27.6,49.65,49.65,0,0,1-19.1,19.1,57.85,57.85,0,0,1-54.8,0Zm47.5-10.8a35.54,35.54,0,0,0,13.9-14.5,44.91,44.91,0,0,0,5-21.4,44.91,44.91,0,0,0-5-21.4,35.54,35.54,0,0,0-13.9-14.5,42.16,42.16,0,0,0-40.2,0,36.22,36.22,0,0,0-14,14.5A44.16,44.16,0,0,0,675,95.8a44.16,44.16,0,0,0,5.1,21.4,36.22,36.22,0,0,0,14,14.5,42.16,42.16,0,0,0,40.2,0Z"/><path class="cls-1" d="M894,43.2v92.4q0,26.79-13.1,39.7t-39.5,12.9a88.45,88.45,0,0,1-27.7-4.3q-13.1-4.31-21.3-11.9l7.2-10.8a54.2,54.2,0,0,0,18.5,10.6,69.16,69.16,0,0,0,22.9,3.8q20,0,29.4-9.3t9.4-28.9V124a42.82,42.82,0,0,1-17.3,15.2,53.43,53.43,0,0,1-23.7,5.2,56,56,0,0,1-26.9-6.5,48,48,0,0,1-19-18.2A51.17,51.17,0,0,1,786,93.2a50.63,50.63,0,0,1,6.9-26.4,47.72,47.72,0,0,1,18.9-18,56.43,56.43,0,0,1,27-6.4A53.37,53.37,0,0,1,863,47.8a43.61,43.61,0,0,1,17.4,15.6V43.2Zm-33.2,83.7a35.42,35.42,0,0,0,14.3-13.7,39.15,39.15,0,0,0,5.1-20,38.6,38.6,0,0,0-5.1-19.9,35.76,35.76,0,0,0-14.2-13.6,46.17,46.17,0,0,0-41.2-.1,34.84,34.84,0,0,0-14.2,13.6,39.15,39.15,0,0,0-5.1,20,39.15,39.15,0,0,0,5.1,20,35.54,35.54,0,0,0,14.2,13.7,42.51,42.51,0,0,0,20.5,4.9A43.08,43.08,0,0,0,860.79,126.9Z"/><path class="cls-1" d="M955.39,2h19L942,26.8H928Zm-21.6,41.2H948V148.4h-14.2Z"/><path class="cls-1" d="M1056,52.7q11,10.3,11,30.5v65.2h-13.6V132a32.56,32.56,0,0,1-14.1,12.8q-9.3,4.6-22.1,4.6-17.61,0-28-8.4t-10.4-22.2q0-13.39,9.7-21.6t30.9-8.2h33.4V82.6q0-13.6-7.6-20.7T1023,54.8a56.41,56.41,0,0,0-19.2,3.3A48.26,48.26,0,0,0,988,67.2l-6.4-10.6a56.8,56.8,0,0,1,19.2-10.5,74.61,74.61,0,0,1,23.6-3.7Q1045,42.4,1056,52.7Zm-16,80a32.89,32.89,0,0,0,12.8-15.9V99.6h-33q-27,0-27,18.8a17.19,17.19,0,0,0,7,14.5q7,5.29,19.6,5.3Q1031.39,138.2,1040,132.7Z"/><path class="cls-1" d="M1246.39,43.2,1193.79,161q-6.4,14.81-14.8,21t-20.2,6.2a41.22,41.22,0,0,1-14.2-2.4,30.77,30.77,0,0,1-11.4-7.2l6.6-10.6a26.19,26.19,0,0,0,19.2,8,19.3,19.3,0,0,0,12.3-4q5.1-4,9.5-13.6l4.6-10.2-47-105h14.8l39.6,89.4,39.6-89.4Z"/><path class="cls-2" d="M183.5,258.1q11.9,11.89,11.9,35.7v61.6H164.2V298.6q0-12.8-5.3-19.1t-15.1-6.3q-11,0-17.4,7.1T120,301.4v54H88.8V298.6q0-25.39-20.4-25.4-10.8,0-17.2,7.1t-6.4,21.1v54H13.6V247.8H43.4v12.4a39.42,39.42,0,0,1,14.7-10.4,49.49,49.49,0,0,1,19.1-3.6,46.25,46.25,0,0,1,20.6,4.5,36.51,36.51,0,0,1,14.8,13.1,44.19,44.19,0,0,1,16.7-13,52.62,52.62,0,0,1,22.1-4.6Q171.61,246.2,183.5,258.1Z"/><path class="cls-2" d="M305.2,258.1Q318.6,270,318.6,294v61.4H289.4V342q-8.81,15-32.8,15-12.41,0-21.5-4.2a32.06,32.06,0,0,1-13.9-11.6,30.18,30.18,0,0,1-4.8-16.8q0-15,11.3-23.6t34.9-8.6h24.8q0-10.2-6.2-15.7T262.6,271a54.31,54.31,0,0,0-16.9,2.7,44.72,44.72,0,0,0-14.1,7.3l-11.2-21.8a67.76,67.76,0,0,1,21.1-9.6,94.37,94.37,0,0,1,25.3-3.4Q291.81,246.2,305.2,258.1Zm-26.6,74.2a20.26,20.26,0,0,0,8.8-10.9v-11H266q-19.2,0-19.2,12.6a11.22,11.22,0,0,0,4.7,9.5q4.69,3.5,12.9,3.5A27.14,27.14,0,0,0,278.6,332.3Z"/><path class="cls-2" d="M444.5,258.2q12.3,12,12.3,35.6v61.6H425.6V298.6q0-12.8-5.6-19.1t-16.2-6.3q-11.81,0-18.8,7.3t-7,21.7v53.2H346.8V247.8h29.8v12.6A41.37,41.37,0,0,1,392,249.9a53.55,53.55,0,0,1,20.2-3.7Q432.19,246.2,444.5,258.2Z"/><path class="cls-2" d="M554.4,350.2a32,32,0,0,1-11.3,5.1A57.33,57.33,0,0,1,529,357q-19.2,0-29.7-9.8t-10.5-28.8V274.2H472.2v-24h16.6V224H520v26.2h26.8v24H520V318q0,6.79,3.5,10.5t9.9,3.7a20,20,0,0,0,12.6-4Z"/><path class="cls-2" d="M673.4,310.4H592a25.31,25.31,0,0,0,10.4,15.8q8.19,5.81,20.4,5.8a41.26,41.26,0,0,0,14.9-2.5,36.24,36.24,0,0,0,12.1-7.9l16.6,18Q651.19,357,622,357q-18.21,0-32.2-7.1a51.94,51.94,0,0,1-21.6-19.7,54.24,54.24,0,0,1-7.6-28.6,55,55,0,0,1,7.5-28.5,52.45,52.45,0,0,1,20.6-19.8,63.78,63.78,0,0,1,57.9-.3,49.63,49.63,0,0,1,20.1,19.5Q674,285.21,674,302,674,302.6,673.4,310.4Zm-73-34.6q-7.2,6-8.8,16.4h53a25.82,25.82,0,0,0-8.8-16.3,26.29,26.29,0,0,0-17.6-6.1Q607.6,269.8,600.4,275.8Z"/><path class="cls-2" d="M792.5,258.2q12.3,12,12.3,35.6v61.6H773.6V298.6q0-12.8-5.6-19.1t-16.2-6.3q-11.81,0-18.8,7.3t-7,21.7v53.2H694.8V247.8h29.8v12.6A41.37,41.37,0,0,1,740,249.9a53.55,53.55,0,0,1,20.2-3.7Q780.2,246.2,792.5,258.2Z"/><path class="cls-2" d="M834.59,227.8a16.94,16.94,0,0,1,0-24.8q5.4-5,14-5t14,4.8a15.39,15.39,0,0,1,5.4,12,17,17,0,0,1-5.4,12.9q-5.4,5.1-14,5.1T834.59,227.8Zm-1.6,20h31.2V355.4H833Z"/><path class="cls-2" d="M1063.09,258.1Q1075,270,1075,293.8v61.6h-31.2V298.6q0-12.8-5.3-19.1t-15.1-6.3q-11,0-17.4,7.1t-6.4,21.1v54h-31.2V298.6q0-25.39-20.4-25.4-10.8,0-17.2,7.1t-6.4,21.1v54h-31.2V247.8H923v12.4a39.42,39.42,0,0,1,14.7-10.4,49.49,49.49,0,0,1,19.1-3.6,46.25,46.25,0,0,1,20.6,4.5,36.51,36.51,0,0,1,14.8,13.1,44.19,44.19,0,0,1,16.7-13,52.62,52.62,0,0,1,22.1-4.6Q1051.2,246.2,1063.09,258.1Z"/><path class="cls-2" d="M1104.59,227.8a16.94,16.94,0,0,1,0-24.8q5.4-5,14-5t14,4.8a15.39,15.39,0,0,1,5.4,12,17,17,0,0,1-5.4,12.9q-5.4,5.1-14,5.1T1104.59,227.8Zm-1.6,20h31.2V355.4H1103Z"/><path class="cls-2" d="M1268,310.4h-81.4a25.35,25.35,0,0,0,10.4,15.8q8.21,5.81,20.4,5.8a41.22,41.22,0,0,0,14.9-2.5,36.14,36.14,0,0,0,12.1-7.9l16.6,18q-15.2,17.4-44.4,17.4-18.19,0-32.2-7.1a52.07,52.07,0,0,1-21.6-19.7,54.24,54.24,0,0,1-7.6-28.6,55,55,0,0,1,7.5-28.5,52.52,52.52,0,0,1,20.6-19.8,63.78,63.78,0,0,1,57.9-.3,49.63,49.63,0,0,1,20.1,19.5q7.31,12.71,7.3,29.5Q1268.59,302.6,1268,310.4Zm-73-34.6q-7.2,6-8.8,16.4h53a25.82,25.82,0,0,0-8.8-16.3,26.29,26.29,0,0,0-17.6-6.1Q1202.19,269.8,1195,275.8Z"/><path class="cls-2" d="M1387.09,258.2q12.3,12,12.3,35.6v61.6h-31.2V298.6q0-12.8-5.6-19.1t-16.2-6.3q-11.81,0-18.8,7.3t-7,21.7v53.2h-31.2V247.8h29.8v12.6a41.45,41.45,0,0,1,15.4-10.5,53.59,53.59,0,0,1,20.2-3.7Q1374.79,246.2,1387.09,258.2Z"/><path class="cls-2" d="M1497,350.2a32,32,0,0,1-11.3,5.1,57.33,57.33,0,0,1-14.1,1.7q-19.2,0-29.7-9.8t-10.5-28.8V274.2h-16.6v-24h16.6V224h31.2v26.2h26.8v24h-26.8V318q0,6.79,3.5,10.5t9.9,3.7a20,20,0,0,0,12.6-4Z"/><path class="cls-2" d="M1531.89,349.9a52.78,52.78,0,0,1-21.1-19.7,57.61,57.61,0,0,1,0-57.2,52.78,52.78,0,0,1,21.1-19.7,64.57,64.57,0,0,1,30.5-7.1q17,0,30.4,7.1a53,53,0,0,1,21,19.7,57.61,57.61,0,0,1,0,57.2,53,53,0,0,1-21,19.7q-13.39,7.1-30.4,7.1A64.57,64.57,0,0,1,1531.89,349.9Zm50.2-26.6q7.7-8.1,7.7-21.7t-7.7-21.7q-7.69-8.1-19.7-8.1t-19.8,8.1q-7.8,8.1-7.8,21.7t7.8,21.7q7.8,8.1,19.8,8.1T1582.09,323.3Z"/><path class="cls-1" d="M107.78,496.1a84.73,84.73,0,0,1-7.54,12.16q-25.41,37.14-35.76,35-13.17-2.82-13.18-13.42a28.07,28.07,0,0,1,.34-4.37,148.25,148.25,0,0,1,5-15.91,268.72,268.72,0,0,1-18.1,22.15Q24.16,546.95,19.17,547q-6.87,0-11.23-6.86A21.88,21.88,0,0,1,4.5,528.54q0-21.21,23.72-44.77T71.9,460.53q6.85,0,14,9.67a8.74,8.74,0,0,1,2.18,5.93,3.82,3.82,0,0,1-2.18,3.43,10.34,10.34,0,0,0-6.56-4.37q-10-2.18-32.76,17T17.3,528.86A24.38,24.38,0,0,0,15.42,537q0,5.61,6.87.62,13.1-9.66,27.77-26.52t17.16-25.58c1.24-1.66,3.63-2.5,7.17-2.5a20.07,20.07,0,0,1,8.43,2c2.91,1.36,4,2.86,3.12,4.52Q70,513.26,66.59,526.67A13.2,13.2,0,0,0,66,530.1c0,2.29.93,3.44,2.81,3.44s3.84-1,5.92-3,11.75-13.78,29-35.41q2.49-3.12,3.74-3.12C108.92,492,109,493.39,107.78,496.1Z"/><path class="cls-1" d="M225.08,361.94q0,12.48-25.27,43.05-20.9,25.27-42.12,50.55-29.64,36.19-32.45,44.92-.61,2.19-1.56,2.19c-1,0-1.45-1-1.24-3.12q2.18-14,65.83-92,10.6-12.8,16.85-21.53,8.1-11.85,8.11-16.22c0-1-.42-1.56-1.25-1.56q-3.76,0-15.34,13.72Q111.51,482.68,113.7,530.1q.63,11.86,8.78,11.86,7.53,0,15.37-8.42,16.62-17.79,26-33.7,10-17.16,10-10.92a7,7,0,0,1-.63,2.18q-5.61,19.35-27.14,44-11.86,13.73-26.21,13.72Q99,548.82,99,524.49q0-25.9,22.15-70.83a400.64,400.64,0,0,1,45.86-73.94q26.52-34,39-32.76,6.24.63,10.92,6.55Q222.6,360.7,225.08,361.94Z"/><path class="cls-1" d="M310.26,496.1a83.6,83.6,0,0,1-7.53,12.16q-25.41,37.14-35.77,35-13.17-2.82-13.17-13.42a29.32,29.32,0,0,1,.33-4.37,148.25,148.25,0,0,1,5-15.91A270.48,270.48,0,0,1,241,531.66Q226.65,546.95,221.65,547q-6.87,0-11.23-6.86A21.86,21.86,0,0,1,207,528.54q0-21.21,23.71-44.77t43.68-23.24q6.86,0,14,9.67a8.74,8.74,0,0,1,2.18,5.93,3.82,3.82,0,0,1-2.18,3.43,10.32,10.32,0,0,0-6.55-4.37q-10-2.18-32.76,17t-29.33,36.66a24.32,24.32,0,0,0-1.87,8.11q0,5.61,6.86.62,13.11-9.66,27.77-26.52t17.16-25.58c1.25-1.66,3.64-2.5,7.18-2.5a20,20,0,0,1,8.42,2c2.91,1.36,3.95,2.86,3.12,4.52q-15.92,23.71-19.34,37.13a13.3,13.3,0,0,0-.63,3.43q0,3.43,2.81,3.44t5.93-3q3.1-3,29-35.41c1.67-2.08,2.91-3.12,3.75-3.12C311.4,492,311.51,493.39,310.26,496.1Z"/><path class="cls-1" d="M427.57,361.94q0,12.48-25.27,43.05-20.91,25.27-42.12,50.55-29.65,36.19-32.45,44.92-.63,2.19-1.56,2.19c-1.05,0-1.46-1-1.25-3.12q2.18-14,65.83-92,10.61-12.8,16.85-21.53,8.11-11.85,8.11-16.22c0-1-.42-1.56-1.25-1.56q-3.76,0-15.34,13.72Q314,482.68,316.18,530.1,316.81,542,325,542q7.53,0,15.37-8.42,16.62-17.79,26-33.7,10-17.16,10-10.92a7.17,7.17,0,0,1-.62,2.18q-5.62,19.35-27.15,44-11.86,13.73-26.21,13.72-20.9,0-20.9-24.33,0-25.9,22.15-70.83a400.14,400.14,0,0,1,45.87-73.94q26.5-34,39-32.76c4.15.42,7.8,2.6,10.92,6.55Q425.07,360.7,427.57,361.94Z"/><path class="cls-1" d="M430.38,465.83c.82,1.05,1.35,3,1.56,5.93,0,3.33-.84,5.41-2.5,6.24q0-5.92-5.3-5.93t-11.24,4.37q-9.36,6.87-20.9,20.9-12.17,15.3-15,25.28a36.73,36.73,0,0,0-1.24,8.73q0,10.3,9.67,10.3,8.1,0,16.22-5.62,10.6-7.49,22.15-21.84,2.51-3.12,4.06-3.12c.62,0,.94.42.94,1.25q0,4.36-7.49,13.73-8.74,10.61-17.16,15.91-9.68,6.24-19,6.24A21.76,21.76,0,0,1,368.29,541q-6.56-7.17-6.55-19a50.29,50.29,0,0,1,4.68-20.28,83.88,83.88,0,0,1,21.06-29.64Q401.67,459,414.78,459,425.37,459,430.38,465.83Z"/><path class="cls-1" d="M526.47,496.1a83.6,83.6,0,0,1-7.53,12.16q-25.41,37.14-35.77,35Q470,540.39,470,529.79a28,28,0,0,1,.33-4.37,148.25,148.25,0,0,1,5-15.91,268.72,268.72,0,0,1-18.1,22.15Q442.85,546.95,437.86,547q-6.87,0-11.23-6.86a21.86,21.86,0,0,1-3.43-11.55q0-21.21,23.71-44.77t43.68-23.24q6.86,0,14,9.67a8.74,8.74,0,0,1,2.18,5.93,3.82,3.82,0,0,1-2.18,3.43,10.32,10.32,0,0,0-6.55-4.37q-10-2.18-32.76,17T436,528.86a24.32,24.32,0,0,0-1.87,8.11q0,5.61,6.86.62,13.11-9.66,27.77-26.52t17.16-25.58c1.25-1.66,3.64-2.5,7.17-2.5a20,20,0,0,1,8.43,2c2.91,1.36,3.95,2.86,3.12,4.52q-15.92,23.71-19.35,37.13a13.65,13.65,0,0,0-.62,3.43q0,3.43,2.81,3.44c1.87,0,3.84-1,5.93-3s11.75-13.78,29-35.41c1.67-2.08,2.91-3.12,3.75-3.12C527.61,492,527.72,493.39,526.47,496.1Z"/><path class="cls-1" d="M601,513.23Q580.25,546,566.92,547q-17.37,1.24-17.37-16.77,0-15.84,12.57-38.2,4.9-9.32,4.9-11.8c0-.62-.2-.93-.62-.93q-5.31,0-28.39,30.26-14,18.42-16.85,30.89-.63,2.8-4.68,2.81a9.28,9.28,0,0,1-7.18-3.12,11.29,11.29,0,0,1-3.11-9.67q.3-1.87,22.77-50.24-3.12-2.49-1.56-5.61,1.25-2.49,9.05-16.54,5-4,14.66-4,9.36,0,3.12,10Q529,506.71,529,512q0,.93,5.93-7.18,15.29-20.9,40.87-45.24.93.63,10.92,2.18,7.17.93,7.18,5.9,0,9.94-16.54,30.15T560.78,534.5q0,6.21,3.75,6.21a10.9,10.9,0,0,0,5.3-1.85q11.24-6.79,25-25.64,2.82-3.71,5-3.71,1.56,0,1.56,1.86A5.76,5.76,0,0,1,601,513.23Z"/><path class="cls-1" d="M666.86,465.83c.83,1.05,1.35,3,1.56,5.93q0,5-2.5,6.24,0-5.92-5.3-5.93t-11.23,4.37q-9.36,6.87-20.91,20.9-12.16,15.3-15,25.28a36.29,36.29,0,0,0-1.25,8.73q0,10.3,9.67,10.3,8.12,0,16.23-5.62,10.61-7.49,22.15-21.84,2.49-3.12,4.05-3.12c.63,0,.94.42.94,1.25q0,4.36-7.49,13.73-8.73,10.61-17.16,15.91-9.67,6.24-19,6.24A21.78,21.78,0,0,1,604.77,541q-6.56-7.17-6.55-19a50.29,50.29,0,0,1,4.68-20.28A83.88,83.88,0,0,1,624,472.07Q638.15,459,651.26,459,661.87,459,666.86,465.83Z"/><path class="cls-1" d="M731.44,464q8.43,2.51,8.43,10.3,0,9.36-10,17.47-3.74,3.12-25.58,16.53-15.62,9.36-17.79,15.29c-.62,1.46-1.45,2.08-2.49,1.87-.84-.41-1-1.35-.63-2.8q3.76-10.61,18.86-22.16,19.79-15,22.62-18.4,3.76-4.68,3.76-8.12,0-4.05-4.08-4.05-3.45,0-8.16,3.12-30.45,20.28-38.3,50.85a28.78,28.78,0,0,0-.94,6.87q0,10.6,10.92,10.6A29,29,0,0,0,702.74,537q8.73-5,17.16-15.6,7.17-9,10-9,.63,0,.63.93,0,4-9.36,15.46Q704.29,549.14,684.33,547q-17.79-1.87-20.59-20.21t16.53-43.21Q699.62,458.66,717.4,459,718.65,460.53,731.44,464Z"/><path class="cls-1" d="M1021,345.4c0,1.46-.84,2.18-2.5,2.18a3.31,3.31,0,0,1-1.87-.62,33.8,33.8,0,0,0-17.47-5q-23.71,0-61.47,42.43a426,426,0,0,0-54.6,78q-23.4,42.75-23.4,65.52,0,12.17,6.87,12.17,4.05,0,8.73-4.37,12.48-10.61,29.64-34.63,4.68-6.24,6.24-6.24.63,0,.63.93,0,5.63-12.48,22.47a207.59,207.59,0,0,1-16.85,20q-8.12,8.1-17.16,8.11a16.25,16.25,0,0,1-12.95-6.09q-5.15-6.07-5.15-16.38a72.09,72.09,0,0,1,1.25-12.79Q826,546.34,810.69,546.33q-7.19,0-13.26-6.51t-6.09-11.77q0-21.06,23.72-44.44t43.68-23.08a10.37,10.37,0,0,1,6.55,2.49q26.52-55.84,55.53-89.85,30.58-35.88,73.95-35.88a69,69,0,0,1,14.35,2.18Q1021,342,1021,345.4ZM859.67,475.5a44.48,44.48,0,0,0-9.41,3.75q-13.5,7.49-27,21.84-14.43,15-19.14,27.77a13.21,13.21,0,0,0-.94,4.68c0,4.36,1.67,6.55,5,6.55q11.61,0,44.24-45.55Q855.28,485.79,859.67,475.5Z"/><path class="cls-1" d="M959.82,464q8.43,2.51,8.43,10.3,0,9.36-10,17.47-3.74,3.12-25.58,16.53-15.6,9.36-17.78,15.29c-.63,1.46-1.46,2.08-2.5,1.87-.83-.41-1-1.35-.62-2.8q3.76-10.61,18.85-22.16,19.79-15,22.62-18.4,3.76-4.68,3.77-8.12,0-4.05-4.08-4.05-3.47,0-8.17,3.12-30.43,20.28-38.29,50.85a28.28,28.28,0,0,0-.94,6.87q0,10.6,10.92,10.6A29,29,0,0,0,931.12,537q8.73-5,17.16-15.6,7.17-9,10-9,.63,0,.63.93,0,4-9.36,15.46Q932.69,549.14,912.71,547q-17.78-1.87-20.59-20.21t16.54-43.21Q928,458.66,945.78,459,947,460.53,959.82,464Z"/><path class="cls-1" d="M1134.86,440.25q5.3,0,5.3,2.18c0,1.25-.89,2.45-2.65,3.59a9.89,9.89,0,0,1-5.46,1.72q-22.79,0-52.1,2.18-9.06,2.81-25.28,32.45-14.36,26.2-17.78,39a44.75,44.75,0,0,0-1.25,9.36q0,7.8,5.31,7.8a11.71,11.71,0,0,0,7.48-3.12q13.42-11.55,30-34.32,4.36-6.24,5.92-6.24.63,0,.63.93,0,4.07-5.62,12.48-7.18,11.24-23.71,31.52-8.11,8.1-17.78,8.11-17.17,0-17.48-21.22-.32-13.09,12.48-40.25a305,305,0,0,1,21.22-38.68H1041q-4.68,0-4.68-3.26,0-4.23,4-4.23h18.41q2.8-3.72,9.67-16.41t6.87-14.24a2.65,2.65,0,0,0-1.1-2.32,15.8,15.8,0,0,1-2-1.7,2.66,2.66,0,0,1-.94-1.86q0-3.41,4.06-3.1,3.42.31,14,5.58t11.23,5.26q-7.8,11.44-19.35,28.79h53.67Z"/><path class="cls-1" d="M1171.05,495.47c3.32-4,5.3-5.93,5.92-5.93a.29.29,0,0,1,.32.32q0,4.68-9.68,18.72-4,6.54-13.72,19.34-12.5,15-19,15-9.36,0-14.19-4.68a12.39,12.39,0,0,1-3.9-11.24q.3-4.37,8.11-24.33-9,11.53-18.1,22.77-15.29,19-21.52,19-16.86,0-14.67-12.48,1.25-7.8,12.17-32.76-1.24-3.12,0-4.68,19.35-28.71,25.27-28.71t14.35,8.74q-12.16,15.29-17.78,23.4-10.29,14.67-13.73,24.33a21.85,21.85,0,0,0-1.56,6.56q0,5.61,8.27-2.81t23.87-29.33q18.4-25,20.9-27.77,3.75-4.36,7.8-4.37,5.92,0,13.11,8.43-30,38.37-30,57.41,0,5,2.5,5c1.25,0,3.22-1.14,5.93-3.43A162.56,162.56,0,0,0,1157,514.5Q1164.18,505.14,1171.05,495.47Z"/><path class="cls-1" d="M1343,478.94a49.77,49.77,0,0,1-8.73,20.28q-26.21,35.88-29.33,50.85a36.27,36.27,0,0,0-.62,6.55q0,6.24,3.12,6.24c1.24,0,2.91-.88,5-2.65s5.09-4.32,9-7.64q1.56-1.87,2.49-1.56c.63.2.63,1.14,0,2.81q-6.56,14-14.66,14-15.3,0-15.29-16.23,0-13.1,10.61-34.63,15.29-30.25,16.38-33.54a17.41,17.41,0,0,0,1.09-5.15c0-2.08-.73-3.12-2.18-3.12q-3.43,0-9,5.62-9.36,9.68-23.4,30.89-12.17,18.41-15.91,26.2-2.82,6.24-7.49,6.24-5,0-11.23-7.21,6.24-14.1,12.48-28.2,8.1-20.06,8.11-28.84,0-4.69-2.81-4.7c-1.25,0-3.12,1.16-5.62,3.46q-9.36,8.19-23.4,29.6-15,22.37-17.16,33.06-.62,2.84-4.68,2.83a9.21,9.21,0,0,1-7.17-3.12,11.26,11.26,0,0,1-3.12-9.67q.3-2.49,20.9-46.8-3.12-2.49-1.56-5.61,1.56-2.51,9-16.54,5.31-4,14.66-4.06t3.44,9.93q-24,40-24,45.61v.31q.94,0,10-13.73Q1252.16,485.17,1254,483q4.07-5.3,8.43-10.14t9.36-4.83q9,0,13.88,4.68a12.37,12.37,0,0,1,3.9,11.23q-.31,4.36-8.11,24.33,9.67-12.47,19.34-25,16.23-20.9,22.47-20.9a21.56,21.56,0,0,1,14,5.46Q1343.9,473.32,1343,478.94Z"/><path class="cls-1" d="M1443.11,496.1a85.42,85.42,0,0,1-7.53,12.16q-25.42,37.14-35.77,35-13.17-2.82-13.18-13.42a28.07,28.07,0,0,1,.34-4.37,148.25,148.25,0,0,1,5-15.91,268.72,268.72,0,0,1-18.1,22.15q-14.35,15.29-19.34,15.29-6.87,0-11.23-6.86a21.88,21.88,0,0,1-3.44-11.55q0-21.21,23.72-44.77t43.68-23.24q6.86,0,14,9.67a8.74,8.74,0,0,1,2.18,5.93,3.82,3.82,0,0,1-2.18,3.43,10.31,10.31,0,0,0-6.56-4.37q-10-2.18-32.76,17t-29.32,36.66a24.38,24.38,0,0,0-1.88,8.11q0,5.61,6.87.62,13.1-9.66,27.77-26.52t17.16-25.58c1.24-1.66,3.63-2.5,7.17-2.5a20.07,20.07,0,0,1,8.43,2c2.91,1.36,3.94,2.86,3.12,4.52q-15.91,23.71-19.35,37.13a13.2,13.2,0,0,0-.62,3.43q0,3.43,2.81,3.44t5.92-3q3.12-3,29-35.41,2.49-3.12,3.74-3.12C1444.25,492,1444.35,493.39,1443.11,496.1Z"/><path class="cls-1" d="M1517.67,513.23Q1496.9,546,1483.56,547q-17.37,1.24-17.37-16.77,0-15.84,12.57-38.2,4.89-9.32,4.9-11.8c0-.62-.21-.93-.62-.93q-5.31,0-28.39,30.26-14,18.42-16.85,30.89-.63,2.8-4.68,2.81a9.25,9.25,0,0,1-7.18-3.12,11.3,11.3,0,0,1-3.12-9.67q.32-1.87,22.78-50.24-3.12-2.49-1.56-5.61,1.24-2.49,9-16.54,5-4,14.66-4,9.36,0,3.12,10Q1445.6,506.71,1445.6,512q0,.93,5.93-7.18,15.29-20.9,40.87-45.24.93.63,10.92,2.18,7.17.93,7.17,5.9,0,9.94-16.53,30.15t-16.54,36.68q0,6.21,3.75,6.21a10.9,10.9,0,0,0,5.3-1.85q11.23-6.79,25-25.64,2.8-3.71,5-3.71,1.56,0,1.56,1.86A5.76,5.76,0,0,1,1517.67,513.23Z"/><path class="cls-1" d="M1590.05,470.51a26.35,26.35,0,0,1,4.06,14.67q0,25.89-26.52,49-16.54,14.65-30.58,14a22.18,22.18,0,0,1-15.91-7.8q-6.25-7.17-6.24-18.41a50.29,50.29,0,0,1,4.68-20.28q6.86-16.21,22.15-29.79t28.7-13.58c1.25,0,3.33,1.31,6.24,3.9s5.62,4.11,8.12,4.53C1586.62,466.56,1588.38,467.81,1590.05,470.51Zm-13.1,1.87q-5.31,0-10.92,4.06-9.36,6.56-22.47,24-15.29,20.6-15.29,31.52,0,10,10.92,10,14.67,0,31.83-21.53,16.21-20.59,16.22-36.19Q1587.24,472.39,1577,472.38Z"/></g></g></svg>